{
DisplayStrings = (
":"
);

glyphs = (
{
glyphname = A;
lastChange = "2013-07-17 13:29:48 +0000";
layers = (
{
anchors = (
{
name = ogonek;
position = "{626, 10}";
},
{
name = top;
position = "{348, 679}";
}
);
layerId = "EBCDC205-C9A0-423C-849D-CA5F62F08A5E";
name = Regular;
paths = (
{
closed = 1;
nodes = (
"237.78 194 LINE",
"421.342 194 LINE",
"454.416 99 LINE",
"430 99 LINE SMOOTH",
"402.565 99 OFFCURVE",
"385 85.8372 OFFCURVE",
"385 64 CURVE SMOOTH",
"385 15 LINE SMOOTH",
"385 -5 OFFCURVE",
"400.487 -20 OFFCURVE",
"430 -20 CURVE SMOOTH",
"681 -20 LINE SMOOTH",
"708.435 -20 OFFCURVE",
"726 -7 OFFCURVE",
"726 15 CURVE SMOOTH",
"726 64 LINE SMOOTH",
"726 82.5567 OFFCURVE",
"713.562 99 OFFCURVE",
"681 99 CURVE SMOOTH",
"636.715 99 LINE",
"439.362 671.518 LINE",
"438.854 672.428 LINE",
"433.906 684.797 OFFCURVE",
"412.603 699 OFFCURVE",
"391 699 CURVE SMOOTH",
"294 699 LINE SMOOTH",
"272.397 699 OFFCURVE",
"251.094 684.797 OFFCURVE",
"246.146 672.428 CURVE",
"245.608 671.46 LINE",
"50.2292 99 LINE",
"15 99 LINE SMOOTH",
"-12 99 OFFCURVE",
"-30 85.8372 OFFCURVE",
"-30 64 CURVE SMOOTH",
"-30 15 LINE SMOOTH",
"-30 -4 OFFCURVE",
"-18 -20 OFFCURVE",
"15 -20 CURVE SMOOTH",
"228 -20 LINE SMOOTH",
"255.435 -20 OFFCURVE",
"273 -7 OFFCURVE",
"273 15 CURVE SMOOTH",
"273 64 LINE SMOOTH",
"273 83.6158 OFFCURVE",
"257.513 99 OFFCURVE",
"228 99 CURVE SMOOTH",
"205.41 99 LINE"
);
},
{
closed = 1;
nodes = (
"328.844 488.024 LINE",
"386.083 309 LINE",
"270.996 309 LINE"
);
}
);
width = 696;
}
);
unicode = 0041;
},
{
glyphname = Aacute;
lastChange = "2013-07-17 11:29:20 +0000";
layers = (
{
layerId = "EBCDC205-C9A0-423C-849D-CA5F62F08A5E";
name = Regular;
paths = (
{
closed = 1;
nodes = (
"237.78 194 LINE",
"421.342 194 LINE",
"454.416 99 LINE",
"430 99 LINE SMOOTH",
"402.565 99 OFFCURVE",
"385 85.8372 OFFCURVE",
"385 64 CURVE SMOOTH",
"385 15 LINE SMOOTH",
"385 -5 OFFCURVE",
"400.487 -20 OFFCURVE",
"430 -20 CURVE SMOOTH",
"681 -20 LINE SMOOTH",
"708.435 -20 OFFCURVE",
"726 -7 OFFCURVE",
"726 15 CURVE SMOOTH",
"726 64 LINE SMOOTH",
"726 82.5567 OFFCURVE",
"713.562 99 OFFCURVE",
"681 99 CURVE SMOOTH",
"636.715 99 LINE",
"439.362 671.518 LINE",
"438.854 672.428 LINE",
"433.906 684.797 OFFCURVE",
"412.603 699 OFFCURVE",
"391 699 CURVE SMOOTH",
"294 699 LINE SMOOTH",
"272.397 699 OFFCURVE",
"251.094 684.797 OFFCURVE",
"246.146 672.428 CURVE",
"245.608 671.46 LINE",
"50.2292 99 LINE",
"15 99 LINE SMOOTH",
"-12 99 OFFCURVE",
"-30 85.8372 OFFCURVE",
"-30 64 CURVE SMOOTH",
"-30 15 LINE SMOOTH",
"-30 -4 OFFCURVE",
"-18 -20 OFFCURVE",
"15 -20 CURVE SMOOTH",
"228 -20 LINE SMOOTH",
"255.435 -20 OFFCURVE",
"273 -7 OFFCURVE",
"273 15 CURVE SMOOTH",
"273 64 LINE SMOOTH",
"273 83.6158 OFFCURVE",
"257.513 99 OFFCURVE",
"228 99 CURVE SMOOTH",
"205.41 99 LINE"
);
},
{
closed = 1;
nodes = (
"328.844 488.024 LINE",
"386.083 309 LINE",
"270.996 309 LINE"
);
},
{
closed = 1;
nodes = (
"287 776 LINE",
"272 750 OFFCURVE",
"286 728 OFFCURVE",
"321 728 CURVE SMOOTH",
"369 728 LINE SMOOTH",
"386 728 OFFCURVE",
"407 738 OFFCURVE",
"415 747 CURVE",
"487 851 LINE",
"486 850 LINE",
"501 871 OFFCURVE",
"496 894 OFFCURVE",
"456 894 CURVE SMOOTH",
"378 894 LINE SMOOTH",
"359 894 OFFCURVE",
"338 883 OFFCURVE",
"331 871 CURVE"
);
}
);
width = 696;
}
);
unicode = 00C1;
},
{
glyphname = Abreve;
lastChange = "2013-07-17 11:29:30 +0000";
layers = (
{
layerId = "EBCDC205-C9A0-423C-849D-CA5F62F08A5E";
name = Regular;
paths = (
{
closed = 1;
nodes = (
"237.78 194 LINE",
"421.342 194 LINE",
"454.416 99 LINE",
"430 99 LINE SMOOTH",
"402.565 99 OFFCURVE",
"385 85.8372 OFFCURVE",
"385 64 CURVE SMOOTH",
"385 15 LINE SMOOTH",
"385 -5 OFFCURVE",
"400.487 -20 OFFCURVE",
"430 -20 CURVE SMOOTH",
"681 -20 LINE SMOOTH",
"708.435 -20 OFFCURVE",
"726 -7 OFFCURVE",
"726 15 CURVE SMOOTH",
"726 64 LINE SMOOTH",
"726 82.5567 OFFCURVE",
"713.562 99 OFFCURVE",
"681 99 CURVE SMOOTH",
"636.715 99 LINE",
"439.362 671.518 LINE",
"438.854 672.428 LINE",
"433.906 684.797 OFFCURVE",
"412.603 699 OFFCURVE",
"391 699 CURVE SMOOTH",
"294 699 LINE SMOOTH",
"272.397 699 OFFCURVE",
"251.094 684.797 OFFCURVE",
"246.146 672.428 CURVE",
"245.608 671.46 LINE",
"50.2292 99 LINE",
"15 99 LINE SMOOTH",
"-12 99 OFFCURVE",
"-30 85.8372 OFFCURVE",
"-30 64 CURVE SMOOTH",
"-30 15 LINE SMOOTH",
"-30 -4 OFFCURVE",
"-18 -20 OFFCURVE",
"15 -20 CURVE SMOOTH",
"228 -20 LINE SMOOTH",
"255.435 -20 OFFCURVE",
"273 -7 OFFCURVE",
"273 15 CURVE SMOOTH",
"273 64 LINE SMOOTH",
"273 83.6158 OFFCURVE",
"257.513 99 OFFCURVE",
"228 99 CURVE SMOOTH",
"205.41 99 LINE"
);
},
{
closed = 1;
nodes = (
"328.844 488.024 LINE",
"386.083 309 LINE",
"270.996 309 LINE"
);
},
{
closed = 1;
nodes = (
"307 842 OFFCURVE",
"297 848 OFFCURVE",
"292 869 CURVE SMOOTH",
"286 892 OFFCURVE",
"272 903 OFFCURVE",
"239 903 CURVE SMOOTH",
"207 903 LINE SMOOTH",
"173 903 OFFCURVE",
"158 889 OFFCURVE",
"158 864 CURVE SMOOTH",
"160 779 OFFCURVE",
"229 726 OFFCURVE",
"351 726 CURVE SMOOTH",
"466 726 OFFCURVE",
"540 777 OFFCURVE",
"547 862 CURVE SMOOTH",
"549 888 OFFCURVE",
"533 903 OFFCURVE",
"499 903 CURVE SMOOTH",
"468 903 LINE SMOOTH",
"441 903 OFFCURVE",
"420 890 OFFCURVE",
"413 870 CURVE SMOOTH",
"406 845 OFFCURVE",
"397 842 OFFCURVE",
"354 842 CURVE SMOOTH"
);
}
);
width = 696;
}
);
unicode = 0102;
},
{
glyphname = Acircumflex;
lastChange = "2013-07-17 11:29:40 +0000";
layers = (
{
layerId = "EBCDC205-C9A0-423C-849D-CA5F62F08A5E";
name = Regular;
paths = (
{
closed = 1;
nodes = (
"237.78 194 LINE",
"421.342 194 LINE",
"454.416 99 LINE",
"430 99 LINE SMOOTH",
"402.565 99 OFFCURVE",
"385 85.8372 OFFCURVE",
"385 64 CURVE SMOOTH",
"385 15 LINE SMOOTH",
"385 -5 OFFCURVE",
"400.487 -20 OFFCURVE",
"430 -20 CURVE SMOOTH",
"681 -20 LINE SMOOTH",
"708.435 -20 OFFCURVE",
"726 -7 OFFCURVE",
"726 15 CURVE SMOOTH",
"726 64 LINE SMOOTH",
"726 82.5567 OFFCURVE",
"713.562 99 OFFCURVE",
"681 99 CURVE SMOOTH",
"636.715 99 LINE",
"439.362 671.518 LINE",
"438.854 672.428 LINE",
"433.906 684.797 OFFCURVE",
"412.603 699 OFFCURVE",
"391 699 CURVE SMOOTH",
"294 699 LINE SMOOTH",
"272.397 699 OFFCURVE",
"251.094 684.797 OFFCURVE",
"246.146 672.428 CURVE",
"245.608 671.46 LINE",
"50.2292 99 LINE",
"15 99 LINE SMOOTH",
"-12 99 OFFCURVE",
"-30 85.8372 OFFCURVE",
"-30 64 CURVE SMOOTH",
"-30 15 LINE SMOOTH",
"-30 -4 OFFCURVE",
"-18 -20 OFFCURVE",
"15 -20 CURVE SMOOTH",
"228 -20 LINE SMOOTH",
"255.435 -20 OFFCURVE",
"273 -7 OFFCURVE",
"273 15 CURVE SMOOTH",
"273 64 LINE SMOOTH",
"273 83.6158 OFFCURVE",
"257.513 99 OFFCURVE",
"228 99 CURVE SMOOTH",
"205.41 99 LINE"
);
},
{
closed = 1;
nodes = (
"328.844 488.024 LINE",
"386.083 309 LINE",
"270.996 309 LINE"
);
},
{
closed = 1;
nodes = (
"258 725 LINE SMOOTH",
"277 725 OFFCURVE",
"299 736 OFFCURVE",
"306 745 CURVE SMOOTH",
"339 787 LINE",
"374 744 LINE SMOOTH",
"382 734 OFFCURVE",
"405 725 OFFCURVE",
"422 725 CURVE SMOOTH",
"479 725 LINE SMOOTH",
"517 725 OFFCURVE",
"527 745 OFFCURVE",
"509 769 CURVE SMOOTH",
"427 876 LINE SMOOTH",
"420 885 OFFCURVE",
"398 896 OFFCURVE",
"379 896 CURVE SMOOTH",
"303 896 LINE SMOOTH",
"284 896 OFFCURVE",
"262 885 OFFCURVE",
"255 876 CURVE SMOOTH",
"173 769 LINE SMOOTH",
"155 745 OFFCURVE",
"165 725 OFFCURVE",
"203 725 CURVE SMOOTH"
);
}
);
width = 696;
}
);
unicode = 00C2;
},
{
glyphname = Adieresis;
lastChange = "2013-07-17 11:30:04 +0000";
layers = (
{
layerId = "EBCDC205-C9A0-423C-849D-CA5F62F08A5E";
name = Regular;
paths = (
{
closed = 1;
nodes = (
"237.78 194 LINE",
"421.342 194 LINE",
"454.416 99 LINE",
"430 99 LINE SMOOTH",
"402.565 99 OFFCURVE",
"385 85.8372 OFFCURVE",
"385 64 CURVE SMOOTH",
"385 15 LINE SMOOTH",
"385 -5 OFFCURVE",
"400.487 -20 OFFCURVE",
"430 -20 CURVE SMOOTH",
"681 -20 LINE SMOOTH",
"708.435 -20 OFFCURVE",
"726 -7 OFFCURVE",
"726 15 CURVE SMOOTH",
"726 64 LINE SMOOTH",
"726 82.5567 OFFCURVE",
"713.562 99 OFFCURVE",
"681 99 CURVE SMOOTH",
"636.715 99 LINE",
"439.362 671.518 LINE",
"438.854 672.428 LINE",
"433.906 684.797 OFFCURVE",
"412.603 699 OFFCURVE",
"391 699 CURVE SMOOTH",
"294 699 LINE SMOOTH",
"272.397 699 OFFCURVE",
"251.094 684.797 OFFCURVE",
"246.146 672.428 CURVE",
"245.608 671.46 LINE",
"50.2292 99 LINE",
"15 99 LINE SMOOTH",
"-12 99 OFFCURVE",
"-30 85.8372 OFFCURVE",
"-30 64 CURVE SMOOTH",
"-30 15 LINE SMOOTH",
"-30 -4 OFFCURVE",
"-18 -20 OFFCURVE",
"15 -20 CURVE SMOOTH",
"228 -20 LINE SMOOTH",
"255.435 -20 OFFCURVE",
"273 -7 OFFCURVE",
"273 15 CURVE SMOOTH",
"273 64 LINE SMOOTH",
"273 83.6158 OFFCURVE",
"257.513 99 OFFCURVE",
"228 99 CURVE SMOOTH",
"205.41 99 LINE"
);
},
{
closed = 1;
nodes = (
"328.844 488.024 LINE",
"386.083 309 LINE",
"270.996 309 LINE"
);
},
{
closed = 1;
nodes = (
"509 732 OFFCURVE",
"550 763 OFFCURVE",
"550 814 CURVE SMOOTH",
"550 863 OFFCURVE",
"516 894 OFFCURVE",
"458 894 CURVE SMOOTH",
"404 894 OFFCURVE",
"366 862 OFFCURVE",
"366 814 CURVE SMOOTH",
"366 765 OFFCURVE",
"402 732 OFFCURVE",
"458 732 CURVE SMOOTH"
);
},
{
closed = 1;
nodes = (
"288 732 OFFCURVE",
"329 763 OFFCURVE",
"329 814 CURVE SMOOTH",
"329 863 OFFCURVE",
"295 894 OFFCURVE",
"237 894 CURVE SMOOTH",
"183 894 OFFCURVE",
"145 862 OFFCURVE",
"145 814 CURVE SMOOTH",
"145 765 OFFCURVE",
"181 732 OFFCURVE",
"237 732 CURVE SMOOTH"
);
}
);
width = 696;
}
);
unicode = 00C4;
},
{
glyphname = Agrave;
lastChange = "2013-07-17 11:30:13 +0000";
layers = (
{
layerId = "EBCDC205-C9A0-423C-849D-CA5F62F08A5E";
name = Regular;
paths = (
{
closed = 1;
nodes = (
"237.78 194 LINE",
"421.342 194 LINE",
"454.416 99 LINE",
"430 99 LINE SMOOTH",
"402.565 99 OFFCURVE",
"385 85.8372 OFFCURVE",
"385 64 CURVE SMOOTH",
"385 15 LINE SMOOTH",
"385 -5 OFFCURVE",
"400.487 -20 OFFCURVE",
"430 -20 CURVE SMOOTH",
"681 -20 LINE SMOOTH",
"708.435 -20 OFFCURVE",
"726 -7 OFFCURVE",
"726 15 CURVE SMOOTH",
"726 64 LINE SMOOTH",
"726 82.5567 OFFCURVE",
"713.562 99 OFFCURVE",
"681 99 CURVE SMOOTH",
"636.715 99 LINE",
"439.362 671.518 LINE",
"438.854 672.428 LINE",
"433.906 684.797 OFFCURVE",
"412.603 699 OFFCURVE",
"391 699 CURVE SMOOTH",
"294 699 LINE SMOOTH",
"272.397 699 OFFCURVE",
"251.094 684.797 OFFCURVE",
"246.146 672.428 CURVE",
"245.608 671.46 LINE",
"50.2292 99 LINE",
"15 99 LINE SMOOTH",
"-12 99 OFFCURVE",
"-30 85.8372 OFFCURVE",
"-30 64 CURVE SMOOTH",
"-30 15 LINE SMOOTH",
"-30 -4 OFFCURVE",
"-18 -20 OFFCURVE",
"15 -20 CURVE SMOOTH",
"228 -20 LINE SMOOTH",
"255.435 -20 OFFCURVE",
"273 -7 OFFCURVE",
"273 15 CURVE SMOOTH",
"273 64 LINE SMOOTH",
"273 83.6158 OFFCURVE",
"257.513 99 OFFCURVE",
"228 99 CURVE SMOOTH",
"205.41 99 LINE"
);
},
{
closed = 1;
nodes = (
"328.844 488.024 LINE",
"386.083 309 LINE",
"270.996 309 LINE"
);
},
{
closed = 1;
nodes = (
"369 859 LINE",
"361 875 OFFCURVE",
"344 888 OFFCURVE",
"315 888 CURVE SMOOTH",
"245 888 LINE SMOOTH",
"203 888 OFFCURVE",
"193 868 OFFCURVE",
"213 841 CURVE",
"277 746 LINE",
"278 745 LINE",
"288 732 OFFCURVE",
"308 722 OFFCURVE",
"332 722 CURVE SMOOTH",
"372 722 LINE SMOOTH",
"408 722 OFFCURVE",
"423 741 OFFCURVE",
"410 767 CURVE SMOOTH"
);
}
);
width = 696;
}
);
unicode = 00C0;
},
{
glyphname = Amacron;
lastChange = "2013-07-17 11:30:22 +0000";
layers = (
{
layerId = "EBCDC205-C9A0-423C-849D-CA5F62F08A5E";
name = Regular;
paths = (
{
closed = 1;
nodes = (
"237.78 194 LINE",
"421.342 194 LINE",
"454.416 99 LINE",
"430 99 LINE SMOOTH",
"402.565 99 OFFCURVE",
"385 85.8372 OFFCURVE",
"385 64 CURVE SMOOTH",
"385 15 LINE SMOOTH",
"385 -5 OFFCURVE",
"400.487 -20 OFFCURVE",
"430 -20 CURVE SMOOTH",
"681 -20 LINE SMOOTH",
"708.435 -20 OFFCURVE",
"726 -7 OFFCURVE",
"726 15 CURVE SMOOTH",
"726 64 LINE SMOOTH",
"726 82.5567 OFFCURVE",
"713.562 99 OFFCURVE",
"681 99 CURVE SMOOTH",
"636.715 99 LINE",
"439.362 671.518 LINE",
"438.854 672.428 LINE",
"433.906 684.797 OFFCURVE",
"412.603 699 OFFCURVE",
"391 699 CURVE SMOOTH",
"294 699 LINE SMOOTH",
"272.397 699 OFFCURVE",
"251.094 684.797 OFFCURVE",
"246.146 672.428 CURVE",
"245.608 671.46 LINE",
"50.2292 99 LINE",
"15 99 LINE SMOOTH",
"-12 99 OFFCURVE",
"-30 85.8372 OFFCURVE",
"-30 64 CURVE SMOOTH",
"-30 15 LINE SMOOTH",
"-30 -4 OFFCURVE",
"-18 -20 OFFCURVE",
"15 -20 CURVE SMOOTH",
"228 -20 LINE SMOOTH",
"255.435 -20 OFFCURVE",
"273 -7 OFFCURVE",
"273 15 CURVE SMOOTH",
"273 64 LINE SMOOTH",
"273 83.6158 OFFCURVE",
"257.513 99 OFFCURVE",
"228 99 CURVE SMOOTH",
"205.41 99 LINE"
);
},
{
closed = 1;
nodes = (
"328.844 488.024 LINE",
"386.083 309 LINE",
"270.996 309 LINE"
);
},
{
closed = 1;
nodes = (
"478 746 LINE SMOOTH",
"512 746 OFFCURVE",
"527 760 OFFCURVE",
"527 785 CURVE SMOOTH",
"527 828 LINE SMOOTH",
"527 853 OFFCURVE",
"512 867 OFFCURVE",
"478 867 CURVE SMOOTH",
"218 867 LINE SMOOTH",
"184 867 OFFCURVE",
"169 853 OFFCURVE",
"169 828 CURVE SMOOTH",
"169 785 LINE SMOOTH",
"169 760 OFFCURVE",
"184 746 OFFCURVE",
"218 746 CURVE SMOOTH"
);
}
);
width = 696;
}
);
unicode = 0100;
},
{
glyphname = Aogonek;
lastChange = "2013-07-17 11:28:35 +0000";
layers = (
{
layerId = "EBCDC205-C9A0-423C-849D-CA5F62F08A5E";
name = Regular;
paths = (
{
closed = 1;
nodes = (
"420 -204 OFFCURVE",
"457.339 -253 OFFCURVE",
"534 -253 CURVE SMOOTH",
"580.155 -253 OFFCURVE",
"624.337 -231 OFFCURVE",
"643.108 -217 CURVE",
"669.337 -200 OFFCURVE",
"667.426 -190 OFFCURVE",
"656.337 -169 CURVE",
"646.833 -150 LINE SMOOTH",
"639.769 -136 OFFCURVE",
"602.759 -125 OFFCURVE",
"584.419 -137 CURVE",
"571.668 -143 OFFCURVE",
"568.677 -144 OFFCURVE",
"562 -144 CURVE SMOOTH",
"558.806 -144 OFFCURVE",
"559 -145 OFFCURVE",
"559 -128 CURVE SMOOTH",
"559 -100 OFFCURVE",
"575.8 -66 OFFCURVE",
"617.148 -20 CURVE",
"681 -20 LINE SMOOTH",
"708.435 -20 OFFCURVE",
"726 -7 OFFCURVE",
"726 15 CURVE SMOOTH",
"726 64 LINE SMOOTH",
"726 82.5567 OFFCURVE",
"713.562 99 OFFCURVE",
"681 99 CURVE SMOOTH",
"636.715 99 LINE",
"439.362 671.518 LINE",
"438.854 672.428 LINE",
"433.906 684.797 OFFCURVE",
"412.603 699 OFFCURVE",
"391 699 CURVE SMOOTH",
"294 699 LINE SMOOTH",
"272.397 699 OFFCURVE",
"251.094 684.797 OFFCURVE",
"246.146 672.428 CURVE",
"245.608 671.46 LINE",
"50.2292 99 LINE",
"15 99 LINE SMOOTH",
"-12 99 OFFCURVE",
"-30 85.8372 OFFCURVE",
"-30 64 CURVE SMOOTH",
"-30 15 LINE SMOOTH",
"-30 -4 OFFCURVE",
"-18 -20 OFFCURVE",
"15 -20 CURVE SMOOTH",
"228 -20 LINE SMOOTH",
"255.435 -20 OFFCURVE",
"273 -7 OFFCURVE",
"273 15 CURVE SMOOTH",
"273 64 LINE SMOOTH",
"273 83.6158 OFFCURVE",
"257.513 99 OFFCURVE",
"228 99 CURVE SMOOTH",
"205.41 99 LINE",
"237.78 194 LINE",
"421.342 194 LINE",
"454.416 99 LINE",
"430 99 LINE SMOOTH",
"402.565 99 OFFCURVE",
"385 85.8372 OFFCURVE",
"385 64 CURVE SMOOTH",
"385 15 LINE SMOOTH",
"385 -5 OFFCURVE",
"400.487 -20 OFFCURVE",
"430 -20 CURVE SMOOTH",
"481.727 -20 LINE",
"448.125 -56 OFFCURVE",
"420 -99 OFFCURVE",
"420 -147 CURVE SMOOTH"
);
},
{
closed = 1;
nodes = (
"328.844 488.024 LINE",
"386.083 309 LINE",
"270.996 309 LINE"
);
}
);
width = 696;
}
);
unicode = 0104;
},
{
glyphname = Aring;
lastChange = "2013-07-17 11:33:56 +0000";
layers = (
{
layerId = "EBCDC205-C9A0-423C-849D-CA5F62F08A5E";
name = Regular;
paths = (
{
closed = 1;
nodes = (
"237.78 194 LINE",
"421.342 194 LINE",
"454.416 99 LINE",
"430 99 LINE SMOOTH",
"402.565 99 OFFCURVE",
"385 85.8372 OFFCURVE",
"385 64 CURVE SMOOTH",
"385 15 LINE SMOOTH",
"385 -5 OFFCURVE",
"400.487 -20 OFFCURVE",
"430 -20 CURVE SMOOTH",
"681 -20 LINE SMOOTH",
"708.435 -20 OFFCURVE",
"726 -7 OFFCURVE",
"726 15 CURVE SMOOTH",
"726 64 LINE SMOOTH",
"726 82.5567 OFFCURVE",
"713.562 99 OFFCURVE",
"681 99 CURVE SMOOTH",
"636.715 99 LINE",
"439.362 671.518 LINE",
"438.854 672.428 LINE",
"433.906 684.797 OFFCURVE",
"412.603 699 OFFCURVE",
"391 699 CURVE SMOOTH",
"294 699 LINE SMOOTH",
"272.397 699 OFFCURVE",
"251.094 684.797 OFFCURVE",
"246.146 672.428 CURVE",
"245.608 671.46 LINE",
"50.2292 99 LINE",
"15 99 LINE SMOOTH",
"-12 99 OFFCURVE",
"-30 85.8372 OFFCURVE",
"-30 64 CURVE SMOOTH",
"-30 15 LINE SMOOTH",
"-30 -4 OFFCURVE",
"-18 -20 OFFCURVE",
"15 -20 CURVE SMOOTH",
"228 -20 LINE SMOOTH",
"255.435 -20 OFFCURVE",
"273 -7 OFFCURVE",
"273 15 CURVE SMOOTH",
"273 64 LINE SMOOTH",
"273 83.6158 OFFCURVE",
"257.513 99 OFFCURVE",
"228 99 CURVE SMOOTH",
"205.41 99 LINE"
);
},
{
closed = 1;
nodes = (
"328.844 488.024 LINE",
"386.083 309 LINE",
"270.996 309 LINE"
);
},
{
closed = 1;
nodes = (
"419 737 OFFCURVE",
"469 795 OFFCURVE",
"469 863 CURVE SMOOTH",
"469 922 OFFCURVE",
"425 978 OFFCURVE",
"340 978 CURVE SMOOTH",
"263 978 OFFCURVE",
"210 924 OFFCURVE",
"210 858 CURVE SMOOTH",
"210 795 OFFCURVE",
"253 737 OFFCURVE",
"338 737 CURVE SMOOTH"
);
},
{
closed = 1;
nodes = (
"369 900 OFFCURVE",
"392 890 OFFCURVE",
"392 858 CURVE SMOOTH",
"392 827 OFFCURVE",
"359 811 OFFCURVE",
"339 811 CURVE SMOOTH",
"322 811 OFFCURVE",
"288 827 OFFCURVE",
"288 858 CURVE SMOOTH",
"288 893 OFFCURVE",
"309 900 OFFCURVE",
"339 900 CURVE SMOOTH"
);
}
);
width = 696;
}
);
unicode = 00C5;
},
{
glyphname = Aringacute;
lastChange = "2013-07-17 13:32:52 +0000";
layers = (
{
layerId = "EBCDC205-C9A0-423C-849D-CA5F62F08A5E";
name = Regular;
paths = (
{
closed = 1;
nodes = (
"268 995 LINE",
"253 969 OFFCURVE",
"267 947 OFFCURVE",
"302 947 CURVE SMOOTH",
"350 947 LINE SMOOTH",
"367 947 OFFCURVE",
"388 957 OFFCURVE",
"396 966 CURVE",
"468 1070 LINE",
"467 1069 LINE",
"482 1090 OFFCURVE",
"477 1113 OFFCURVE",
"437 1113 CURVE SMOOTH",
"359 1113 LINE SMOOTH",
"340 1113 OFFCURVE",
"319 1102 OFFCURVE",
"312 1090 CURVE"
);
},
{
closed = 1;
nodes = (
"237.78 194 LINE",
"421.342 194 LINE",
"454.416 99 LINE",
"430 99 LINE SMOOTH",
"402.565 99 OFFCURVE",
"385 85.837 OFFCURVE",
"385 64 CURVE SMOOTH",
"385 15 LINE SMOOTH",
"385 -5 OFFCURVE",
"400.487 -20 OFFCURVE",
"430 -20 CURVE SMOOTH",
"681 -20 LINE SMOOTH",
"708.435 -20 OFFCURVE",
"726 -7 OFFCURVE",
"726 15 CURVE SMOOTH",
"726 64 LINE SMOOTH",
"726 82.557 OFFCURVE",
"713.562 99 OFFCURVE",
"681 99 CURVE SMOOTH",
"636.715 99 LINE",
"439.362 671.518 LINE",
"438.854 672.428 LINE",
"433.906 684.797 OFFCURVE",
"412.603 699 OFFCURVE",
"391 699 CURVE SMOOTH",
"294 699 LINE SMOOTH",
"272.397 699 OFFCURVE",
"251.094 684.797 OFFCURVE",
"246.146 672.428 CURVE",
"245.608 671.46 LINE",
"50.229 99 LINE",
"15 99 LINE SMOOTH",
"-12 99 OFFCURVE",
"-30 85.837 OFFCURVE",
"-30 64 CURVE SMOOTH",
"-30 15 LINE SMOOTH",
"-30 -4 OFFCURVE",
"-18 -20 OFFCURVE",
"15 -20 CURVE SMOOTH",
"228 -20 LINE SMOOTH",
"255.435 -20 OFFCURVE",
"273 -7 OFFCURVE",
"273 15 CURVE SMOOTH",
"273 64 LINE SMOOTH",
"273 83.616 OFFCURVE",
"257.513 99 OFFCURVE",
"228 99 CURVE SMOOTH",
"205.41 99 LINE"
);
},
{
closed = 1;
nodes = (
"328.844 488.024 LINE",
"386.083 309 LINE",
"270.996 309 LINE"
);
},
{
closed = 1;
nodes = (
"419 737 OFFCURVE",
"469 795 OFFCURVE",
"469 863 CURVE SMOOTH",
"469 922 OFFCURVE",
"425 978 OFFCURVE",
"340 978 CURVE SMOOTH",
"263 978 OFFCURVE",
"210 924 OFFCURVE",
"210 858 CURVE SMOOTH",
"210 795 OFFCURVE",
"253 737 OFFCURVE",
"338 737 CURVE SMOOTH"
);
},
{
closed = 1;
nodes = (
"369 900 OFFCURVE",
"392 890 OFFCURVE",
"392 858 CURVE SMOOTH",
"392 827 OFFCURVE",
"359 811 OFFCURVE",
"339 811 CURVE SMOOTH",
"322 811 OFFCURVE",
"288 827 OFFCURVE",
"288 858 CURVE SMOOTH",
"288 893 OFFCURVE",
"309 900 OFFCURVE",
"339 900 CURVE SMOOTH"
);
}
);
width = 696;
}
);
unicode = 01FA;
},
{
glyphname = Atilde;
lastChange = "2013-07-17 11:34:11 +0000";
layers = (
{
layerId = "EBCDC205-C9A0-423C-849D-CA5F62F08A5E";
name = Regular;
paths = (
{
closed = 1;
nodes = (
"237.78 194 LINE",
"421.342 194 LINE",
"454.416 99 LINE",
"430 99 LINE SMOOTH",
"402.565 99 OFFCURVE",
"385 85.8372 OFFCURVE",
"385 64 CURVE SMOOTH",
"385 15 LINE SMOOTH",
"385 -5 OFFCURVE",
"400.487 -20 OFFCURVE",
"430 -20 CURVE SMOOTH",
"681 -20 LINE SMOOTH",
"708.435 -20 OFFCURVE",
"726 -7 OFFCURVE",
"726 15 CURVE SMOOTH",
"726 64 LINE SMOOTH",
"726 82.5567 OFFCURVE",
"713.562 99 OFFCURVE",
"681 99 CURVE SMOOTH",
"636.715 99 LINE",
"439.362 671.518 LINE",
"438.854 672.428 LINE",
"433.906 684.797 OFFCURVE",
"412.603 699 OFFCURVE",
"391 699 CURVE SMOOTH",
"294 699 LINE SMOOTH",
"272.397 699 OFFCURVE",
"251.094 684.797 OFFCURVE",
"246.146 672.428 CURVE",
"245.608 671.46 LINE",
"50.2292 99 LINE",
"15 99 LINE SMOOTH",
"-12 99 OFFCURVE",
"-30 85.8372 OFFCURVE",
"-30 64 CURVE SMOOTH",
"-30 15 LINE SMOOTH",
"-30 -4 OFFCURVE",
"-18 -20 OFFCURVE",
"15 -20 CURVE SMOOTH",
"228 -20 LINE SMOOTH",
"255.435 -20 OFFCURVE",
"273 -7 OFFCURVE",
"273 15 CURVE SMOOTH",
"273 64 LINE SMOOTH",
"273 83.6158 OFFCURVE",
"257.513 99 OFFCURVE",
"228 99 CURVE SMOOTH",
"205.41 99 LINE"
);
},
{
closed = 1;
nodes = (
"328.844 488.024 LINE",
"386.083 309 LINE",
"270.996 309 LINE"
);
},
{
closed = 1;
nodes = (
"211 900 OFFCURVE",
"148 881 OFFCURVE",
"148 786 CURVE SMOOTH",
"148 775 OFFCURVE",
"157 752 OFFCURVE",
"190 752 CURVE SMOOTH",
"221 752 LINE SMOOTH",
"244 752 OFFCURVE",
"263 759 OFFCURVE",
"263 782 CURVE SMOOTH",
"263 823 OFFCURVE",
"224 784 OFFCURVE",
"263 784 CURVE SMOOTH",
"290 784 OFFCURVE",
"375 746 OFFCURVE",
"442 746 CURVE SMOOTH",
"499 746 OFFCURVE",
"548 783 OFFCURVE",
"548 865 CURVE SMOOTH",
"548 876 OFFCURVE",
"539 899 OFFCURVE",
"506 899 CURVE SMOOTH",
"482 899 LINE SMOOTH",
"460 899 OFFCURVE",
"437 892 OFFCURVE",
"437 866 CURVE SMOOTH",
"437 857 OFFCURVE",
"448 859 OFFCURVE",
"433 859 CURVE SMOOTH",
"395 859 OFFCURVE",
"312 900 OFFCURVE",
"251 900 CURVE SMOOTH"
);
}
);
width = 696;
}
);
unicode = 00C3;
},
{
glyphname = AE;
lastChange = "2013-07-17 13:29:48 +0000";
layers = (
{
anchors = (
{
name = top;
position = "{440, 679}";
}
);
layerId = "EBCDC205-C9A0-423C-849D-CA5F62F08A5E";
name = Regular;
paths = (
{
closed = 1;
nodes = (
"407 194 LINE",
"407 99 LINE",
"389.298 99 LINE",
"354.365 101.109 OFFCURVE",
"339 85.3902 OFFCURVE",
"339 61 CURVE SMOOTH",
"339 19 LINE SMOOTH",
"339 -6 OFFCURVE",
"353.513 -20 OFFCURVE",
"388 -20 CURVE SMOOTH",
"840 -20 LINE SMOOTH",
"874.487 -20 OFFCURVE",
"889 -6 OFFCURVE",
"889 19 CURVE SMOOTH",
"889 145 LINE SMOOTH",
"889 169.552 OFFCURVE",
"874.487 184 OFFCURVE",
"840 184 CURVE SMOOTH",
"792 184 LINE SMOOTH",
"757.513 184 OFFCURVE",
"742.366 169.178 OFFCURVE",
"744.066 143.67 CURVE SMOOTH",
"746.769 99 LINE",
"579 99 LINE",
"579 288 LINE",
"665.613 288 LINE",
"664.069 265.36 LINE SMOOTH",
"662.366 239.822 OFFCURVE",
"677.513 225 OFFCURVE",
"712 225 CURVE SMOOTH",
"760 225 LINE SMOOTH",
"794.487 225 OFFCURVE",
"809 239.448 OFFCURVE",
"809 264 CURVE SMOOTH",
"809 433 LINE SMOOTH",
"809 457.552 OFFCURVE",
"794.487 472 OFFCURVE",
"760 472 CURVE SMOOTH",
"712 472 LINE SMOOTH",
"677.513 472 OFFCURVE",
"662.366 457.178 OFFCURVE",
"664.066 431.67 CURVE SMOOTH",
"666.262 406 LINE",
"579 406 LINE",
"579 579 LINE",
"726.75 579 LINE",
"724.057 535.228 LINE SMOOTH",
"722.366 509.822 OFFCURVE",
"737.513 495 OFFCURVE",
"772 495 CURVE SMOOTH",
"820 495 LINE SMOOTH",
"854.487 495 OFFCURVE",
"869 509.448 OFFCURVE",
"869 534 CURVE SMOOTH",
"869 660 LINE SMOOTH",
"869 684.552 OFFCURVE",
"854.487 699 OFFCURVE",
"820 699 CURVE SMOOTH",
"296 699 LINE SMOOTH",
"261.513 699 OFFCURVE",
"247 684.552 OFFCURVE",
"247 660 CURVE SMOOTH",
"247 617 LINE SMOOTH",
"247 595.557 OFFCURVE",
"258.876 580.815 OFFCURVE",
"285.486 579 CURVE",
"301.86 579 LINE",
"46.1673 99 LINE",
"20.2984 99 LINE",
"-15 101.109 OFFCURVE",
"-30 85.3902 OFFCURVE",
"-30 61 CURVE SMOOTH",
"-30 19 LINE SMOOTH",
"-30 -6 OFFCURVE",
"-15 -20 OFFCURVE",
"19 -20 CURVE SMOOTH",
"220 -20 LINE SMOOTH",
"254.487 -20 OFFCURVE",
"269 -6 OFFCURVE",
"269 19 CURVE SMOOTH",
"269 61 LINE SMOOTH",
"269 82.4434 OFFCURVE",
"257.124 97.1846 OFFCURVE",
"230.514 99 CURVE",
"209.966 99 LINE",
"259.929 194 LINE"
);
},
{
closed = 1;
nodes = (
"407 309 LINE",
"315.046 309 LINE",
"407 482.815 LINE"
);
}
);
width = 879;
}
);
unicode = 00C6;
},
{
glyphname = AEacute;
lastChange = "2013-07-17 11:34:21 +0000";
layers = (
{
layerId = "EBCDC205-C9A0-423C-849D-CA5F62F08A5E";
name = Regular;
paths = (
{
closed = 1;
nodes = (
"407 194 LINE",
"407 99 LINE",
"389.298 99 LINE",
"354.365 101.109 OFFCURVE",
"339 85.3902 OFFCURVE",
"339 61 CURVE SMOOTH",
"339 19 LINE SMOOTH",
"339 -6 OFFCURVE",
"353.513 -20 OFFCURVE",
"388 -20 CURVE SMOOTH",
"840 -20 LINE SMOOTH",
"874.487 -20 OFFCURVE",
"889 -6 OFFCURVE",
"889 19 CURVE SMOOTH",
"889 145 LINE SMOOTH",
"889 169.552 OFFCURVE",
"874.487 184 OFFCURVE",
"840 184 CURVE SMOOTH",
"792 184 LINE SMOOTH",
"757.513 184 OFFCURVE",
"742.366 169.178 OFFCURVE",
"744.066 143.67 CURVE SMOOTH",
"746.769 99 LINE",
"579 99 LINE",
"579 288 LINE",
"665.613 288 LINE",
"664.069 265.36 LINE SMOOTH",
"662.366 239.822 OFFCURVE",
"677.513 225 OFFCURVE",
"712 225 CURVE SMOOTH",
"760 225 LINE SMOOTH",
"794.487 225 OFFCURVE",
"809 239.448 OFFCURVE",
"809 264 CURVE SMOOTH",
"809 433 LINE SMOOTH",
"809 457.552 OFFCURVE",
"794.487 472 OFFCURVE",
"760 472 CURVE SMOOTH",
"712 472 LINE SMOOTH",
"677.513 472 OFFCURVE",
"662.366 457.178 OFFCURVE",
"664.066 431.67 CURVE SMOOTH",
"666.262 406 LINE",
"579 406 LINE",
"579 579 LINE",
"726.75 579 LINE",
"724.057 535.228 LINE SMOOTH",
"722.366 509.822 OFFCURVE",
"737.513 495 OFFCURVE",
"772 495 CURVE SMOOTH",
"820 495 LINE SMOOTH",
"854.487 495 OFFCURVE",
"869 509.448 OFFCURVE",
"869 534 CURVE SMOOTH",
"869 660 LINE SMOOTH",
"869 684.552 OFFCURVE",
"854.487 699 OFFCURVE",
"820 699 CURVE SMOOTH",
"296 699 LINE SMOOTH",
"261.513 699 OFFCURVE",
"247 684.552 OFFCURVE",
"247 660 CURVE SMOOTH",
"247 617 LINE SMOOTH",
"247 595.557 OFFCURVE",
"258.876 580.815 OFFCURVE",
"285.486 579 CURVE",
"301.86 579 LINE",
"46.1673 99 LINE",
"20.2984 99 LINE",
"-15 101.109 OFFCURVE",
"-30 85.3902 OFFCURVE",
"-30 61 CURVE SMOOTH",
"-30 19 LINE SMOOTH",
"-30 -6 OFFCURVE",
"-15 -20 OFFCURVE",
"19 -20 CURVE SMOOTH",
"220 -20 LINE SMOOTH",
"254.487 -20 OFFCURVE",
"269 -6 OFFCURVE",
"269 19 CURVE SMOOTH",
"269 61 LINE SMOOTH",
"269 82.4434 OFFCURVE",
"257.124 97.1846 OFFCURVE",
"230.514 99 CURVE",
"209.966 99 LINE",
"259.929 194 LINE"
);
},
{
closed = 1;
nodes = (
"407 309 LINE",
"315.046 309 LINE",
"407 482.815 LINE"
);
},
{
closed = 1;
nodes = (
"487 779 LINE",
"472 753 OFFCURVE",
"486 731 OFFCURVE",
"521 731 CURVE SMOOTH",
"569 731 LINE SMOOTH",
"586 731 OFFCURVE",
"607 741 OFFCURVE",
"615 750 CURVE",
"687 854 LINE",
"686 853 LINE",
"701 874 OFFCURVE",
"696 897 OFFCURVE",
"656 897 CURVE SMOOTH",
"578 897 LINE SMOOTH",
"559 897 OFFCURVE",
"538 886 OFFCURVE",
"531 874 CURVE"
);
}
);
width = 879;
}
);
unicode = 01FC;
},
{
glyphname = B;
lastChange = "2013-07-17 11:28:35 +0000";
layers = (
{
layerId = "EBCDC205-C9A0-423C-849D-CA5F62F08A5E";
name = Regular;
paths = (
{
closed = 1;
nodes = (
"9 15 LINE SMOOTH",
"9 -7 OFFCURVE",
"26.5655 -20 OFFCURVE",
"54 -20 CURVE SMOOTH",
"194 -20 LINE SMOOTH",
"248 -20 OFFCURVE",
"290.393 -20 OFFCURVE",
"334.088 -17 CURVE SMOOTH",
"487.18 -7 OFFCURVE",
"592 74.2434 OFFCURVE",
"592 200 CURVE SMOOTH",
"592 274.348 OFFCURVE",
"546.978 342.155 OFFCURVE",
"461.28 373.293 CURVE",
"508.932 406.079 OFFCURVE",
"550 458.981 OFFCURVE",
"550 525 CURVE SMOOTH",
"550 638.771 OFFCURVE",
"448.625 705 OFFCURVE",
"268 705 CURVE SMOOTH",
"209.564 705 OFFCURVE",
"102.067 701.99 OFFCURVE",
"54.0579 699.995 CURVE SMOOTH",
"22.1979 699.68 OFFCURVE",
"10 683.349 OFFCURVE",
"10 664 CURVE SMOOTH",
"10 613 LINE SMOOTH",
"10 593.384 OFFCURVE",
"25.4869 578 OFFCURVE",
"55 578 CURVE SMOOTH",
"77 578 LINE",
"77 99 LINE",
"54 99 LINE SMOOTH",
"26.5655 99 OFFCURVE",
"9 85.8372 OFFCURVE",
"9 64 CURVE SMOOTH"
);
},
{
closed = 1;
nodes = (
"249 295 LINE",
"291 295 LINE SMOOTH",
"377.368 295 OFFCURVE",
"419 269.46 OFFCURVE",
"419 202 CURVE SMOOTH",
"419 117.256 OFFCURVE",
"361.628 97 OFFCURVE",
"264 97 CURVE SMOOTH",
"249 97 LINE"
);
},
{
closed = 1;
nodes = (
"249 584 LINE",
"266 584 LINE SMOOTH",
"338.034 584 OFFCURVE",
"375 569.304 OFFCURVE",
"375 501 CURVE SMOOTH",
"375 438.311 OFFCURVE",
"338.339 418 OFFCURVE",
"257 418 CURVE SMOOTH",
"249 418 LINE"
);
}
);
width = 587;
}
);
unicode = 0042;
},
{
glyphname = C;
lastChange = "2013-07-17 13:29:48 +0000";
layers = (
{
anchors = (
{
name = bottom;
position = "{315, 0}";
},
{
name = top;
position = "{315, 679}";
}
);
layerId = "EBCDC205-C9A0-423C-849D-CA5F62F08A5E";
name = Regular;
paths = (
{
closed = 1;
nodes = (
"13 121.287 OFFCURVE",
"118.317 -32 OFFCURVE",
"368 -32 CURVE SMOOTH",
"457.657 -32 OFFCURVE",
"537.992 -9 OFFCURVE",
"582.176 13.0323 CURVE SMOOTH",
"609 26.4033 OFFCURVE",
"609 40 OFFCURVE",
"609 50 CURVE SMOOTH",
"609 177 LINE SMOOTH",
"609 198.837 OFFCURVE",
"591.435 212 OFFCURVE",
"564 212 CURVE SMOOTH",
"507 212 LINE SMOOTH",
"479.565 212 OFFCURVE",
"461.02 198.324 OFFCURVE",
"463.123 175.189 CURVE SMOOTH",
"466.557 114.468 LINE",
"443.663 100.762 OFFCURVE",
"413.777 95 OFFCURVE",
"372 95 CURVE SMOOTH",
"240.583 95 OFFCURVE",
"193 206.184 OFFCURVE",
"193 352 CURVE SMOOTH",
"193 488.908 OFFCURVE",
"233.857 588 OFFCURVE",
"355 588 CURVE SMOOTH",
"395.205 588 OFFCURVE",
"432.143 577.506 OFFCURVE",
"465.646 557.957 CURVE",
"463.028 496.856 LINE",
"461.02 474.676 OFFCURVE",
"479.565 461 OFFCURVE",
"507 461 CURVE SMOOTH",
"563 461 LINE SMOOTH",
"592.513 461 OFFCURVE",
"608 476.384 OFFCURVE",
"608 496 CURVE SMOOTH",
"608 625 LINE SMOOTH",
"608 639.276 OFFCURVE",
"597.327 652.618 OFFCURVE",
"579.569 662.483 CURVE SMOOTH",
"519.076 695.734 OFFCURVE",
"435.761 716 OFFCURVE",
"356 716 CURVE SMOOTH",
"200.285 716 OFFCURVE",
"13 618.205 OFFCURVE",
"13 336 CURVE SMOOTH"
);
}
);
width = 629;
}
);
unicode = 0043;
},
{
glyphname = Cacute;
lastChange = "2013-07-17 13:31:57 +0000";
layers = (
{
layerId = "EBCDC205-C9A0-423C-849D-CA5F62F08A5E";
name = Regular;
paths = (
{
closed = 1;
nodes = (
"13 121.287 OFFCURVE",
"118.317 -32 OFFCURVE",
"368 -32 CURVE SMOOTH",
"457.657 -32 OFFCURVE",
"537.992 -9 OFFCURVE",
"582.176 13.0323 CURVE SMOOTH",
"609 26.4033 OFFCURVE",
"609 40 OFFCURVE",
"609 50 CURVE SMOOTH",
"609 177 LINE SMOOTH",
"609 198.837 OFFCURVE",
"591.435 212 OFFCURVE",
"564 212 CURVE SMOOTH",
"507 212 LINE SMOOTH",
"479.565 212 OFFCURVE",
"461.02 198.324 OFFCURVE",
"463.123 175.189 CURVE SMOOTH",
"466.557 114.468 LINE",
"443.663 100.762 OFFCURVE",
"413.777 95 OFFCURVE",
"372 95 CURVE SMOOTH",
"240.583 95 OFFCURVE",
"193 206.184 OFFCURVE",
"193 352 CURVE SMOOTH",
"193 488.908 OFFCURVE",
"233.857 588 OFFCURVE",
"355 588 CURVE SMOOTH",
"395.205 588 OFFCURVE",
"432.143 577.506 OFFCURVE",
"465.646 557.957 CURVE",
"463.028 496.856 LINE",
"461.02 474.676 OFFCURVE",
"479.565 461 OFFCURVE",
"507 461 CURVE SMOOTH",
"563 461 LINE SMOOTH",
"592.513 461 OFFCURVE",
"608 476.384 OFFCURVE",
"608 496 CURVE SMOOTH",
"608 625 LINE SMOOTH",
"608 639.276 OFFCURVE",
"597.327 652.618 OFFCURVE",
"579.569 662.483 CURVE SMOOTH",
"519.076 695.734 OFFCURVE",
"435.761 716 OFFCURVE",
"356 716 CURVE SMOOTH",
"200.285 716 OFFCURVE",
"13 618.205 OFFCURVE",
"13 336 CURVE SMOOTH"
);
},
{
closed = 1;
nodes = (
"296 807 LINE",
"281 781 OFFCURVE",
"295 759 OFFCURVE",
"330 759 CURVE SMOOTH",
"378 759 LINE SMOOTH",
"395 759 OFFCURVE",
"416 769 OFFCURVE",
"424 778 CURVE",
"496 882 LINE",
"495 881 LINE",
"510 902 OFFCURVE",
"505 925 OFFCURVE",
"465 925 CURVE SMOOTH",
"387 925 LINE SMOOTH",
"368 925 OFFCURVE",
"347 914 OFFCURVE",
"340 902 CURVE"
);
}
);
width = 629;
}
);
unicode = 0106;
},
{
glyphname = Ccaron;
lastChange = "2013-07-17 13:32:07 +0000";
layers = (
{
layerId = "EBCDC205-C9A0-423C-849D-CA5F62F08A5E";
name = Regular;
paths = (
{
closed = 1;
nodes = (
"13 121.287 OFFCURVE",
"118.317 -32 OFFCURVE",
"368 -32 CURVE SMOOTH",
"457.657 -32 OFFCURVE",
"537.992 -9 OFFCURVE",
"582.176 13.0323 CURVE SMOOTH",
"609 26.4033 OFFCURVE",
"609 40 OFFCURVE",
"609 50 CURVE SMOOTH",
"609 177 LINE SMOOTH",
"609 198.837 OFFCURVE",
"591.435 212 OFFCURVE",
"564 212 CURVE SMOOTH",
"507 212 LINE SMOOTH",
"479.565 212 OFFCURVE",
"461.02 198.324 OFFCURVE",
"463.123 175.189 CURVE SMOOTH",
"466.557 114.468 LINE",
"443.663 100.762 OFFCURVE",
"413.777 95 OFFCURVE",
"372 95 CURVE SMOOTH",
"240.583 95 OFFCURVE",
"193 206.184 OFFCURVE",
"193 352 CURVE SMOOTH",
"193 488.908 OFFCURVE",
"233.857 588 OFFCURVE",
"355 588 CURVE SMOOTH",
"395.205 588 OFFCURVE",
"432.143 577.506 OFFCURVE",
"465.646 557.957 CURVE",
"463.028 496.856 LINE",
"461.02 474.676 OFFCURVE",
"479.565 461 OFFCURVE",
"507 461 CURVE SMOOTH",
"563 461 LINE SMOOTH",
"592.513 461 OFFCURVE",
"608 476.384 OFFCURVE",
"608 496 CURVE SMOOTH",
"608 625 LINE SMOOTH",
"608 639.276 OFFCURVE",
"597.327 652.618 OFFCURVE",
"579.569 662.483 CURVE SMOOTH",
"519.076 695.734 OFFCURVE",
"435.761 716 OFFCURVE",
"356 716 CURVE SMOOTH",
"200.285 716 OFFCURVE",
"13 618.205 OFFCURVE",
"13 336 CURVE SMOOTH"
);
},
{
closed = 1;
nodes = (
"444 925 LINE SMOOTH",
"425 925 OFFCURVE",
"403 914 OFFCURVE",
"396 905 CURVE SMOOTH",
"363 863 LINE",
"328 906 LINE SMOOTH",
"320 916 OFFCURVE",
"297 925 OFFCURVE",
"280 925 CURVE SMOOTH",
"223 925 LINE SMOOTH",
"185 925 OFFCURVE",
"175 905 OFFCURVE",
"193 881 CURVE SMOOTH",
"275 774 LINE SMOOTH",
"282 765 OFFCURVE",
"304 754 OFFCURVE",
"323 754 CURVE SMOOTH",
"399 754 LINE SMOOTH",
"418 754 OFFCURVE",
"440 765 OFFCURVE",
"447 774 CURVE SMOOTH",
"529 881 LINE SMOOTH",
"547 905 OFFCURVE",
"537 925 OFFCURVE",
"499 925 CURVE SMOOTH"
);
}
);
width = 629;
}
);
unicode = 010C;
},
{
glyphname = Ccedilla;
lastChange = "2013-07-17 11:28:35 +0000";
layers = (
{
layerId = "EBCDC205-C9A0-423C-849D-CA5F62F08A5E";
name = Regular;
paths = (
{
closed = 1;
nodes = (
"13 140.62 OFFCURVE",
"99.4618 -4 OFFCURVE",
"304.911 -28 CURVE",
"288.957 -51 LINE",
"275.245 -74 OFFCURVE",
"283.147 -84 OFFCURVE",
"321.718 -112 CURVE",
"309.582 -103 LINE",
"319.283 -110 OFFCURVE",
"320 -111 OFFCURVE",
"320 -124 CURVE SMOOTH",
"320 -136 OFFCURVE",
"314.116 -143 OFFCURVE",
"289.352 -165 CURVE SMOOTH",
"270.075 -181 OFFCURVE",
"267.616 -191 OFFCURVE",
"284.319 -212 CURVE SMOOTH",
"292.574 -222 LINE",
"301.9 -235 OFFCURVE",
"336.622 -241 OFFCURVE",
"353.641 -230 CURVE SMOOTH",
"403.873 -196 OFFCURVE",
"463 -146 OFFCURVE",
"463 -108 CURVE SMOOTH",
"463 -78 OFFCURVE",
"443.772 -56 OFFCURVE",
"414.755 -31 CURVE SMOOTH",
"412.758 -29 LINE",
"482.997 -24 OFFCURVE",
"545.413 -5 OFFCURVE",
"582.153 13.0246 CURVE SMOOTH",
"609 26.4033 OFFCURVE",
"609 40 OFFCURVE",
"609 50 CURVE SMOOTH",
"609 177 LINE SMOOTH",
"609 198.837 OFFCURVE",
"591.435 212 OFFCURVE",
"564 212 CURVE SMOOTH",
"507 212 LINE SMOOTH",
"479.565 212 OFFCURVE",
"461.02 198.324 OFFCURVE",
"463.123 175.189 CURVE SMOOTH",
"466.557 114.468 LINE",
"443.663 100.762 OFFCURVE",
"413.777 95 OFFCURVE",
"372 95 CURVE SMOOTH",
"240.583 95 OFFCURVE",
"193 206.184 OFFCURVE",
"193 352 CURVE SMOOTH",
"193 488.908 OFFCURVE",
"233.857 588 OFFCURVE",
"355 588 CURVE SMOOTH",
"395.205 588 OFFCURVE",
"432.143 577.506 OFFCURVE",
"465.646 557.957 CURVE",
"463.028 496.856 LINE",
"461.02 474.676 OFFCURVE",
"479.565 461 OFFCURVE",
"507 461 CURVE SMOOTH",
"563 461 LINE SMOOTH",
"592.513 461 OFFCURVE",
"608 476.384 OFFCURVE",
"608 496 CURVE SMOOTH",
"608 625 LINE SMOOTH",
"608 639.276 OFFCURVE",
"597.327 652.618 OFFCURVE",
"579.569 662.483 CURVE SMOOTH",
"519.076 695.734 OFFCURVE",
"435.761 716 OFFCURVE",
"356 716 CURVE SMOOTH",
"200.285 716 OFFCURVE",
"13 618.205 OFFCURVE",
"13 336 CURVE SMOOTH"
);
}
);
width = 629;
}
);
unicode = 00C7;
},
{
glyphname = Ccircumflex;
lastChange = "2013-07-17 13:31:32 +0000";
layers = (
{
layerId = "EBCDC205-C9A0-423C-849D-CA5F62F08A5E";
name = Regular;
paths = (
{
closed = 1;
nodes = (
"13 121.287 OFFCURVE",
"118.317 -32 OFFCURVE",
"368 -32 CURVE SMOOTH",
"457.657 -32 OFFCURVE",
"537.992 -9 OFFCURVE",
"582.176 13.0323 CURVE SMOOTH",
"609 26.4033 OFFCURVE",
"609 40 OFFCURVE",
"609 50 CURVE SMOOTH",
"609 177 LINE SMOOTH",
"609 198.837 OFFCURVE",
"591.435 212 OFFCURVE",
"564 212 CURVE SMOOTH",
"507 212 LINE SMOOTH",
"479.565 212 OFFCURVE",
"461.02 198.324 OFFCURVE",
"463.123 175.189 CURVE SMOOTH",
"466.557 114.468 LINE",
"443.663 100.762 OFFCURVE",
"413.777 95 OFFCURVE",
"372 95 CURVE SMOOTH",
"240.583 95 OFFCURVE",
"193 206.184 OFFCURVE",
"193 352 CURVE SMOOTH",
"193 488.908 OFFCURVE",
"233.857 588 OFFCURVE",
"355 588 CURVE SMOOTH",
"395.205 588 OFFCURVE",
"432.143 577.506 OFFCURVE",
"465.646 557.957 CURVE",
"463.028 496.856 LINE",
"461.02 474.676 OFFCURVE",
"479.565 461 OFFCURVE",
"507 461 CURVE SMOOTH",
"563 461 LINE SMOOTH",
"592.513 461 OFFCURVE",
"608 476.384 OFFCURVE",
"608 496 CURVE SMOOTH",
"608 625 LINE SMOOTH",
"608 639.276 OFFCURVE",
"597.327 652.618 OFFCURVE",
"579.569 662.483 CURVE SMOOTH",
"519.076 695.734 OFFCURVE",
"435.761 716 OFFCURVE",
"356 716 CURVE SMOOTH",
"200.285 716 OFFCURVE",
"13 618.205 OFFCURVE",
"13 336 CURVE SMOOTH"
);
},
{
closed = 1;
nodes = (
"277 762 LINE SMOOTH",
"296 762 OFFCURVE",
"318 773 OFFCURVE",
"325 782 CURVE SMOOTH",
"358 824 LINE",
"393 781 LINE SMOOTH",
"401 771 OFFCURVE",
"424 762 OFFCURVE",
"441 762 CURVE SMOOTH",
"498 762 LINE SMOOTH",
"536 762 OFFCURVE",
"546 782 OFFCURVE",
"528 806 CURVE SMOOTH",
"446 913 LINE SMOOTH",
"439 922 OFFCURVE",
"417 933 OFFCURVE",
"398 933 CURVE SMOOTH",
"322 933 LINE SMOOTH",
"303 933 OFFCURVE",
"281 922 OFFCURVE",
"274 913 CURVE SMOOTH",
"192 806 LINE SMOOTH",
"174 782 OFFCURVE",
"184 762 OFFCURVE",
"222 762 CURVE SMOOTH"
);
}
);
width = 629;
}
);
unicode = 0108;
},
{
glyphname = Cdotaccent;
lastChange = "2013-07-17 13:31:41 +0000";
layers = (
{
layerId = "EBCDC205-C9A0-423C-849D-CA5F62F08A5E";
name = Regular;
paths = (
{
closed = 1;
nodes = (
"13 121.287 OFFCURVE",
"118.317 -32 OFFCURVE",
"368 -32 CURVE SMOOTH",
"457.657 -32 OFFCURVE",
"537.992 -9 OFFCURVE",
"582.176 13.0323 CURVE SMOOTH",
"609 26.4033 OFFCURVE",
"609 40 OFFCURVE",
"609 50 CURVE SMOOTH",
"609 177 LINE SMOOTH",
"609 198.837 OFFCURVE",
"591.435 212 OFFCURVE",
"564 212 CURVE SMOOTH",
"507 212 LINE SMOOTH",
"479.565 212 OFFCURVE",
"461.02 198.324 OFFCURVE",
"463.123 175.189 CURVE SMOOTH",
"466.557 114.468 LINE",
"443.663 100.762 OFFCURVE",
"413.777 95 OFFCURVE",
"372 95 CURVE SMOOTH",
"240.583 95 OFFCURVE",
"193 206.184 OFFCURVE",
"193 352 CURVE SMOOTH",
"193 488.908 OFFCURVE",
"233.857 588 OFFCURVE",
"355 588 CURVE SMOOTH",
"395.205 588 OFFCURVE",
"432.143 577.506 OFFCURVE",
"465.646 557.957 CURVE",
"463.028 496.856 LINE",
"461.02 474.676 OFFCURVE",
"479.565 461 OFFCURVE",
"507 461 CURVE SMOOTH",
"563 461 LINE SMOOTH",
"592.513 461 OFFCURVE",
"608 476.384 OFFCURVE",
"608 496 CURVE SMOOTH",
"608 625 LINE SMOOTH",
"608 639.276 OFFCURVE",
"597.327 652.618 OFFCURVE",
"579.569 662.483 CURVE SMOOTH",
"519.076 695.734 OFFCURVE",
"435.761 716 OFFCURVE",
"356 716 CURVE SMOOTH",
"200.285 716 OFFCURVE",
"13 618.205 OFFCURVE",
"13 336 CURVE SMOOTH"
);
},
{
closed = 1;
nodes = (
"252 796 OFFCURVE",
"287 754 OFFCURVE",
"353 754 CURVE SMOOTH",
"417 754 OFFCURVE",
"455 796 OFFCURVE",
"455 845 CURVE SMOOTH",
"455 895 OFFCURVE",
"419 937 OFFCURVE",
"353 937 CURVE SMOOTH",
"288 937 OFFCURVE",
"252 895 OFFCURVE",
"252 845 CURVE SMOOTH"
);
}
);
width = 629;
}
);
unicode = 010A;
},
{
glyphname = D;
lastChange = "2013-07-17 13:29:48 +0000";
layers = (
{
anchors = (
{
name = center;
position = "{340, 340}";
},
{
name = top;
position = "{340, 679}";
}
);
layerId = "EBCDC205-C9A0-423C-849D-CA5F62F08A5E";
name = Regular;
paths = (
{
closed = 1;
nodes = (
"204.423 705 OFFCURVE",
"117.68 701.978 OFFCURVE",
"53.9404 698.994 CURVE",
"24.1572 698.664 OFFCURVE",
"10 684.36 OFFCURVE",
"10 664 CURVE SMOOTH",
"10 613 LINE SMOOTH",
"10 593.384 OFFCURVE",
"25.4869 578 OFFCURVE",
"55 578 CURVE SMOOTH",
"77 578 LINE",
"77 99 LINE",
"55 99 LINE SMOOTH",
"27.5655 99 OFFCURVE",
"10 85.8372 OFFCURVE",
"10 64 CURVE SMOOTH",
"10 15 LINE SMOOTH",
"10 -5 OFFCURVE",
"25.4869 -20 OFFCURVE",
"55 -20 CURVE SMOOTH",
"263 -20 LINE SMOOTH",
"499.048 -20 OFFCURVE",
"666 95.5513 OFFCURVE",
"666 358 CURVE SMOOTH",
"666 672.376 OFFCURVE",
"419.631 705 OFFCURVE",
"271 705 CURVE SMOOTH"
);
},
{
closed = 1;
nodes = (
"486 194.91 OFFCURVE",
"413.809 98 OFFCURVE",
"285 98 CURVE SMOOTH",
"249 98 LINE",
"249 582 LINE",
"283 582 LINE SMOOTH",
"422.888 582 OFFCURVE",
"486 506.572 OFFCURVE",
"486 340 CURVE SMOOTH"
);
}
);
width = 679;
}
);
unicode = 0044;
},
{
glyphname = Eth;
lastChange = "2013-07-17 11:28:35 +0000";
layers = (
{
layerId = "EBCDC205-C9A0-423C-849D-CA5F62F08A5E";
name = Regular;
paths = (
{
closed = 1;
nodes = (
"217.423 705 OFFCURVE",
"130.68 701.978 OFFCURVE",
"66.9404 698.994 CURVE",
"37.1572 698.664 OFFCURVE",
"23 684.36 OFFCURVE",
"23 664 CURVE SMOOTH",
"23 613 LINE SMOOTH",
"23 593.384 OFFCURVE",
"38.4869 578 OFFCURVE",
"68 578 CURVE SMOOTH",
"90 578 LINE",
"90 387 LINE",
"72 387 LINE SMOOTH",
"37.5129 387 OFFCURVE",
"23 372.552 OFFCURVE",
"23 348 CURVE SMOOTH",
"23 333 LINE SMOOTH",
"23 308.448 OFFCURVE",
"37.5129 294 OFFCURVE",
"72 294 CURVE SMOOTH",
"90 294 LINE",
"90 99 LINE",
"68 99 LINE SMOOTH",
"40.5655 99 OFFCURVE",
"23 85.8372 OFFCURVE",
"23 64 CURVE SMOOTH",
"23 15 LINE SMOOTH",
"23 -5 OFFCURVE",
"38.4869 -20 OFFCURVE",
"68 -20 CURVE SMOOTH",
"276 -20 LINE SMOOTH",
"512.048 -20 OFFCURVE",
"679 95.5513 OFFCURVE",
"679 358 CURVE SMOOTH",
"679 672.376 OFFCURVE",
"432.631 705 OFFCURVE",
"284 705 CURVE SMOOTH"
);
},
{
closed = 1;
nodes = (
"499 194.91 OFFCURVE",
"426.809 98 OFFCURVE",
"298 98 CURVE SMOOTH",
"262 98 LINE",
"262 294 LINE",
"382 294 LINE SMOOTH",
"416.487 294 OFFCURVE",
"431 308.448 OFFCURVE",
"431 333 CURVE SMOOTH",
"431 348 LINE SMOOTH",
"431 372.552 OFFCURVE",
"416.487 387 OFFCURVE",
"382 387 CURVE SMOOTH",
"262 387 LINE",
"262 582 LINE",
"296 582 LINE SMOOTH",
"435.888 582 OFFCURVE",
"499 506.572 OFFCURVE",
"499 340 CURVE SMOOTH"
);
}
);
width = 692;
}
);
unicode = 00D0;
},
{
glyphname = Dcaron;
lastChange = "2013-07-17 11:34:50 +0000";
layers = (
{
layerId = "EBCDC205-C9A0-423C-849D-CA5F62F08A5E";
name = Regular;
paths = (
{
closed = 1;
nodes = (
"204.423 705 OFFCURVE",
"117.68 701.978 OFFCURVE",
"53.9404 698.994 CURVE",
"24.1572 698.664 OFFCURVE",
"10 684.36 OFFCURVE",
"10 664 CURVE SMOOTH",
"10 613 LINE SMOOTH",
"10 593.384 OFFCURVE",
"25.4869 578 OFFCURVE",
"55 578 CURVE SMOOTH",
"77 578 LINE",
"77 99 LINE",
"55 99 LINE SMOOTH",
"27.5655 99 OFFCURVE",
"10 85.8372 OFFCURVE",
"10 64 CURVE SMOOTH",
"10 15 LINE SMOOTH",
"10 -5 OFFCURVE",
"25.4869 -20 OFFCURVE",
"55 -20 CURVE SMOOTH",
"263 -20 LINE SMOOTH",
"499.048 -20 OFFCURVE",
"666 95.5513 OFFCURVE",
"666 358 CURVE SMOOTH",
"666 672.376 OFFCURVE",
"419.631 705 OFFCURVE",
"271 705 CURVE SMOOTH"
);
},
{
closed = 1;
nodes = (
"486 194.91 OFFCURVE",
"413.809 98 OFFCURVE",
"285 98 CURVE SMOOTH",
"249 98 LINE",
"249 582 LINE",
"283 582 LINE SMOOTH",
"422.888 582 OFFCURVE",
"486 506.572 OFFCURVE",
"486 340 CURVE SMOOTH"
);
},
{
closed = 1;
nodes = (
"369 902 LINE SMOOTH",
"350 902 OFFCURVE",
"328 891 OFFCURVE",
"321 882 CURVE SMOOTH",
"288 840 LINE",
"253 883 LINE SMOOTH",
"245 893 OFFCURVE",
"222 902 OFFCURVE",
"205 902 CURVE SMOOTH",
"148 902 LINE SMOOTH",
"110 902 OFFCURVE",
"100 882 OFFCURVE",
"118 858 CURVE SMOOTH",
"200 751 LINE SMOOTH",
"207 742 OFFCURVE",
"229 731 OFFCURVE",
"248 731 CURVE SMOOTH",
"324 731 LINE SMOOTH",
"343 731 OFFCURVE",
"365 742 OFFCURVE",
"372 751 CURVE SMOOTH",
"454 858 LINE SMOOTH",
"472 882 OFFCURVE",
"462 902 OFFCURVE",
"424 902 CURVE SMOOTH"
);
}
);
width = 679;
}
);
unicode = 010E;
},
{
glyphname = Dcroat;
lastChange = "2013-07-17 11:28:35 +0000";
layers = (
{
layerId = "EBCDC205-C9A0-423C-849D-CA5F62F08A5E";
name = Regular;
paths = (
{
closed = 1;
nodes = (
"217.423 705 OFFCURVE",
"130.68 701.978 OFFCURVE",
"66.9404 698.994 CURVE",
"37.1572 698.664 OFFCURVE",
"23 684.36 OFFCURVE",
"23 664 CURVE SMOOTH",
"23 613 LINE SMOOTH",
"23 593.384 OFFCURVE",
"38.4869 578 OFFCURVE",
"68 578 CURVE SMOOTH",
"90 578 LINE",
"90 387 LINE",
"72 387 LINE SMOOTH",
"37.5129 387 OFFCURVE",
"23 372.552 OFFCURVE",
"23 348 CURVE SMOOTH",
"23 333 LINE SMOOTH",
"23 308.448 OFFCURVE",
"37.5129 294 OFFCURVE",
"72 294 CURVE SMOOTH",
"90 294 LINE",
"90 99 LINE",
"68 99 LINE SMOOTH",
"40.5655 99 OFFCURVE",
"23 85.8372 OFFCURVE",
"23 64 CURVE SMOOTH",
"23 15 LINE SMOOTH",
"23 -5 OFFCURVE",
"38.4869 -20 OFFCURVE",
"68 -20 CURVE SMOOTH",
"276 -20 LINE SMOOTH",
"512.048 -20 OFFCURVE",
"679 95.5513 OFFCURVE",
"679 358 CURVE SMOOTH",
"679 672.376 OFFCURVE",
"432.631 705 OFFCURVE",
"284 705 CURVE SMOOTH"
);
},
{
closed = 1;
nodes = (
"499 194.91 OFFCURVE",
"426.809 98 OFFCURVE",
"298 98 CURVE SMOOTH",
"262 98 LINE",
"262 294 LINE",
"382 294 LINE SMOOTH",
"416.487 294 OFFCURVE",
"431 308.448 OFFCURVE",
"431 333 CURVE SMOOTH",
"431 348 LINE SMOOTH",
"431 372.552 OFFCURVE",
"416.487 387 OFFCURVE",
"382 387 CURVE SMOOTH",
"262 387 LINE",
"262 582 LINE",
"296 582 LINE SMOOTH",
"435.888 582 OFFCURVE",
"499 506.572 OFFCURVE",
"499 340 CURVE SMOOTH"
);
}
);
width = 692;
}
);
unicode = 0110;
},
{
glyphname = E;
lastChange = "2013-07-17 13:29:48 +0000";
layers = (
{
anchors = (
{
name = bottom;
position = "{278, 0}";
},
{
name = ogonek;
position = "{499, 10}";
},
{
name = top;
position = "{278, 679}";
}
);
layerId = "EBCDC205-C9A0-423C-849D-CA5F62F08A5E";
name = Regular;
paths = (
{
closed = 1;
nodes = (
"250 579 LINE",
"397.824 579 LINE",
"395.05 531.157 LINE SMOOTH",
"393.02 508.676 OFFCURVE",
"411.565 495 OFFCURVE",
"439 495 CURVE SMOOTH",
"495 495 LINE SMOOTH",
"522.435 495 OFFCURVE",
"540 508.163 OFFCURVE",
"540 530 CURVE SMOOTH",
"540 664 LINE SMOOTH",
"540 682.557 OFFCURVE",
"527.562 699 OFFCURVE",
"495 699 CURVE SMOOTH",
"55 699 LINE SMOOTH",
"27.5655 699 OFFCURVE",
"10 685.837 OFFCURVE",
"10 664 CURVE SMOOTH",
"10 613 LINE SMOOTH",
"10 593.384 OFFCURVE",
"25.4869 578 OFFCURVE",
"55 578 CURVE SMOOTH",
"78 578 LINE",
"78 99 LINE",
"55 99 LINE SMOOTH",
"27.5655 99 OFFCURVE",
"10 85.8372 OFFCURVE",
"10 64 CURVE SMOOTH",
"10 15 LINE SMOOTH",
"10 -4 OFFCURVE",
"22.4381 -20 OFFCURVE",
"55 -20 CURVE SMOOTH",
"515 -20 LINE SMOOTH",
"545.507 -20 OFFCURVE",
"560 -6 OFFCURVE",
"560 15 CURVE SMOOTH",
"560 149 LINE SMOOTH",
"560 168.616 OFFCURVE",
"544.513 184 OFFCURVE",
"515 184 CURVE SMOOTH",
"459 184 LINE SMOOTH",
"431.565 184 OFFCURVE",
"413.02 170.324 OFFCURVE",
"415.123 147.189 CURVE",
"417.857 98 LINE",
"250 98 LINE",
"250 288 LINE",
"336.73 288 LINE",
"335.058 261.248 LINE SMOOTH",
"333.02 238.676 OFFCURVE",
"351.565 225 OFFCURVE",
"379 225 CURVE SMOOTH",
"435 225 LINE SMOOTH",
"464.513 225 OFFCURVE",
"480 240.384 OFFCURVE",
"480 260 CURVE SMOOTH",
"480 437 LINE SMOOTH",
"480 456.616 OFFCURVE",
"464.513 472 OFFCURVE",
"435 472 CURVE SMOOTH",
"379 472 LINE SMOOTH",
"351.565 472 OFFCURVE",
"333.02 458.324 OFFCURVE",
"335.123 435.189 CURVE SMOOTH",
"337.401 406 LINE",
"250 406 LINE"
);
}
);
width = 555;
}
);
unicode = 0045;
},
{
glyphname = Eacute;
lastChange = "2013-07-17 11:34:59 +0000";
layers = (
{
layerId = "EBCDC205-C9A0-423C-849D-CA5F62F08A5E";
name = Regular;
paths = (
{
closed = 1;
nodes = (
"250 579 LINE",
"397.824 579 LINE",
"395.05 531.157 LINE SMOOTH",
"393.02 508.676 OFFCURVE",
"411.565 495 OFFCURVE",
"439 495 CURVE SMOOTH",
"495 495 LINE SMOOTH",
"522.435 495 OFFCURVE",
"540 508.163 OFFCURVE",
"540 530 CURVE SMOOTH",
"540 664 LINE SMOOTH",
"540 682.557 OFFCURVE",
"527.562 699 OFFCURVE",
"495 699 CURVE SMOOTH",
"55 699 LINE SMOOTH",
"27.5655 699 OFFCURVE",
"10 685.837 OFFCURVE",
"10 664 CURVE SMOOTH",
"10 613 LINE SMOOTH",
"10 593.384 OFFCURVE",
"25.4869 578 OFFCURVE",
"55 578 CURVE SMOOTH",
"78 578 LINE",
"78 99 LINE",
"55 99 LINE SMOOTH",
"27.5655 99 OFFCURVE",
"10 85.8372 OFFCURVE",
"10 64 CURVE SMOOTH",
"10 15 LINE SMOOTH",
"10 -4 OFFCURVE",
"22.4381 -20 OFFCURVE",
"55 -20 CURVE SMOOTH",
"515 -20 LINE SMOOTH",
"545.507 -20 OFFCURVE",
"560 -6 OFFCURVE",
"560 15 CURVE SMOOTH",
"560 149 LINE SMOOTH",
"560 168.616 OFFCURVE",
"544.513 184 OFFCURVE",
"515 184 CURVE SMOOTH",
"459 184 LINE SMOOTH",
"431.565 184 OFFCURVE",
"413.02 170.324 OFFCURVE",
"415.123 147.189 CURVE",
"417.857 98 LINE",
"250 98 LINE",
"250 288 LINE",
"336.73 288 LINE",
"335.058 261.248 LINE SMOOTH",
"333.02 238.676 OFFCURVE",
"351.565 225 OFFCURVE",
"379 225 CURVE SMOOTH",
"435 225 LINE SMOOTH",
"464.513 225 OFFCURVE",
"480 240.384 OFFCURVE",
"480 260 CURVE SMOOTH",
"480 437 LINE SMOOTH",
"480 456.616 OFFCURVE",
"464.513 472 OFFCURVE",
"435 472 CURVE SMOOTH",
"379 472 LINE SMOOTH",
"351.565 472 OFFCURVE",
"333.02 458.324 OFFCURVE",
"335.123 435.189 CURVE SMOOTH",
"337.401 406 LINE",
"250 406 LINE"
);
},
{
closed = 1;
nodes = (
"246 772 LINE",
"231 746 OFFCURVE",
"245 724 OFFCURVE",
"280 724 CURVE SMOOTH",
"328 724 LINE SMOOTH",
"345 724 OFFCURVE",
"366 734 OFFCURVE",
"374 743 CURVE",
"446 847 LINE",
"445 846 LINE",
"460 867 OFFCURVE",
"455 890 OFFCURVE",
"415 890 CURVE SMOOTH",
"337 890 LINE SMOOTH",
"318 890 OFFCURVE",
"297 879 OFFCURVE",
"290 867 CURVE"
);
}
);
width = 555;
}
);
unicode = 00C9;
},
{
glyphname = Ebreve;
lastChange = "2013-07-17 11:35:07 +0000";
layers = (
{
layerId = "EBCDC205-C9A0-423C-849D-CA5F62F08A5E";
name = Regular;
paths = (
{
closed = 1;
nodes = (
"250 579 LINE",
"397.824 579 LINE",
"395.05 531.157 LINE SMOOTH",
"393.02 508.676 OFFCURVE",
"411.565 495 OFFCURVE",
"439 495 CURVE SMOOTH",
"495 495 LINE SMOOTH",
"522.435 495 OFFCURVE",
"540 508.163 OFFCURVE",
"540 530 CURVE SMOOTH",
"540 664 LINE SMOOTH",
"540 682.557 OFFCURVE",
"527.562 699 OFFCURVE",
"495 699 CURVE SMOOTH",
"55 699 LINE SMOOTH",
"27.5655 699 OFFCURVE",
"10 685.837 OFFCURVE",
"10 664 CURVE SMOOTH",
"10 613 LINE SMOOTH",
"10 593.384 OFFCURVE",
"25.4869 578 OFFCURVE",
"55 578 CURVE SMOOTH",
"78 578 LINE",
"78 99 LINE",
"55 99 LINE SMOOTH",
"27.5655 99 OFFCURVE",
"10 85.8372 OFFCURVE",
"10 64 CURVE SMOOTH",
"10 15 LINE SMOOTH",
"10 -4 OFFCURVE",
"22.4381 -20 OFFCURVE",
"55 -20 CURVE SMOOTH",
"515 -20 LINE SMOOTH",
"545.507 -20 OFFCURVE",
"560 -6 OFFCURVE",
"560 15 CURVE SMOOTH",
"560 149 LINE SMOOTH",
"560 168.616 OFFCURVE",
"544.513 184 OFFCURVE",
"515 184 CURVE SMOOTH",
"459 184 LINE SMOOTH",
"431.565 184 OFFCURVE",
"413.02 170.324 OFFCURVE",
"415.123 147.189 CURVE",
"417.857 98 LINE",
"250 98 LINE",
"250 288 LINE",
"336.73 288 LINE",
"335.058 261.248 LINE SMOOTH",
"333.02 238.676 OFFCURVE",
"351.565 225 OFFCURVE",
"379 225 CURVE SMOOTH",
"435 225 LINE SMOOTH",
"464.513 225 OFFCURVE",
"480 240.384 OFFCURVE",
"480 260 CURVE SMOOTH",
"480 437 LINE SMOOTH",
"480 456.616 OFFCURVE",
"464.513 472 OFFCURVE",
"435 472 CURVE SMOOTH",
"379 472 LINE SMOOTH",
"351.565 472 OFFCURVE",
"333.02 458.324 OFFCURVE",
"335.123 435.189 CURVE SMOOTH",
"337.401 406 LINE",
"250 406 LINE"
);
},
{
closed = 1;
nodes = (
"244 843 OFFCURVE",
"234 849 OFFCURVE",
"229 870 CURVE SMOOTH",
"223 893 OFFCURVE",
"209 904 OFFCURVE",
"176 904 CURVE SMOOTH",
"144 904 LINE SMOOTH",
"110 904 OFFCURVE",
"95 890 OFFCURVE",
"95 865 CURVE SMOOTH",
"97 780 OFFCURVE",
"166 727 OFFCURVE",
"288 727 CURVE SMOOTH",
"403 727 OFFCURVE",
"477 778 OFFCURVE",
"484 863 CURVE SMOOTH",
"486 889 OFFCURVE",
"470 904 OFFCURVE",
"436 904 CURVE SMOOTH",
"405 904 LINE SMOOTH",
"378 904 OFFCURVE",
"357 891 OFFCURVE",
"350 871 CURVE SMOOTH",
"343 846 OFFCURVE",
"334 843 OFFCURVE",
"291 843 CURVE SMOOTH"
);
}
);
width = 555;
}
);
unicode = 0114;
},
{
glyphname = Ecaron;
lastChange = "2013-07-17 11:35:16 +0000";
layers = (
{
layerId = "EBCDC205-C9A0-423C-849D-CA5F62F08A5E";
name = Regular;
paths = (
{
closed = 1;
nodes = (
"250 579 LINE",
"397.824 579 LINE",
"395.05 531.157 LINE SMOOTH",
"393.02 508.676 OFFCURVE",
"411.565 495 OFFCURVE",
"439 495 CURVE SMOOTH",
"495 495 LINE SMOOTH",
"522.435 495 OFFCURVE",
"540 508.163 OFFCURVE",
"540 530 CURVE SMOOTH",
"540 664 LINE SMOOTH",
"540 682.557 OFFCURVE",
"527.562 699 OFFCURVE",
"495 699 CURVE SMOOTH",
"55 699 LINE SMOOTH",
"27.5655 699 OFFCURVE",
"10 685.837 OFFCURVE",
"10 664 CURVE SMOOTH",
"10 613 LINE SMOOTH",
"10 593.384 OFFCURVE",
"25.4869 578 OFFCURVE",
"55 578 CURVE SMOOTH",
"78 578 LINE",
"78 99 LINE",
"55 99 LINE SMOOTH",
"27.5655 99 OFFCURVE",
"10 85.8372 OFFCURVE",
"10 64 CURVE SMOOTH",
"10 15 LINE SMOOTH",
"10 -4 OFFCURVE",
"22.4381 -20 OFFCURVE",
"55 -20 CURVE SMOOTH",
"515 -20 LINE SMOOTH",
"545.507 -20 OFFCURVE",
"560 -6 OFFCURVE",
"560 15 CURVE SMOOTH",
"560 149 LINE SMOOTH",
"560 168.616 OFFCURVE",
"544.513 184 OFFCURVE",
"515 184 CURVE SMOOTH",
"459 184 LINE SMOOTH",
"431.565 184 OFFCURVE",
"413.02 170.324 OFFCURVE",
"415.123 147.189 CURVE",
"417.857 98 LINE",
"250 98 LINE",
"250 288 LINE",
"336.73 288 LINE",
"335.058 261.248 LINE SMOOTH",
"333.02 238.676 OFFCURVE",
"351.565 225 OFFCURVE",
"379 225 CURVE SMOOTH",
"435 225 LINE SMOOTH",
"464.513 225 OFFCURVE",
"480 240.384 OFFCURVE",
"480 260 CURVE SMOOTH",
"480 437 LINE SMOOTH",
"480 456.616 OFFCURVE",
"464.513 472 OFFCURVE",
"435 472 CURVE SMOOTH",
"379 472 LINE SMOOTH",
"351.565 472 OFFCURVE",
"333.02 458.324 OFFCURVE",
"335.123 435.189 CURVE SMOOTH",
"337.401 406 LINE",
"250 406 LINE"
);
},
{
closed = 1;
nodes = (
"376 897 LINE SMOOTH",
"357 897 OFFCURVE",
"335 886 OFFCURVE",
"328 877 CURVE SMOOTH",
"295 835 LINE",
"260 878 LINE SMOOTH",
"252 888 OFFCURVE",
"229 897 OFFCURVE",
"212 897 CURVE SMOOTH",
"155 897 LINE SMOOTH",
"117 897 OFFCURVE",
"107 877 OFFCURVE",
"125 853 CURVE SMOOTH",
"207 746 LINE SMOOTH",
"214 737 OFFCURVE",
"236 726 OFFCURVE",
"255 726 CURVE SMOOTH",
"331 726 LINE SMOOTH",
"350 726 OFFCURVE",
"372 737 OFFCURVE",
"379 746 CURVE SMOOTH",
"461 853 LINE SMOOTH",
"479 877 OFFCURVE",
"469 897 OFFCURVE",
"431 897 CURVE SMOOTH"
);
}
);
width = 555;
}
);
unicode = 011A;
},
{
glyphname = Ecircumflex;
lastChange = "2013-07-17 11:35:26 +0000";
layers = (
{
layerId = "EBCDC205-C9A0-423C-849D-CA5F62F08A5E";
name = Regular;
paths = (
{
closed = 1;
nodes = (
"250 579 LINE",
"397.824 579 LINE",
"395.05 531.157 LINE SMOOTH",
"393.02 508.676 OFFCURVE",
"411.565 495 OFFCURVE",
"439 495 CURVE SMOOTH",
"495 495 LINE SMOOTH",
"522.435 495 OFFCURVE",
"540 508.163 OFFCURVE",
"540 530 CURVE SMOOTH",
"540 664 LINE SMOOTH",
"540 682.557 OFFCURVE",
"527.562 699 OFFCURVE",
"495 699 CURVE SMOOTH",
"55 699 LINE SMOOTH",
"27.5655 699 OFFCURVE",
"10 685.837 OFFCURVE",
"10 664 CURVE SMOOTH",
"10 613 LINE SMOOTH",
"10 593.384 OFFCURVE",
"25.4869 578 OFFCURVE",
"55 578 CURVE SMOOTH",
"78 578 LINE",
"78 99 LINE",
"55 99 LINE SMOOTH",
"27.5655 99 OFFCURVE",
"10 85.8372 OFFCURVE",
"10 64 CURVE SMOOTH",
"10 15 LINE SMOOTH",
"10 -4 OFFCURVE",
"22.4381 -20 OFFCURVE",
"55 -20 CURVE SMOOTH",
"515 -20 LINE SMOOTH",
"545.507 -20 OFFCURVE",
"560 -6 OFFCURVE",
"560 15 CURVE SMOOTH",
"560 149 LINE SMOOTH",
"560 168.616 OFFCURVE",
"544.513 184 OFFCURVE",
"515 184 CURVE SMOOTH",
"459 184 LINE SMOOTH",
"431.565 184 OFFCURVE",
"413.02 170.324 OFFCURVE",
"415.123 147.189 CURVE",
"417.857 98 LINE",
"250 98 LINE",
"250 288 LINE",
"336.73 288 LINE",
"335.058 261.248 LINE SMOOTH",
"333.02 238.676 OFFCURVE",
"351.565 225 OFFCURVE",
"379 225 CURVE SMOOTH",
"435 225 LINE SMOOTH",
"464.513 225 OFFCURVE",
"480 240.384 OFFCURVE",
"480 260 CURVE SMOOTH",
"480 437 LINE SMOOTH",
"480 456.616 OFFCURVE",
"464.513 472 OFFCURVE",
"435 472 CURVE SMOOTH",
"379 472 LINE SMOOTH",
"351.565 472 OFFCURVE",
"333.02 458.324 OFFCURVE",
"335.123 435.189 CURVE SMOOTH",
"337.401 406 LINE",
"250 406 LINE"
);
},
{
closed = 1;
nodes = (
"205 727 LINE SMOOTH",
"224 727 OFFCURVE",
"246 738 OFFCURVE",
"253 747 CURVE SMOOTH",
"286 789 LINE",
"321 746 LINE SMOOTH",
"329 736 OFFCURVE",
"352 727 OFFCURVE",
"369 727 CURVE SMOOTH",
"426 727 LINE SMOOTH",
"464 727 OFFCURVE",
"474 747 OFFCURVE",
"456 771 CURVE SMOOTH",
"374 878 LINE SMOOTH",
"367 887 OFFCURVE",
"345 898 OFFCURVE",
"326 898 CURVE SMOOTH",
"250 898 LINE SMOOTH",
"231 898 OFFCURVE",
"209 887 OFFCURVE",
"202 878 CURVE SMOOTH",
"120 771 LINE SMOOTH",
"102 747 OFFCURVE",
"112 727 OFFCURVE",
"150 727 CURVE SMOOTH"
);
}
);
width = 555;
}
);
unicode = 00CA;
},
{
glyphname = Edieresis;
lastChange = "2013-07-17 11:35:45 +0000";
layers = (
{
layerId = "EBCDC205-C9A0-423C-849D-CA5F62F08A5E";
name = Regular;
paths = (
{
closed = 1;
nodes = (
"250 579 LINE",
"397.824 579 LINE",
"395.05 531.157 LINE SMOOTH",
"393.02 508.676 OFFCURVE",
"411.565 495 OFFCURVE",
"439 495 CURVE SMOOTH",
"495 495 LINE SMOOTH",
"522.435 495 OFFCURVE",
"540 508.163 OFFCURVE",
"540 530 CURVE SMOOTH",
"540 664 LINE SMOOTH",
"540 682.557 OFFCURVE",
"527.562 699 OFFCURVE",
"495 699 CURVE SMOOTH",
"55 699 LINE SMOOTH",
"27.5655 699 OFFCURVE",
"10 685.837 OFFCURVE",
"10 664 CURVE SMOOTH",
"10 613 LINE SMOOTH",
"10 593.384 OFFCURVE",
"25.4869 578 OFFCURVE",
"55 578 CURVE SMOOTH",
"78 578 LINE",
"78 99 LINE",
"55 99 LINE SMOOTH",
"27.5655 99 OFFCURVE",
"10 85.8372 OFFCURVE",
"10 64 CURVE SMOOTH",
"10 15 LINE SMOOTH",
"10 -4 OFFCURVE",
"22.4381 -20 OFFCURVE",
"55 -20 CURVE SMOOTH",
"515 -20 LINE SMOOTH",
"545.507 -20 OFFCURVE",
"560 -6 OFFCURVE",
"560 15 CURVE SMOOTH",
"560 149 LINE SMOOTH",
"560 168.616 OFFCURVE",
"544.513 184 OFFCURVE",
"515 184 CURVE SMOOTH",
"459 184 LINE SMOOTH",
"431.565 184 OFFCURVE",
"413.02 170.324 OFFCURVE",
"415.123 147.189 CURVE",
"417.857 98 LINE",
"250 98 LINE",
"250 288 LINE",
"336.73 288 LINE",
"335.058 261.248 LINE SMOOTH",
"333.02 238.676 OFFCURVE",
"351.565 225 OFFCURVE",
"379 225 CURVE SMOOTH",
"435 225 LINE SMOOTH",
"464.513 225 OFFCURVE",
"480 240.384 OFFCURVE",
"480 260 CURVE SMOOTH",
"480 437 LINE SMOOTH",
"480 456.616 OFFCURVE",
"464.513 472 OFFCURVE",
"435 472 CURVE SMOOTH",
"379 472 LINE SMOOTH",
"351.565 472 OFFCURVE",
"333.02 458.324 OFFCURVE",
"335.123 435.189 CURVE SMOOTH",
"337.401 406 LINE",
"250 406 LINE"
);
},
{
closed = 1;
nodes = (
"453 727 OFFCURVE",
"494 758 OFFCURVE",
"494 809 CURVE SMOOTH",
"494 858 OFFCURVE",
"460 889 OFFCURVE",
"402 889 CURVE SMOOTH",
"348 889 OFFCURVE",
"310 857 OFFCURVE",
"310 809 CURVE SMOOTH",
"310 760 OFFCURVE",
"346 727 OFFCURVE",
"402 727 CURVE SMOOTH"
);
},
{
closed = 1;
nodes = (
"230 727 OFFCURVE",
"271 758 OFFCURVE",
"271 809 CURVE SMOOTH",
"271 858 OFFCURVE",
"237 889 OFFCURVE",
"179 889 CURVE SMOOTH",
"125 889 OFFCURVE",
"87 857 OFFCURVE",
"87 809 CURVE SMOOTH",
"87 760 OFFCURVE",
"123 727 OFFCURVE",
"179 727 CURVE SMOOTH"
);
}
);
width = 555;
}
);
unicode = 00CB;
},
{
glyphname = Edotaccent;
lastChange = "2013-07-17 11:35:54 +0000";
layers = (
{
layerId = "EBCDC205-C9A0-423C-849D-CA5F62F08A5E";
name = Regular;
paths = (
{
closed = 1;
nodes = (
"250 579 LINE",
"397.824 579 LINE",
"395.05 531.157 LINE SMOOTH",
"393.02 508.676 OFFCURVE",
"411.565 495 OFFCURVE",
"439 495 CURVE SMOOTH",
"495 495 LINE SMOOTH",
"522.435 495 OFFCURVE",
"540 508.163 OFFCURVE",
"540 530 CURVE SMOOTH",
"540 664 LINE SMOOTH",
"540 682.557 OFFCURVE",
"527.562 699 OFFCURVE",
"495 699 CURVE SMOOTH",
"55 699 LINE SMOOTH",
"27.5655 699 OFFCURVE",
"10 685.837 OFFCURVE",
"10 664 CURVE SMOOTH",
"10 613 LINE SMOOTH",
"10 593.384 OFFCURVE",
"25.4869 578 OFFCURVE",
"55 578 CURVE SMOOTH",
"78 578 LINE",
"78 99 LINE",
"55 99 LINE SMOOTH",
"27.5655 99 OFFCURVE",
"10 85.8372 OFFCURVE",
"10 64 CURVE SMOOTH",
"10 15 LINE SMOOTH",
"10 -4 OFFCURVE",
"22.4381 -20 OFFCURVE",
"55 -20 CURVE SMOOTH",
"515 -20 LINE SMOOTH",
"545.507 -20 OFFCURVE",
"560 -6 OFFCURVE",
"560 15 CURVE SMOOTH",
"560 149 LINE SMOOTH",
"560 168.616 OFFCURVE",
"544.513 184 OFFCURVE",
"515 184 CURVE SMOOTH",
"459 184 LINE SMOOTH",
"431.565 184 OFFCURVE",
"413.02 170.324 OFFCURVE",
"415.123 147.189 CURVE",
"417.857 98 LINE",
"250 98 LINE",
"250 288 LINE",
"336.73 288 LINE",
"335.058 261.248 LINE SMOOTH",
"333.02 238.676 OFFCURVE",
"351.565 225 OFFCURVE",
"379 225 CURVE SMOOTH",
"435 225 LINE SMOOTH",
"464.513 225 OFFCURVE",
"480 240.384 OFFCURVE",
"480 260 CURVE SMOOTH",
"480 437 LINE SMOOTH",
"480 456.616 OFFCURVE",
"464.513 472 OFFCURVE",
"435 472 CURVE SMOOTH",
"379 472 LINE SMOOTH",
"351.565 472 OFFCURVE",
"333.02 458.324 OFFCURVE",
"335.123 435.189 CURVE SMOOTH",
"337.401 406 LINE",
"250 406 LINE"
);
},
{
closed = 1;
nodes = (
"191 766 OFFCURVE",
"226 724 OFFCURVE",
"292 724 CURVE SMOOTH",
"356 724 OFFCURVE",
"394 766 OFFCURVE",
"394 815 CURVE SMOOTH",
"394 865 OFFCURVE",
"358 907 OFFCURVE",
"292 907 CURVE SMOOTH",
"227 907 OFFCURVE",
"191 865 OFFCURVE",
"191 815 CURVE SMOOTH"
);
}
);
width = 555;
}
);
unicode = 0116;
},
{
glyphname = Egrave;
lastChange = "2013-07-17 11:36:03 +0000";
layers = (
{
layerId = "EBCDC205-C9A0-423C-849D-CA5F62F08A5E";
name = Regular;
paths = (
{
closed = 1;
nodes = (
"250 579 LINE",
"397.824 579 LINE",
"395.05 531.157 LINE SMOOTH",
"393.02 508.676 OFFCURVE",
"411.565 495 OFFCURVE",
"439 495 CURVE SMOOTH",
"495 495 LINE SMOOTH",
"522.435 495 OFFCURVE",
"540 508.163 OFFCURVE",
"540 530 CURVE SMOOTH",
"540 664 LINE SMOOTH",
"540 682.557 OFFCURVE",
"527.562 699 OFFCURVE",
"495 699 CURVE SMOOTH",
"55 699 LINE SMOOTH",
"27.5655 699 OFFCURVE",
"10 685.837 OFFCURVE",
"10 664 CURVE SMOOTH",
"10 613 LINE SMOOTH",
"10 593.384 OFFCURVE",
"25.4869 578 OFFCURVE",
"55 578 CURVE SMOOTH",
"78 578 LINE",
"78 99 LINE",
"55 99 LINE SMOOTH",
"27.5655 99 OFFCURVE",
"10 85.8372 OFFCURVE",
"10 64 CURVE SMOOTH",
"10 15 LINE SMOOTH",
"10 -4 OFFCURVE",
"22.4381 -20 OFFCURVE",
"55 -20 CURVE SMOOTH",
"515 -20 LINE SMOOTH",
"545.507 -20 OFFCURVE",
"560 -6 OFFCURVE",
"560 15 CURVE SMOOTH",
"560 149 LINE SMOOTH",
"560 168.616 OFFCURVE",
"544.513 184 OFFCURVE",
"515 184 CURVE SMOOTH",
"459 184 LINE SMOOTH",
"431.565 184 OFFCURVE",
"413.02 170.324 OFFCURVE",
"415.123 147.189 CURVE",
"417.857 98 LINE",
"250 98 LINE",
"250 288 LINE",
"336.73 288 LINE",
"335.058 261.248 LINE SMOOTH",
"333.02 238.676 OFFCURVE",
"351.565 225 OFFCURVE",
"379 225 CURVE SMOOTH",
"435 225 LINE SMOOTH",
"464.513 225 OFFCURVE",
"480 240.384 OFFCURVE",
"480 260 CURVE SMOOTH",
"480 437 LINE SMOOTH",
"480 456.616 OFFCURVE",
"464.513 472 OFFCURVE",
"435 472 CURVE SMOOTH",
"379 472 LINE SMOOTH",
"351.565 472 OFFCURVE",
"333.02 458.324 OFFCURVE",
"335.123 435.189 CURVE SMOOTH",
"337.401 406 LINE",
"250 406 LINE"
);
},
{
closed = 1;
nodes = (
"320 860 LINE",
"312 876 OFFCURVE",
"295 889 OFFCURVE",
"266 889 CURVE SMOOTH",
"196 889 LINE SMOOTH",
"154 889 OFFCURVE",
"144 869 OFFCURVE",
"164 842 CURVE",
"228 747 LINE",
"229 746 LINE",
"239 733 OFFCURVE",
"259 723 OFFCURVE",
"283 723 CURVE SMOOTH",
"323 723 LINE SMOOTH",
"359 723 OFFCURVE",
"374 742 OFFCURVE",
"361 768 CURVE SMOOTH"
);
}
);
width = 555;
}
);
unicode = 00C8;
},
{
glyphname = Emacron;
lastChange = "2013-07-17 11:36:10 +0000";
layers = (
{
layerId = "EBCDC205-C9A0-423C-849D-CA5F62F08A5E";
name = Regular;
paths = (
{
closed = 1;
nodes = (
"250 579 LINE",
"397.824 579 LINE",
"395.05 531.157 LINE SMOOTH",
"393.02 508.676 OFFCURVE",
"411.565 495 OFFCURVE",
"439 495 CURVE SMOOTH",
"495 495 LINE SMOOTH",
"522.435 495 OFFCURVE",
"540 508.163 OFFCURVE",
"540 530 CURVE SMOOTH",
"540 664 LINE SMOOTH",
"540 682.557 OFFCURVE",
"527.562 699 OFFCURVE",
"495 699 CURVE SMOOTH",
"55 699 LINE SMOOTH",
"27.5655 699 OFFCURVE",
"10 685.837 OFFCURVE",
"10 664 CURVE SMOOTH",
"10 613 LINE SMOOTH",
"10 593.384 OFFCURVE",
"25.4869 578 OFFCURVE",
"55 578 CURVE SMOOTH",
"78 578 LINE",
"78 99 LINE",
"55 99 LINE SMOOTH",
"27.5655 99 OFFCURVE",
"10 85.8372 OFFCURVE",
"10 64 CURVE SMOOTH",
"10 15 LINE SMOOTH",
"10 -4 OFFCURVE",
"22.4381 -20 OFFCURVE",
"55 -20 CURVE SMOOTH",
"515 -20 LINE SMOOTH",
"545.507 -20 OFFCURVE",
"560 -6 OFFCURVE",
"560 15 CURVE SMOOTH",
"560 149 LINE SMOOTH",
"560 168.616 OFFCURVE",
"544.513 184 OFFCURVE",
"515 184 CURVE SMOOTH",
"459 184 LINE SMOOTH",
"431.565 184 OFFCURVE",
"413.02 170.324 OFFCURVE",
"415.123 147.189 CURVE",
"417.857 98 LINE",
"250 98 LINE",
"250 288 LINE",
"336.73 288 LINE",
"335.058 261.248 LINE SMOOTH",
"333.02 238.676 OFFCURVE",
"351.565 225 OFFCURVE",
"379 225 CURVE SMOOTH",
"435 225 LINE SMOOTH",
"464.513 225 OFFCURVE",
"480 240.384 OFFCURVE",
"480 260 CURVE SMOOTH",
"480 437 LINE SMOOTH",
"480 456.616 OFFCURVE",
"464.513 472 OFFCURVE",
"435 472 CURVE SMOOTH",
"379 472 LINE SMOOTH",
"351.565 472 OFFCURVE",
"333.02 458.324 OFFCURVE",
"335.123 435.189 CURVE SMOOTH",
"337.401 406 LINE",
"250 406 LINE"
);
},
{
closed = 1;
nodes = (
"424 755 LINE SMOOTH",
"458 755 OFFCURVE",
"473 769 OFFCURVE",
"473 794 CURVE SMOOTH",
"473 837 LINE SMOOTH",
"473 862 OFFCURVE",
"458 876 OFFCURVE",
"424 876 CURVE SMOOTH",
"164 876 LINE SMOOTH",
"130 876 OFFCURVE",
"115 862 OFFCURVE",
"115 837 CURVE SMOOTH",
"115 794 LINE SMOOTH",
"115 769 OFFCURVE",
"130 755 OFFCURVE",
"164 755 CURVE SMOOTH"
);
}
);
width = 555;
}
);
unicode = 0112;
},
{
glyphname = Eogonek;
lastChange = "2013-07-17 11:28:35 +0000";
layers = (
{
layerId = "EBCDC205-C9A0-423C-849D-CA5F62F08A5E";
name = Regular;
paths = (
{
closed = 1;
nodes = (
"286 -204 OFFCURVE",
"323.339 -253 OFFCURVE",
"400 -253 CURVE SMOOTH",
"446.155 -253 OFFCURVE",
"490.337 -231 OFFCURVE",
"509.108 -217 CURVE",
"535.337 -200 OFFCURVE",
"533.426 -190 OFFCURVE",
"522.337 -169 CURVE",
"512.833 -150 LINE SMOOTH",
"505.769 -136 OFFCURVE",
"468.759 -125 OFFCURVE",
"450.419 -137 CURVE",
"437.668 -143 OFFCURVE",
"434.677 -144 OFFCURVE",
"428 -144 CURVE SMOOTH",
"424.806 -144 OFFCURVE",
"425 -145 OFFCURVE",
"425 -128 CURVE SMOOTH",
"425 -100 OFFCURVE",
"441.8 -66 OFFCURVE",
"483.148 -20 CURVE",
"515 -20 LINE SMOOTH",
"545.507 -20 OFFCURVE",
"560 -6 OFFCURVE",
"560 15 CURVE SMOOTH",
"560 149 LINE SMOOTH",
"560 168.616 OFFCURVE",
"544.513 184 OFFCURVE",
"515 184 CURVE SMOOTH",
"459 184 LINE SMOOTH",
"431.565 184 OFFCURVE",
"413.02 170.324 OFFCURVE",
"415.123 147.189 CURVE",
"417.857 98 LINE",
"250 98 LINE",
"250 288 LINE",
"336.73 288 LINE",
"335.058 261.248 LINE SMOOTH",
"333.02 238.676 OFFCURVE",
"351.565 225 OFFCURVE",
"379 225 CURVE SMOOTH",
"435 225 LINE SMOOTH",
"464.513 225 OFFCURVE",
"480 240.384 OFFCURVE",
"480 260 CURVE SMOOTH",
"480 437 LINE SMOOTH",
"480 456.616 OFFCURVE",
"464.513 472 OFFCURVE",
"435 472 CURVE SMOOTH",
"379 472 LINE SMOOTH",
"351.565 472 OFFCURVE",
"333.02 458.324 OFFCURVE",
"335.123 435.189 CURVE SMOOTH",
"337.401 406 LINE",
"250 406 LINE",
"250 579 LINE",
"397.824 579 LINE",
"395.05 531.157 LINE SMOOTH",
"393.02 508.676 OFFCURVE",
"411.565 495 OFFCURVE",
"439 495 CURVE SMOOTH",
"495 495 LINE SMOOTH",
"522.435 495 OFFCURVE",
"540 508.163 OFFCURVE",
"540 530 CURVE SMOOTH",
"540 664 LINE SMOOTH",
"540 682.557 OFFCURVE",
"527.562 699 OFFCURVE",
"495 699 CURVE SMOOTH",
"55 699 LINE SMOOTH",
"27.5655 699 OFFCURVE",
"10 685.837 OFFCURVE",
"10 664 CURVE SMOOTH",
"10 613 LINE SMOOTH",
"10 593.384 OFFCURVE",
"25.4869 578 OFFCURVE",
"55 578 CURVE SMOOTH",
"78 578 LINE",
"78 99 LINE",
"55 99 LINE SMOOTH",
"27.5655 99 OFFCURVE",
"10 85.8372 OFFCURVE",
"10 64 CURVE SMOOTH",
"10 15 LINE SMOOTH",
"10 -4 OFFCURVE",
"22.4381 -20 OFFCURVE",
"55 -20 CURVE SMOOTH",
"347.727 -20 LINE",
"314.125 -56 OFFCURVE",
"286 -99 OFFCURVE",
"286 -147 CURVE SMOOTH"
);
}
);
width = 555;
}
);
unicode = 0118;
},
{
glyphname = F;
lastChange = "2013-07-17 11:28:35 +0000";
layers = (
{
layerId = "EBCDC205-C9A0-423C-849D-CA5F62F08A5E";
name = Regular;
paths = (
{
closed = 1;
nodes = (
"250 579 LINE",
"407.824 579 LINE",
"405.05 531.157 LINE SMOOTH",
"403.02 508.676 OFFCURVE",
"421.565 495 OFFCURVE",
"449 495 CURVE SMOOTH",
"505 495 LINE SMOOTH",
"532.435 495 OFFCURVE",
"550 508.163 OFFCURVE",
"550 530 CURVE SMOOTH",
"550 664 LINE SMOOTH",
"550 683.616 OFFCURVE",
"534.513 699 OFFCURVE",
"505 699 CURVE SMOOTH",
"55 699 LINE SMOOTH",
"27.5655 699 OFFCURVE",
"10 685.837 OFFCURVE",
"10 664 CURVE SMOOTH",
"10 613 LINE SMOOTH",
"10 593.384 OFFCURVE",
"25.4869 578 OFFCURVE",
"55 578 CURVE SMOOTH",
"78 578 LINE",
"78 99 LINE",
"55 99 LINE SMOOTH",
"27.5655 99 OFFCURVE",
"10 85.8372 OFFCURVE",
"10 64 CURVE SMOOTH",
"10 15 LINE SMOOTH",
"10 -5 OFFCURVE",
"25.4869 -20 OFFCURVE",
"55 -20 CURVE SMOOTH",
"323 -20 LINE SMOOTH",
"350.435 -20 OFFCURVE",
"368 -7 OFFCURVE",
"368 15 CURVE SMOOTH",
"368 64 LINE SMOOTH",
"368 83.6158 OFFCURVE",
"352.513 99 OFFCURVE",
"323 99 CURVE SMOOTH",
"250 99 LINE",
"250 293 LINE",
"346.73 293 LINE",
"345.058 266.248 LINE SMOOTH",
"343.02 243.676 OFFCURVE",
"361.565 230 OFFCURVE",
"389 230 CURVE SMOOTH",
"445 230 LINE SMOOTH",
"474.513 230 OFFCURVE",
"490 245.384 OFFCURVE",
"490 265 CURVE SMOOTH",
"490 442 LINE SMOOTH",
"490 461.616 OFFCURVE",
"474.513 477 OFFCURVE",
"445 477 CURVE SMOOTH",
"389 477 LINE SMOOTH",
"361.565 477 OFFCURVE",
"343.02 463.324 OFFCURVE",
"345.123 440.189 CURVE SMOOTH",
"347.401 411 LINE",
"250 411 LINE"
);
}
);
width = 540;
}
);
unicode = 0046;
},
{
glyphname = G;
lastChange = "2013-07-17 13:29:48 +0000";
layers = (
{
anchors = (
{
name = bottom;
position = "{348, 0}";
},
{
name = top;
position = "{348, 679}";
}
);
layerId = "EBCDC205-C9A0-423C-849D-CA5F62F08A5E";
name = Regular;
paths = (
{
closed = 1;
nodes = (
"637 214 LINE",
"660 214 LINE SMOOTH",
"687.435 214 OFFCURVE",
"705 227.163 OFFCURVE",
"705 249 CURVE SMOOTH",
"705 299 LINE SMOOTH",
"705 318.616 OFFCURVE",
"689.513 334 OFFCURVE",
"660 334 CURVE SMOOTH",
"440 334 LINE SMOOTH",
"409.493 334 OFFCURVE",
"395 319.6 OFFCURVE",
"395 299 CURVE SMOOTH",
"395 249 LINE SMOOTH",
"395 229.384 OFFCURVE",
"410.487 214 OFFCURVE",
"440 214 CURVE SMOOTH",
"474 214 LINE",
"474 120.201 LINE",
"443.883 102.481 OFFCURVE",
"417.38 97 OFFCURVE",
"372 97 CURVE SMOOTH",
"239.903 97 OFFCURVE",
"193 212.074 OFFCURVE",
"193 357 CURVE SMOOTH",
"193 484.979 OFFCURVE",
"234.071 588 OFFCURVE",
"355 588 CURVE SMOOTH",
"402.803 588 OFFCURVE",
"438.286 572.315 OFFCURVE",
"464.653 555.485 CURVE",
"462.03 496.895 LINE",
"460.02 474.676 OFFCURVE",
"478.565 461 OFFCURVE",
"506 461 CURVE SMOOTH",
"563 461 LINE SMOOTH",
"592.513 461 OFFCURVE",
"608 476.384 OFFCURVE",
"608 496 CURVE SMOOTH",
"608 621 LINE SMOOTH",
"608 633.692 OFFCURVE",
"598.655 647.795 OFFCURVE",
"582.893 657.975 CURVE SMOOTH",
"527.337 693.63 OFFCURVE",
"439.448 716 OFFCURVE",
"356 716 CURVE SMOOTH",
"200.197 716 OFFCURVE",
"13 617.134 OFFCURVE",
"13 341 CURVE SMOOTH",
"13 141.035 OFFCURVE",
"110.61 -32 OFFCURVE",
"368 -32 CURVE SMOOTH",
"448.184 -32 OFFCURVE",
"551.235 -5 OFFCURVE",
"607.167 25.3704 CURVE SMOOTH",
"626.94 35.373 OFFCURVE",
"637 50.4637 OFFCURVE",
"637 64 CURVE SMOOTH"
);
}
);
width = 695;
}
);
unicode = 0047;
},
{
glyphname = Gbreve;
lastChange = "2013-07-17 13:33:11 +0000";
layers = (
{
layerId = "EBCDC205-C9A0-423C-849D-CA5F62F08A5E";
name = Regular;
paths = (
{
closed = 1;
nodes = (
"637 214 LINE",
"660 214 LINE SMOOTH",
"687.435 214 OFFCURVE",
"705 227.163 OFFCURVE",
"705 249 CURVE SMOOTH",
"705 299 LINE SMOOTH",
"705 318.616 OFFCURVE",
"689.513 334 OFFCURVE",
"660 334 CURVE SMOOTH",
"440 334 LINE SMOOTH",
"409.493 334 OFFCURVE",
"395 319.6 OFFCURVE",
"395 299 CURVE SMOOTH",
"395 249 LINE SMOOTH",
"395 229.384 OFFCURVE",
"410.487 214 OFFCURVE",
"440 214 CURVE SMOOTH",
"474 214 LINE",
"474 120.201 LINE",
"443.883 102.481 OFFCURVE",
"417.38 97 OFFCURVE",
"372 97 CURVE SMOOTH",
"239.903 97 OFFCURVE",
"193 212.074 OFFCURVE",
"193 357 CURVE SMOOTH",
"193 484.979 OFFCURVE",
"234.071 588 OFFCURVE",
"355 588 CURVE SMOOTH",
"402.803 588 OFFCURVE",
"438.286 572.315 OFFCURVE",
"464.653 555.485 CURVE",
"462.03 496.895 LINE",
"460.02 474.676 OFFCURVE",
"478.565 461 OFFCURVE",
"506 461 CURVE SMOOTH",
"563 461 LINE SMOOTH",
"592.513 461 OFFCURVE",
"608 476.384 OFFCURVE",
"608 496 CURVE SMOOTH",
"608 621 LINE SMOOTH",
"608 633.692 OFFCURVE",
"598.655 647.795 OFFCURVE",
"582.893 657.975 CURVE SMOOTH",
"527.337 693.63 OFFCURVE",
"439.448 716 OFFCURVE",
"356 716 CURVE SMOOTH",
"200.197 716 OFFCURVE",
"13 617.134 OFFCURVE",
"13 341 CURVE SMOOTH",
"13 141.035 OFFCURVE",
"110.61 -32 OFFCURVE",
"368 -32 CURVE SMOOTH",
"448.184 -32 OFFCURVE",
"551.235 -5 OFFCURVE",
"607.167 25.3704 CURVE SMOOTH",
"626.94 35.373 OFFCURVE",
"637 50.4637 OFFCURVE",
"637 64 CURVE SMOOTH"
);
},
{
closed = 1;
nodes = (
"323 865 OFFCURVE",
"313 871 OFFCURVE",
"308 892 CURVE SMOOTH",
"302 915 OFFCURVE",
"288 926 OFFCURVE",
"255 926 CURVE SMOOTH",
"223 926 LINE SMOOTH",
"189 926 OFFCURVE",
"174 912 OFFCURVE",
"174 887 CURVE SMOOTH",
"176 802 OFFCURVE",
"245 749 OFFCURVE",
"367 749 CURVE SMOOTH",
"482 749 OFFCURVE",
"556 800 OFFCURVE",
"563 885 CURVE SMOOTH",
"565 911 OFFCURVE",
"549 926 OFFCURVE",
"515 926 CURVE SMOOTH",
"484 926 LINE SMOOTH",
"457 926 OFFCURVE",
"436 913 OFFCURVE",
"429 893 CURVE SMOOTH",
"422 868 OFFCURVE",
"413 865 OFFCURVE",
"370 865 CURVE SMOOTH"
);
}
);
width = 695;
}
);
unicode = 011E;
},
{
glyphname = Gcircumflex;
lastChange = "2013-07-17 13:33:20 +0000";
layers = (
{
layerId = "EBCDC205-C9A0-423C-849D-CA5F62F08A5E";
name = Regular;
paths = (
{
closed = 1;
nodes = (
"637 214 LINE",
"660 214 LINE SMOOTH",
"687.435 214 OFFCURVE",
"705 227.163 OFFCURVE",
"705 249 CURVE SMOOTH",
"705 299 LINE SMOOTH",
"705 318.616 OFFCURVE",
"689.513 334 OFFCURVE",
"660 334 CURVE SMOOTH",
"440 334 LINE SMOOTH",
"409.493 334 OFFCURVE",
"395 319.6 OFFCURVE",
"395 299 CURVE SMOOTH",
"395 249 LINE SMOOTH",
"395 229.384 OFFCURVE",
"410.487 214 OFFCURVE",
"440 214 CURVE SMOOTH",
"474 214 LINE",
"474 120.201 LINE",
"443.883 102.481 OFFCURVE",
"417.38 97 OFFCURVE",
"372 97 CURVE SMOOTH",
"239.903 97 OFFCURVE",
"193 212.074 OFFCURVE",
"193 357 CURVE SMOOTH",
"193 484.979 OFFCURVE",
"234.071 588 OFFCURVE",
"355 588 CURVE SMOOTH",
"402.803 588 OFFCURVE",
"438.286 572.315 OFFCURVE",
"464.653 555.485 CURVE",
"462.03 496.895 LINE",
"460.02 474.676 OFFCURVE",
"478.565 461 OFFCURVE",
"506 461 CURVE SMOOTH",
"563 461 LINE SMOOTH",
"592.513 461 OFFCURVE",
"608 476.384 OFFCURVE",
"608 496 CURVE SMOOTH",
"608 621 LINE SMOOTH",
"608 633.692 OFFCURVE",
"598.655 647.795 OFFCURVE",
"582.893 657.975 CURVE SMOOTH",
"527.337 693.63 OFFCURVE",
"439.448 716 OFFCURVE",
"356 716 CURVE SMOOTH",
"200.197 716 OFFCURVE",
"13 617.134 OFFCURVE",
"13 341 CURVE SMOOTH",
"13 141.035 OFFCURVE",
"110.61 -32 OFFCURVE",
"368 -32 CURVE SMOOTH",
"448.184 -32 OFFCURVE",
"551.235 -5 OFFCURVE",
"607.167 25.3704 CURVE SMOOTH",
"626.94 35.373 OFFCURVE",
"637 50.4637 OFFCURVE",
"637 64 CURVE SMOOTH"
);
},
{
closed = 1;
nodes = (
"273 761 LINE SMOOTH",
"292 761 OFFCURVE",
"314 772 OFFCURVE",
"321 781 CURVE SMOOTH",
"354 823 LINE",
"389 780 LINE SMOOTH",
"397 770 OFFCURVE",
"420 761 OFFCURVE",
"437 761 CURVE SMOOTH",
"494 761 LINE SMOOTH",
"532 761 OFFCURVE",
"542 781 OFFCURVE",
"524 805 CURVE SMOOTH",
"442 912 LINE SMOOTH",
"435 921 OFFCURVE",
"413 932 OFFCURVE",
"394 932 CURVE SMOOTH",
"318 932 LINE SMOOTH",
"299 932 OFFCURVE",
"277 921 OFFCURVE",
"270 912 CURVE SMOOTH",
"188 805 LINE SMOOTH",
"170 781 OFFCURVE",
"180 761 OFFCURVE",
"218 761 CURVE SMOOTH"
);
}
);
width = 695;
}
);
unicode = 011C;
},
{
glyphname = Gcommaaccent;
lastChange = "2013-07-17 11:36:24 +0000";
layers = (
{
layerId = "EBCDC205-C9A0-423C-849D-CA5F62F08A5E";
name = Regular;
paths = (
{
closed = 1;
nodes = (
"637 214 LINE",
"660 214 LINE SMOOTH",
"687.435 214 OFFCURVE",
"705 227.163 OFFCURVE",
"705 249 CURVE SMOOTH",
"705 299 LINE SMOOTH",
"705 318.616 OFFCURVE",
"689.513 334 OFFCURVE",
"660 334 CURVE SMOOTH",
"440 334 LINE SMOOTH",
"409.493 334 OFFCURVE",
"395 319.6 OFFCURVE",
"395 299 CURVE SMOOTH",
"395 249 LINE SMOOTH",
"395 229.384 OFFCURVE",
"410.487 214 OFFCURVE",
"440 214 CURVE SMOOTH",
"474 214 LINE",
"474 120.201 LINE",
"443.883 102.481 OFFCURVE",
"417.38 97 OFFCURVE",
"372 97 CURVE SMOOTH",
"239.903 97 OFFCURVE",
"193 212.074 OFFCURVE",
"193 357 CURVE SMOOTH",
"193 484.979 OFFCURVE",
"234.071 588 OFFCURVE",
"355 588 CURVE SMOOTH",
"402.803 588 OFFCURVE",
"438.286 572.315 OFFCURVE",
"464.653 555.485 CURVE",
"462.03 496.895 LINE",
"460.02 474.676 OFFCURVE",
"478.565 461 OFFCURVE",
"506 461 CURVE SMOOTH",
"563 461 LINE SMOOTH",
"592.513 461 OFFCURVE",
"608 476.384 OFFCURVE",
"608 496 CURVE SMOOTH",
"608 621 LINE SMOOTH",
"608 633.692 OFFCURVE",
"598.655 647.795 OFFCURVE",
"582.893 657.975 CURVE SMOOTH",
"527.337 693.63 OFFCURVE",
"439.448 716 OFFCURVE",
"356 716 CURVE SMOOTH",
"200.197 716 OFFCURVE",
"13 617.134 OFFCURVE",
"13 341 CURVE SMOOTH",
"13 141.035 OFFCURVE",
"110.61 -32 OFFCURVE",
"368 -32 CURVE SMOOTH",
"448.184 -32 OFFCURVE",
"551.235 -5 OFFCURVE",
"607.167 25.3704 CURVE SMOOTH",
"626.94 35.373 OFFCURVE",
"637 50.4637 OFFCURVE",
"637 64 CURVE SMOOTH"
);
},
{
closed = 1;
nodes = (
"394 -233 LINE SMOOTH",
"418 -195 OFFCURVE",
"435 -166 OFFCURVE",
"435 -133 CURVE SMOOTH",
"435 -86 OFFCURVE",
"399 -60 OFFCURVE",
"345 -60 CURVE SMOOTH",
"287 -60 OFFCURVE",
"258 -92 OFFCURVE",
"258 -130 CURVE SMOOTH",
"258 -160 OFFCURVE",
"274 -180 OFFCURVE",
"287 -196 CURVE",
"267 -259 LINE",
"268 -258 LINE",
"261 -276 OFFCURVE",
"262 -289 OFFCURVE",
"291 -300 CURVE",
"290 -299 LINE",
"302 -304 LINE SMOOTH",
"320 -312 OFFCURVE",
"349 -301 OFFCURVE",
"355 -292 CURVE"
);
}
);
width = 695;
}
);
unicode = 0122;
},
{
glyphname = Gdotaccent;
lastChange = "2013-07-17 13:33:30 +0000";
layers = (
{
layerId = "EBCDC205-C9A0-423C-849D-CA5F62F08A5E";
name = Regular;
paths = (
{
closed = 1;
nodes = (
"637 214 LINE",
"660 214 LINE SMOOTH",
"687.435 214 OFFCURVE",
"705 227.163 OFFCURVE",
"705 249 CURVE SMOOTH",
"705 299 LINE SMOOTH",
"705 318.616 OFFCURVE",
"689.513 334 OFFCURVE",
"660 334 CURVE SMOOTH",
"440 334 LINE SMOOTH",
"409.493 334 OFFCURVE",
"395 319.6 OFFCURVE",
"395 299 CURVE SMOOTH",
"395 249 LINE SMOOTH",
"395 229.384 OFFCURVE",
"410.487 214 OFFCURVE",
"440 214 CURVE SMOOTH",
"474 214 LINE",
"474 120.201 LINE",
"443.883 102.481 OFFCURVE",
"417.38 97 OFFCURVE",
"372 97 CURVE SMOOTH",
"239.903 97 OFFCURVE",
"193 212.074 OFFCURVE",
"193 357 CURVE SMOOTH",
"193 484.979 OFFCURVE",
"234.071 588 OFFCURVE",
"355 588 CURVE SMOOTH",
"402.803 588 OFFCURVE",
"438.286 572.315 OFFCURVE",
"464.653 555.485 CURVE",
"462.03 496.895 LINE",
"460.02 474.676 OFFCURVE",
"478.565 461 OFFCURVE",
"506 461 CURVE SMOOTH",
"563 461 LINE SMOOTH",
"592.513 461 OFFCURVE",
"608 476.384 OFFCURVE",
"608 496 CURVE SMOOTH",
"608 621 LINE SMOOTH",
"608 633.692 OFFCURVE",
"598.655 647.795 OFFCURVE",
"582.893 657.975 CURVE SMOOTH",
"527.337 693.63 OFFCURVE",
"439.448 716 OFFCURVE",
"356 716 CURVE SMOOTH",
"200.197 716 OFFCURVE",
"13 617.134 OFFCURVE",
"13 341 CURVE SMOOTH",
"13 141.035 OFFCURVE",
"110.61 -32 OFFCURVE",
"368 -32 CURVE SMOOTH",
"448.184 -32 OFFCURVE",
"551.235 -5 OFFCURVE",
"607.167 25.3704 CURVE SMOOTH",
"626.94 35.373 OFFCURVE",
"637 50.4637 OFFCURVE",
"637 64 CURVE SMOOTH"
);
},
{
closed = 1;
nodes = (
"262 789 OFFCURVE",
"297 747 OFFCURVE",
"363 747 CURVE SMOOTH",
"427 747 OFFCURVE",
"465 789 OFFCURVE",
"465 838 CURVE SMOOTH",
"465 888 OFFCURVE",
"429 930 OFFCURVE",
"363 930 CURVE SMOOTH",
"298 930 OFFCURVE",
"262 888 OFFCURVE",
"262 838 CURVE SMOOTH"
);
}
);
width = 695;
}
);
unicode = 0120;
},
{
glyphname = H;
lastChange = "2013-07-17 13:29:48 +0000";
layers = (
{
anchors = (
{
name = center;
position = "{372, 340}";
},
{
name = top;
position = "{372, 679}";
}
);
layerId = "EBCDC205-C9A0-423C-849D-CA5F62F08A5E";
name = Regular;
paths = (
{
closed = 1;
nodes = (
"250 578 LINE",
"273 578 LINE SMOOTH",
"300.435 578 OFFCURVE",
"318 591.163 OFFCURVE",
"318 613 CURVE SMOOTH",
"318 664 LINE SMOOTH",
"318 683.616 OFFCURVE",
"302.513 699 OFFCURVE",
"273 699 CURVE SMOOTH",
"55 699 LINE SMOOTH",
"27.5655 699 OFFCURVE",
"10 685.837 OFFCURVE",
"10 664 CURVE SMOOTH",
"10 613 LINE SMOOTH",
"10 593.384 OFFCURVE",
"25.4869 578 OFFCURVE",
"55 578 CURVE SMOOTH",
"78 578 LINE",
"78 99 LINE",
"55 99 LINE SMOOTH",
"27.5655 99 OFFCURVE",
"10 85.8372 OFFCURVE",
"10 64 CURVE SMOOTH",
"10 15 LINE SMOOTH",
"10 -5 OFFCURVE",
"25.4869 -20 OFFCURVE",
"55 -20 CURVE SMOOTH",
"273 -20 LINE SMOOTH",
"300.435 -20 OFFCURVE",
"318 -7 OFFCURVE",
"318 15 CURVE SMOOTH",
"318 64 LINE SMOOTH",
"318 83.6158 OFFCURVE",
"302.513 99 OFFCURVE",
"273 99 CURVE SMOOTH",
"250 99 LINE",
"250 286 LINE",
"493 286 LINE",
"493 99 LINE",
"470 99 LINE SMOOTH",
"442.565 99 OFFCURVE",
"425 85.8372 OFFCURVE",
"425 64 CURVE SMOOTH",
"425 15 LINE SMOOTH",
"425 -5 OFFCURVE",
"440.487 -20 OFFCURVE",
"470 -20 CURVE SMOOTH",
"688 -20 LINE SMOOTH",
"715.435 -20 OFFCURVE",
"733 -7 OFFCURVE",
"733 15 CURVE SMOOTH",
"733 64 LINE SMOOTH",
"733 83.6158 OFFCURVE",
"717.513 99 OFFCURVE",
"688 99 CURVE SMOOTH",
"665 99 LINE",
"665 578 LINE",
"688 578 LINE SMOOTH",
"715.435 578 OFFCURVE",
"733 591.163 OFFCURVE",
"733 613 CURVE SMOOTH",
"733 664 LINE SMOOTH",
"733 683.616 OFFCURVE",
"717.513 699 OFFCURVE",
"688 699 CURVE SMOOTH",
"470 699 LINE SMOOTH",
"442.565 699 OFFCURVE",
"425 685.837 OFFCURVE",
"425 664 CURVE SMOOTH",
"425 613 LINE SMOOTH",
"425 593.384 OFFCURVE",
"440.487 578 OFFCURVE",
"470 578 CURVE SMOOTH",
"493 578 LINE",
"493 412 LINE",
"250 412 LINE"
);
}
);
width = 743;
}
);
unicode = 0048;
},
{
glyphname = Hbar;
lastChange = "2013-07-17 11:28:35 +0000";
layers = (
{
layerId = "EBCDC205-C9A0-423C-849D-CA5F62F08A5E";
name = Regular;
paths = (
{
closed = 1;
nodes = (
"250 578 LINE",
"273 578 LINE SMOOTH",
"300.435 578 OFFCURVE",
"318 591.163 OFFCURVE",
"318 613 CURVE SMOOTH",
"318 664 LINE SMOOTH",
"318 683.616 OFFCURVE",
"302.513 699 OFFCURVE",
"273 699 CURVE SMOOTH",
"55 699 LINE SMOOTH",
"27.5655 699 OFFCURVE",
"10 685.837 OFFCURVE",
"10 664 CURVE SMOOTH",
"10 613 LINE SMOOTH",
"10 593.384 OFFCURVE",
"25.4869 578 OFFCURVE",
"55 578 CURVE SMOOTH",
"78 578 LINE",
"78 559 LINE",
"58 559 LINE SMOOTH",
"23.5129 559 OFFCURVE",
"9 544.552 OFFCURVE",
"9 520 CURVE SMOOTH",
"9 505 LINE SMOOTH",
"9 480.448 OFFCURVE",
"23.5129 466 OFFCURVE",
"58 466 CURVE SMOOTH",
"78 466 LINE",
"78 99 LINE",
"55 99 LINE SMOOTH",
"27.5655 99 OFFCURVE",
"10 85.8372 OFFCURVE",
"10 64 CURVE SMOOTH",
"10 15 LINE SMOOTH",
"10 -5 OFFCURVE",
"25.4869 -20 OFFCURVE",
"55 -20 CURVE SMOOTH",
"273 -20 LINE SMOOTH",
"300.435 -20 OFFCURVE",
"318 -7 OFFCURVE",
"318 15 CURVE SMOOTH",
"318 64 LINE SMOOTH",
"318 83.6158 OFFCURVE",
"302.513 99 OFFCURVE",
"273 99 CURVE SMOOTH",
"250 99 LINE",
"250 286 LINE",
"493 286 LINE",
"493 99 LINE",
"470 99 LINE SMOOTH",
"442.565 99 OFFCURVE",
"425 85.8372 OFFCURVE",
"425 64 CURVE SMOOTH",
"425 15 LINE SMOOTH",
"425 -5 OFFCURVE",
"440.487 -20 OFFCURVE",
"470 -20 CURVE SMOOTH",
"688 -20 LINE SMOOTH",
"715.435 -20 OFFCURVE",
"733 -7 OFFCURVE",
"733 15 CURVE SMOOTH",
"733 64 LINE SMOOTH",
"733 83.6158 OFFCURVE",
"717.513 99 OFFCURVE",
"688 99 CURVE SMOOTH",
"665 99 LINE",
"665 466 LINE",
"684 466 LINE SMOOTH",
"718.487 466 OFFCURVE",
"733 480.448 OFFCURVE",
"733 505 CURVE SMOOTH",
"733 520 LINE SMOOTH",
"733 544.552 OFFCURVE",
"718.487 559 OFFCURVE",
"684 559 CURVE SMOOTH",
"665 559 LINE",
"665 578 LINE",
"688 578 LINE SMOOTH",
"715.435 578 OFFCURVE",
"733 591.163 OFFCURVE",
"733 613 CURVE SMOOTH",
"733 664 LINE SMOOTH",
"733 683.616 OFFCURVE",
"717.513 699 OFFCURVE",
"688 699 CURVE SMOOTH",
"470 699 LINE SMOOTH",
"442.565 699 OFFCURVE",
"425 685.837 OFFCURVE",
"425 664 CURVE SMOOTH",
"425 613 LINE SMOOTH",
"425 593.384 OFFCURVE",
"440.487 578 OFFCURVE",
"470 578 CURVE SMOOTH",
"493 578 LINE",
"493 559 LINE",
"250 559 LINE"
);
},
{
closed = 1;
nodes = (
"250 412 LINE",
"250 466 LINE",
"493 466 LINE",
"493 412 LINE"
);
}
);
width = 743;
}
);
unicode = 0126;
},
{
glyphname = Hcircumflex;
lastChange = "2013-07-17 11:36:35 +0000";
layers = (
{
layerId = "EBCDC205-C9A0-423C-849D-CA5F62F08A5E";
name = Regular;
paths = (
{
closed = 1;
nodes = (
"250 578 LINE",
"273 578 LINE SMOOTH",
"300.435 578 OFFCURVE",
"318 591.163 OFFCURVE",
"318 613 CURVE SMOOTH",
"318 664 LINE SMOOTH",
"318 683.616 OFFCURVE",
"302.513 699 OFFCURVE",
"273 699 CURVE SMOOTH",
"55 699 LINE SMOOTH",
"27.5655 699 OFFCURVE",
"10 685.837 OFFCURVE",
"10 664 CURVE SMOOTH",
"10 613 LINE SMOOTH",
"10 593.384 OFFCURVE",
"25.4869 578 OFFCURVE",
"55 578 CURVE SMOOTH",
"78 578 LINE",
"78 99 LINE",
"55 99 LINE SMOOTH",
"27.5655 99 OFFCURVE",
"10 85.8372 OFFCURVE",
"10 64 CURVE SMOOTH",
"10 15 LINE SMOOTH",
"10 -5 OFFCURVE",
"25.4869 -20 OFFCURVE",
"55 -20 CURVE SMOOTH",
"273 -20 LINE SMOOTH",
"300.435 -20 OFFCURVE",
"318 -7 OFFCURVE",
"318 15 CURVE SMOOTH",
"318 64 LINE SMOOTH",
"318 83.6158 OFFCURVE",
"302.513 99 OFFCURVE",
"273 99 CURVE SMOOTH",
"250 99 LINE",
"250 286 LINE",
"493 286 LINE",
"493 99 LINE",
"470 99 LINE SMOOTH",
"442.565 99 OFFCURVE",
"425 85.8372 OFFCURVE",
"425 64 CURVE SMOOTH",
"425 15 LINE SMOOTH",
"425 -5 OFFCURVE",
"440.487 -20 OFFCURVE",
"470 -20 CURVE SMOOTH",
"688 -20 LINE SMOOTH",
"715.435 -20 OFFCURVE",
"733 -7 OFFCURVE",
"733 15 CURVE SMOOTH",
"733 64 LINE SMOOTH",
"733 83.6158 OFFCURVE",
"717.513 99 OFFCURVE",
"688 99 CURVE SMOOTH",
"665 99 LINE",
"665 578 LINE",
"688 578 LINE SMOOTH",
"715.435 578 OFFCURVE",
"733 591.163 OFFCURVE",
"733 613 CURVE SMOOTH",
"733 664 LINE SMOOTH",
"733 683.616 OFFCURVE",
"717.513 699 OFFCURVE",
"688 699 CURVE SMOOTH",
"470 699 LINE SMOOTH",
"442.565 699 OFFCURVE",
"425 685.837 OFFCURVE",
"425 664 CURVE SMOOTH",
"425 613 LINE SMOOTH",
"425 593.384 OFFCURVE",
"440.487 578 OFFCURVE",
"470 578 CURVE SMOOTH",
"493 578 LINE",
"493 412 LINE",
"250 412 LINE"
);
},
{
closed = 1;
nodes = (
"288 727 LINE SMOOTH",
"307 727 OFFCURVE",
"329 738 OFFCURVE",
"336 747 CURVE SMOOTH",
"369 789 LINE",
"404 746 LINE SMOOTH",
"412 736 OFFCURVE",
"435 727 OFFCURVE",
"452 727 CURVE SMOOTH",
"509 727 LINE SMOOTH",
"547 727 OFFCURVE",
"557 747 OFFCURVE",
"539 771 CURVE SMOOTH",
"457 878 LINE SMOOTH",
"450 887 OFFCURVE",
"428 898 OFFCURVE",
"409 898 CURVE SMOOTH",
"333 898 LINE SMOOTH",
"314 898 OFFCURVE",
"292 887 OFFCURVE",
"285 878 CURVE SMOOTH",
"203 771 LINE SMOOTH",
"185 747 OFFCURVE",
"195 727 OFFCURVE",
"233 727 CURVE SMOOTH"
);
}
);
width = 743;
}
);
unicode = 0124;
},
{
glyphname = I;
lastChange = "2013-07-17 13:29:48 +0000";
layers = (
{
anchors = (
{
name = ogonek;
position = "{295, 10}";
},
{
name = top;
position = "{164, 679}";
}
);
layerId = "EBCDC205-C9A0-423C-849D-CA5F62F08A5E";
name = Regular;
paths = (
{
closed = 1;
nodes = (
"250 578 LINE",
"273 578 LINE SMOOTH",
"300.435 578 OFFCURVE",
"318 591.163 OFFCURVE",
"318 613 CURVE SMOOTH",
"318 664 LINE SMOOTH",
"318 683.616 OFFCURVE",
"302.513 699 OFFCURVE",
"273 699 CURVE SMOOTH",
"55 699 LINE SMOOTH",
"27.5655 699 OFFCURVE",
"10 685.837 OFFCURVE",
"10 664 CURVE SMOOTH",
"10 613 LINE SMOOTH",
"10 593.384 OFFCURVE",
"25.4869 578 OFFCURVE",
"55 578 CURVE SMOOTH",
"78 578 LINE",
"78 99 LINE",
"55 99 LINE SMOOTH",
"27.5655 99 OFFCURVE",
"10 85.8372 OFFCURVE",
"10 64 CURVE SMOOTH",
"10 15 LINE SMOOTH",
"10 -5 OFFCURVE",
"25.4869 -20 OFFCURVE",
"55 -20 CURVE SMOOTH",
"273 -20 LINE SMOOTH",
"300.435 -20 OFFCURVE",
"318 -7 OFFCURVE",
"318 15 CURVE SMOOTH",
"318 64 LINE SMOOTH",
"318 83.6158 OFFCURVE",
"302.513 99 OFFCURVE",
"273 99 CURVE SMOOTH",
"250 99 LINE"
);
}
);
width = 328;
}
);
unicode = 0049;
},
{
glyphname = IJ;
lastChange = "2013-07-17 11:28:35 +0000";
layers = (
{
layerId = "EBCDC205-C9A0-423C-849D-CA5F62F08A5E";
name = Regular;
paths = (
{
closed = 1;
nodes = (
"250 578 LINE",
"273 578 LINE SMOOTH",
"300.435 578 OFFCURVE",
"318 591.163 OFFCURVE",
"318 613 CURVE SMOOTH",
"318 664 LINE SMOOTH",
"318 683.616 OFFCURVE",
"302.513 699 OFFCURVE",
"273 699 CURVE SMOOTH",
"55 699 LINE SMOOTH",
"27.5655 699 OFFCURVE",
"10 685.837 OFFCURVE",
"10 664 CURVE SMOOTH",
"10 613 LINE SMOOTH",
"10 593.384 OFFCURVE",
"25.4869 578 OFFCURVE",
"55 578 CURVE SMOOTH",
"78 578 LINE",
"78 99 LINE",
"55 99 LINE SMOOTH",
"27.5655 99 OFFCURVE",
"10 85.8372 OFFCURVE",
"10 64 CURVE SMOOTH",
"10 15 LINE SMOOTH",
"10 -5 OFFCURVE",
"25.4869 -20 OFFCURVE",
"55 -20 CURVE SMOOTH",
"273 -20 LINE SMOOTH",
"300.435 -20 OFFCURVE",
"318 -7 OFFCURVE",
"318 15 CURVE SMOOTH",
"318 64 LINE SMOOTH",
"318 83.6158 OFFCURVE",
"302.513 99 OFFCURVE",
"273 99 CURVE SMOOTH",
"250 99 LINE"
);
},
{
closed = 1;
nodes = (
"407 -38 LINE SMOOTH",
"407 -113 OFFCURVE",
"389.326 -131 OFFCURVE",
"354 -131 CURVE SMOOTH",
"325.941 -131 OFFCURVE",
"310.585 -125 OFFCURVE",
"294.769 -119 CURVE SMOOTH",
"267.68 -108 OFFCURVE",
"241.005 -130 OFFCURVE",
"237.265 -142 CURVE",
"219.65 -193 LINE SMOOTH",
"215.668 -204 OFFCURVE",
"209.771 -222 OFFCURVE",
"239.584 -237 CURVE SMOOTH",
"262.998 -248 OFFCURVE",
"313.336 -260 OFFCURVE",
"366 -260 CURVE SMOOTH",
"531.059 -260 OFFCURVE",
"579 -153 OFFCURVE",
"579 -42 CURVE SMOOTH",
"579 578 LINE",
"602 578 LINE SMOOTH",
"629.435 578 OFFCURVE",
"647 591.163 OFFCURVE",
"647 613 CURVE SMOOTH",
"647 664 LINE SMOOTH",
"647 683.616 OFFCURVE",
"631.513 699 OFFCURVE",
"602 699 CURVE SMOOTH",
"384 699 LINE SMOOTH",
"356.565 699 OFFCURVE",
"339 685.837 OFFCURVE",
"339 664 CURVE SMOOTH",
"339 613 LINE SMOOTH",
"339 593.384 OFFCURVE",
"354.487 578 OFFCURVE",
"384 578 CURVE SMOOTH",
"407 578 LINE"
);
}
);
width = 657;
}
);
unicode = 0132;
},
{
glyphname = Iacute;
lastChange = "2013-07-17 11:36:44 +0000";
layers = (
{
layerId = "EBCDC205-C9A0-423C-849D-CA5F62F08A5E";
name = Regular;
paths = (
{
closed = 1;
nodes = (
"250 578 LINE",
"273 578 LINE SMOOTH",
"300.435 578 OFFCURVE",
"318 591.163 OFFCURVE",
"318 613 CURVE SMOOTH",
"318 664 LINE SMOOTH",
"318 683.616 OFFCURVE",
"302.513 699 OFFCURVE",
"273 699 CURVE SMOOTH",
"55 699 LINE SMOOTH",
"27.5655 699 OFFCURVE",
"10 685.837 OFFCURVE",
"10 664 CURVE SMOOTH",
"10 613 LINE SMOOTH",
"10 593.384 OFFCURVE",
"25.4869 578 OFFCURVE",
"55 578 CURVE SMOOTH",
"78 578 LINE",
"78 99 LINE",
"55 99 LINE SMOOTH",
"27.5655 99 OFFCURVE",
"10 85.8372 OFFCURVE",
"10 64 CURVE SMOOTH",
"10 15 LINE SMOOTH",
"10 -5 OFFCURVE",
"25.4869 -20 OFFCURVE",
"55 -20 CURVE SMOOTH",
"273 -20 LINE SMOOTH",
"300.435 -20 OFFCURVE",
"318 -7 OFFCURVE",
"318 15 CURVE SMOOTH",
"318 64 LINE SMOOTH",
"318 83.6158 OFFCURVE",
"302.513 99 OFFCURVE",
"273 99 CURVE SMOOTH",
"250 99 LINE"
);
},
{
closed = 1;
nodes = (
"91 772 LINE",
"76 746 OFFCURVE",
"90 724 OFFCURVE",
"125 724 CURVE SMOOTH",
"173 724 LINE SMOOTH",
"190 724 OFFCURVE",
"211 734 OFFCURVE",
"219 743 CURVE",
"291 847 LINE",
"290 846 LINE",
"305 867 OFFCURVE",
"300 890 OFFCURVE",
"260 890 CURVE SMOOTH",
"182 890 LINE SMOOTH",
"163 890 OFFCURVE",
"142 879 OFFCURVE",
"135 867 CURVE"
);
}
);
width = 328;
}
);
unicode = 00CD;
},
{
glyphname = Ibreve;
lastChange = "2013-07-17 11:36:52 +0000";
layers = (
{
layerId = "EBCDC205-C9A0-423C-849D-CA5F62F08A5E";
name = Regular;
paths = (
{
closed = 1;
nodes = (
"250 578 LINE",
"273 578 LINE SMOOTH",
"300.435 578 OFFCURVE",
"318 591.163 OFFCURVE",
"318 613 CURVE SMOOTH",
"318 664 LINE SMOOTH",
"318 683.616 OFFCURVE",
"302.513 699 OFFCURVE",
"273 699 CURVE SMOOTH",
"55 699 LINE SMOOTH",
"27.5655 699 OFFCURVE",
"10 685.837 OFFCURVE",
"10 664 CURVE SMOOTH",
"10 613 LINE SMOOTH",
"10 593.384 OFFCURVE",
"25.4869 578 OFFCURVE",
"55 578 CURVE SMOOTH",
"78 578 LINE",
"78 99 LINE",
"55 99 LINE SMOOTH",
"27.5655 99 OFFCURVE",
"10 85.8372 OFFCURVE",
"10 64 CURVE SMOOTH",
"10 15 LINE SMOOTH",
"10 -5 OFFCURVE",
"25.4869 -20 OFFCURVE",
"55 -20 CURVE SMOOTH",
"273 -20 LINE SMOOTH",
"300.435 -20 OFFCURVE",
"318 -7 OFFCURVE",
"318 15 CURVE SMOOTH",
"318 64 LINE SMOOTH",
"318 83.6158 OFFCURVE",
"302.513 99 OFFCURVE",
"273 99 CURVE SMOOTH",
"250 99 LINE"
);
},
{
closed = 1;
nodes = (
"123 845 OFFCURVE",
"113 851 OFFCURVE",
"108 872 CURVE SMOOTH",
"102 895 OFFCURVE",
"88 906 OFFCURVE",
"55 906 CURVE SMOOTH",
"23 906 LINE SMOOTH",
"-11 906 OFFCURVE",
"-26 892 OFFCURVE",
"-26 867 CURVE SMOOTH",
"-24 782 OFFCURVE",
"45 729 OFFCURVE",
"167 729 CURVE SMOOTH",
"282 729 OFFCURVE",
"356 780 OFFCURVE",
"363 865 CURVE SMOOTH",
"365 891 OFFCURVE",
"349 906 OFFCURVE",
"315 906 CURVE SMOOTH",
"284 906 LINE SMOOTH",
"257 906 OFFCURVE",
"236 893 OFFCURVE",
"229 873 CURVE SMOOTH",
"222 848 OFFCURVE",
"213 845 OFFCURVE",
"170 845 CURVE SMOOTH"
);
}
);
width = 328;
}
);
unicode = 012C;
},
{
glyphname = Icircumflex;
lastChange = "2013-07-17 11:37:03 +0000";
layers = (
{
layerId = "EBCDC205-C9A0-423C-849D-CA5F62F08A5E";
name = Regular;
paths = (
{
closed = 1;
nodes = (
"250 578 LINE",
"273 578 LINE SMOOTH",
"300.435 578 OFFCURVE",
"318 591.163 OFFCURVE",
"318 613 CURVE SMOOTH",
"318 664 LINE SMOOTH",
"318 683.616 OFFCURVE",
"302.513 699 OFFCURVE",
"273 699 CURVE SMOOTH",
"55 699 LINE SMOOTH",
"27.5655 699 OFFCURVE",
"10 685.837 OFFCURVE",
"10 664 CURVE SMOOTH",
"10 613 LINE SMOOTH",
"10 593.384 OFFCURVE",
"25.4869 578 OFFCURVE",
"55 578 CURVE SMOOTH",
"78 578 LINE",
"78 99 LINE",
"55 99 LINE SMOOTH",
"27.5655 99 OFFCURVE",
"10 85.8372 OFFCURVE",
"10 64 CURVE SMOOTH",
"10 15 LINE SMOOTH",
"10 -5 OFFCURVE",
"25.4869 -20 OFFCURVE",
"55 -20 CURVE SMOOTH",
"273 -20 LINE SMOOTH",
"300.435 -20 OFFCURVE",
"318 -7 OFFCURVE",
"318 15 CURVE SMOOTH",
"318 64 LINE SMOOTH",
"318 83.6158 OFFCURVE",
"302.513 99 OFFCURVE",
"273 99 CURVE SMOOTH",
"250 99 LINE"
);
},
{
closed = 1;
nodes = (
"81 727 LINE SMOOTH",
"100 727 OFFCURVE",
"122 738 OFFCURVE",
"129 747 CURVE SMOOTH",
"162 789 LINE",
"197 746 LINE SMOOTH",
"205 736 OFFCURVE",
"228 727 OFFCURVE",
"245 727 CURVE SMOOTH",
"302 727 LINE SMOOTH",
"340 727 OFFCURVE",
"350 747 OFFCURVE",
"332 771 CURVE SMOOTH",
"250 878 LINE SMOOTH",
"243 887 OFFCURVE",
"221 898 OFFCURVE",
"202 898 CURVE SMOOTH",
"126 898 LINE SMOOTH",
"107 898 OFFCURVE",
"85 887 OFFCURVE",
"78 878 CURVE SMOOTH",
"-4 771 LINE SMOOTH",
"-22 747 OFFCURVE",
"-12 727 OFFCURVE",
"26 727 CURVE SMOOTH"
);
}
);
width = 328;
}
);
unicode = 00CE;
},
{
glyphname = Idieresis;
lastChange = "2013-07-17 11:37:22 +0000";
layers = (
{
layerId = "EBCDC205-C9A0-423C-849D-CA5F62F08A5E";
name = Regular;
paths = (
{
closed = 1;
nodes = (
"250 578 LINE",
"273 578 LINE SMOOTH",
"300.435 578 OFFCURVE",
"318 591.163 OFFCURVE",
"318 613 CURVE SMOOTH",
"318 664 LINE SMOOTH",
"318 683.616 OFFCURVE",
"302.513 699 OFFCURVE",
"273 699 CURVE SMOOTH",
"55 699 LINE SMOOTH",
"27.5655 699 OFFCURVE",
"10 685.837 OFFCURVE",
"10 664 CURVE SMOOTH",
"10 613 LINE SMOOTH",
"10 593.384 OFFCURVE",
"25.4869 578 OFFCURVE",
"55 578 CURVE SMOOTH",
"78 578 LINE",
"78 99 LINE",
"55 99 LINE SMOOTH",
"27.5655 99 OFFCURVE",
"10 85.8372 OFFCURVE",
"10 64 CURVE SMOOTH",
"10 15 LINE SMOOTH",
"10 -5 OFFCURVE",
"25.4869 -20 OFFCURVE",
"55 -20 CURVE SMOOTH",
"273 -20 LINE SMOOTH",
"300.435 -20 OFFCURVE",
"318 -7 OFFCURVE",
"318 15 CURVE SMOOTH",
"318 64 LINE SMOOTH",
"318 83.6158 OFFCURVE",
"302.513 99 OFFCURVE",
"273 99 CURVE SMOOTH",
"250 99 LINE"
);
},
{
closed = 1;
nodes = (
"326 737 OFFCURVE",
"367 768 OFFCURVE",
"367 819 CURVE SMOOTH",
"367 868 OFFCURVE",
"333 899 OFFCURVE",
"275 899 CURVE SMOOTH",
"221 899 OFFCURVE",
"183 867 OFFCURVE",
"183 819 CURVE SMOOTH",
"183 770 OFFCURVE",
"219 737 OFFCURVE",
"275 737 CURVE SMOOTH"
);
},
{
closed = 1;
nodes = (
"100 737 OFFCURVE",
"141 768 OFFCURVE",
"141 819 CURVE SMOOTH",
"141 868 OFFCURVE",
"107 899 OFFCURVE",
"49 899 CURVE SMOOTH",
"-5 899 OFFCURVE",
"-43 867 OFFCURVE",
"-43 819 CURVE SMOOTH",
"-43 770 OFFCURVE",
"-7 737 OFFCURVE",
"49 737 CURVE SMOOTH"
);
}
);
width = 328;
}
);
unicode = 00CF;
},
{
glyphname = Idotaccent;
lastChange = "2013-07-17 11:37:32 +0000";
layers = (
{
layerId = "EBCDC205-C9A0-423C-849D-CA5F62F08A5E";
name = Regular;
paths = (
{
closed = 1;
nodes = (
"250 578 LINE",
"273 578 LINE SMOOTH",
"300.435 578 OFFCURVE",
"318 591.163 OFFCURVE",
"318 613 CURVE SMOOTH",
"318 664 LINE SMOOTH",
"318 683.616 OFFCURVE",
"302.513 699 OFFCURVE",
"273 699 CURVE SMOOTH",
"55 699 LINE SMOOTH",
"27.5655 699 OFFCURVE",
"10 685.837 OFFCURVE",
"10 664 CURVE SMOOTH",
"10 613 LINE SMOOTH",
"10 593.384 OFFCURVE",
"25.4869 578 OFFCURVE",
"55 578 CURVE SMOOTH",
"78 578 LINE",
"78 99 LINE",
"55 99 LINE SMOOTH",
"27.5655 99 OFFCURVE",
"10 85.8372 OFFCURVE",
"10 64 CURVE SMOOTH",
"10 15 LINE SMOOTH",
"10 -5 OFFCURVE",
"25.4869 -20 OFFCURVE",
"55 -20 CURVE SMOOTH",
"273 -20 LINE SMOOTH",
"300.435 -20 OFFCURVE",
"318 -7 OFFCURVE",
"318 15 CURVE SMOOTH",
"318 64 LINE SMOOTH",
"318 83.6158 OFFCURVE",
"302.513 99 OFFCURVE",
"273 99 CURVE SMOOTH",
"250 99 LINE"
);
},
{
closed = 1;
nodes = (
"59 767 OFFCURVE",
"94 725 OFFCURVE",
"160 725 CURVE SMOOTH",
"224 725 OFFCURVE",
"262 767 OFFCURVE",
"262 816 CURVE SMOOTH",
"262 866 OFFCURVE",
"226 908 OFFCURVE",
"160 908 CURVE SMOOTH",
"95 908 OFFCURVE",
"59 866 OFFCURVE",
"59 816 CURVE SMOOTH"
);
}
);
width = 328;
}
);
unicode = 0130;
},
{
glyphname = Igrave;
lastChange = "2013-07-17 11:37:39 +0000";
layers = (
{
layerId = "EBCDC205-C9A0-423C-849D-CA5F62F08A5E";
name = Regular;
paths = (
{
closed = 1;
nodes = (
"250 578 LINE",
"273 578 LINE SMOOTH",
"300.435 578 OFFCURVE",
"318 591.163 OFFCURVE",
"318 613 CURVE SMOOTH",
"318 664 LINE SMOOTH",
"318 683.616 OFFCURVE",
"302.513 699 OFFCURVE",
"273 699 CURVE SMOOTH",
"55 699 LINE SMOOTH",
"27.5655 699 OFFCURVE",
"10 685.837 OFFCURVE",
"10 664 CURVE SMOOTH",
"10 613 LINE SMOOTH",
"10 593.384 OFFCURVE",
"25.4869 578 OFFCURVE",
"55 578 CURVE SMOOTH",
"78 578 LINE",
"78 99 LINE",
"55 99 LINE SMOOTH",
"27.5655 99 OFFCURVE",
"10 85.8372 OFFCURVE",
"10 64 CURVE SMOOTH",
"10 15 LINE SMOOTH",
"10 -5 OFFCURVE",
"25.4869 -20 OFFCURVE",
"55 -20 CURVE SMOOTH",
"273 -20 LINE SMOOTH",
"300.435 -20 OFFCURVE",
"318 -7 OFFCURVE",
"318 15 CURVE SMOOTH",
"318 64 LINE SMOOTH",
"318 83.6158 OFFCURVE",
"302.513 99 OFFCURVE",
"273 99 CURVE SMOOTH",
"250 99 LINE"
);
},
{
closed = 1;
nodes = (
"188 864 LINE",
"180 880 OFFCURVE",
"163 893 OFFCURVE",
"134 893 CURVE SMOOTH",
"64 893 LINE SMOOTH",
"22 893 OFFCURVE",
"12 873 OFFCURVE",
"32 846 CURVE",
"96 751 LINE",
"97 750 LINE",
"107 737 OFFCURVE",
"127 727 OFFCURVE",
"151 727 CURVE SMOOTH",
"191 727 LINE SMOOTH",
"227 727 OFFCURVE",
"242 746 OFFCURVE",
"229 772 CURVE SMOOTH"
);
}
);
width = 328;
}
);
unicode = 00CC;
},
{
glyphname = Imacron;
lastChange = "2013-07-17 11:37:45 +0000";
layers = (
{
layerId = "EBCDC205-C9A0-423C-849D-CA5F62F08A5E";
name = Regular;
paths = (
{
closed = 1;
nodes = (
"250 578 LINE",
"273 578 LINE SMOOTH",
"300.435 578 OFFCURVE",
"318 591.163 OFFCURVE",
"318 613 CURVE SMOOTH",
"318 664 LINE SMOOTH",
"318 683.616 OFFCURVE",
"302.513 699 OFFCURVE",
"273 699 CURVE SMOOTH",
"55 699 LINE SMOOTH",
"27.5655 699 OFFCURVE",
"10 685.837 OFFCURVE",
"10 664 CURVE SMOOTH",
"10 613 LINE SMOOTH",
"10 593.384 OFFCURVE",
"25.4869 578 OFFCURVE",
"55 578 CURVE SMOOTH",
"78 578 LINE",
"78 99 LINE",
"55 99 LINE SMOOTH",
"27.5655 99 OFFCURVE",
"10 85.8372 OFFCURVE",
"10 64 CURVE SMOOTH",
"10 15 LINE SMOOTH",
"10 -5 OFFCURVE",
"25.4869 -20 OFFCURVE",
"55 -20 CURVE SMOOTH",
"273 -20 LINE SMOOTH",
"300.435 -20 OFFCURVE",
"318 -7 OFFCURVE",
"318 15 CURVE SMOOTH",
"318 64 LINE SMOOTH",
"318 83.6158 OFFCURVE",
"302.513 99 OFFCURVE",
"273 99 CURVE SMOOTH",
"250 99 LINE"
);
},
{
closed = 1;
nodes = (
"294 749 LINE SMOOTH",
"328 749 OFFCURVE",
"343 763 OFFCURVE",
"343 788 CURVE SMOOTH",
"343 831 LINE SMOOTH",
"343 856 OFFCURVE",
"328 870 OFFCURVE",
"294 870 CURVE SMOOTH",
"34 870 LINE SMOOTH",
"0 870 OFFCURVE",
"-15 856 OFFCURVE",
"-15 831 CURVE SMOOTH",
"-15 788 LINE SMOOTH",
"-15 763 OFFCURVE",
"0 749 OFFCURVE",
"34 749 CURVE SMOOTH"
);
}
);
width = 328;
}
);
unicode = 012A;
},
{
glyphname = Iogonek;
lastChange = "2013-07-17 11:28:35 +0000";
layers = (
{
layerId = "EBCDC205-C9A0-423C-849D-CA5F62F08A5E";
name = Regular;
paths = (
{
closed = 1;
nodes = (
"32 -204 OFFCURVE",
"69.3389 -253 OFFCURVE",
"146 -253 CURVE SMOOTH",
"192.155 -253 OFFCURVE",
"236.337 -231 OFFCURVE",
"255.108 -217 CURVE",
"281.337 -200 OFFCURVE",
"279.426 -190 OFFCURVE",
"268.337 -169 CURVE",
"258.833 -150 LINE SMOOTH",
"251.769 -136 OFFCURVE",
"214.759 -125 OFFCURVE",
"196.419 -137 CURVE",
"183.668 -143 OFFCURVE",
"180.677 -144 OFFCURVE",
"174 -144 CURVE SMOOTH",
"170.806 -144 OFFCURVE",
"171 -145 OFFCURVE",
"171 -128 CURVE SMOOTH",
"171 -100 OFFCURVE",
"187.8 -66 OFFCURVE",
"229.148 -20 CURVE",
"273 -20 LINE SMOOTH",
"300.435 -20 OFFCURVE",
"318 -7 OFFCURVE",
"318 15 CURVE SMOOTH",
"318 64 LINE SMOOTH",
"318 83.6158 OFFCURVE",
"302.513 99 OFFCURVE",
"273 99 CURVE SMOOTH",
"250 99 LINE",
"250 578 LINE",
"273 578 LINE SMOOTH",
"300.435 578 OFFCURVE",
"318 591.163 OFFCURVE",
"318 613 CURVE SMOOTH",
"318 664 LINE SMOOTH",
"318 683.616 OFFCURVE",
"302.513 699 OFFCURVE",
"273 699 CURVE SMOOTH",
"55 699 LINE SMOOTH",
"27.5655 699 OFFCURVE",
"10 685.837 OFFCURVE",
"10 664 CURVE SMOOTH",
"10 613 LINE SMOOTH",
"10 593.384 OFFCURVE",
"25.4869 578 OFFCURVE",
"55 578 CURVE SMOOTH",
"78 578 LINE",
"78 99 LINE",
"55 99 LINE SMOOTH",
"27.5655 99 OFFCURVE",
"10 85.8372 OFFCURVE",
"10 64 CURVE SMOOTH",
"10 15 LINE SMOOTH",
"10 -5 OFFCURVE",
"25.4869 -20 OFFCURVE",
"55 -20 CURVE SMOOTH",
"93.7275 -20 LINE",
"60.1251 -56 OFFCURVE",
"32 -99 OFFCURVE",
"32 -147 CURVE SMOOTH"
);
}
);
width = 328;
}
);
unicode = 012E;
},
{
glyphname = Itilde;
lastChange = "2013-07-17 11:37:53 +0000";
layers = (
{
layerId = "EBCDC205-C9A0-423C-849D-CA5F62F08A5E";
name = Regular;
paths = (
{
closed = 1;
nodes = (
"250 578 LINE",
"273 578 LINE SMOOTH",
"300.435 578 OFFCURVE",
"318 591.163 OFFCURVE",
"318 613 CURVE SMOOTH",
"318 664 LINE SMOOTH",
"318 683.616 OFFCURVE",
"302.513 699 OFFCURVE",
"273 699 CURVE SMOOTH",
"55 699 LINE SMOOTH",
"27.5655 699 OFFCURVE",
"10 685.837 OFFCURVE",
"10 664 CURVE SMOOTH",
"10 613 LINE SMOOTH",
"10 593.384 OFFCURVE",
"25.4869 578 OFFCURVE",
"55 578 CURVE SMOOTH",
"78 578 LINE",
"78 99 LINE",
"55 99 LINE SMOOTH",
"27.5655 99 OFFCURVE",
"10 85.8372 OFFCURVE",
"10 64 CURVE SMOOTH",
"10 15 LINE SMOOTH",
"10 -5 OFFCURVE",
"25.4869 -20 OFFCURVE",
"55 -20 CURVE SMOOTH",
"273 -20 LINE SMOOTH",
"300.435 -20 OFFCURVE",
"318 -7 OFFCURVE",
"318 15 CURVE SMOOTH",
"318 64 LINE SMOOTH",
"318 83.6158 OFFCURVE",
"302.513 99 OFFCURVE",
"273 99 CURVE SMOOTH",
"250 99 LINE"
);
},
{
closed = 1;
nodes = (
"27 894 OFFCURVE",
"-36 875 OFFCURVE",
"-36 780 CURVE SMOOTH",
"-36 769 OFFCURVE",
"-27 746 OFFCURVE",
"6 746 CURVE SMOOTH",
"37 746 LINE SMOOTH",
"60 746 OFFCURVE",
"79 753 OFFCURVE",
"79 776 CURVE SMOOTH",
"79 817 OFFCURVE",
"40 778 OFFCURVE",
"79 778 CURVE SMOOTH",
"106 778 OFFCURVE",
"191 740 OFFCURVE",
"258 740 CURVE SMOOTH",
"315 740 OFFCURVE",
"364 777 OFFCURVE",
"364 859 CURVE SMOOTH",
"364 870 OFFCURVE",
"355 893 OFFCURVE",
"322 893 CURVE SMOOTH",
"298 893 LINE SMOOTH",
"276 893 OFFCURVE",
"253 886 OFFCURVE",
"253 860 CURVE SMOOTH",
"253 851 OFFCURVE",
"264 853 OFFCURVE",
"249 853 CURVE SMOOTH",
"211 853 OFFCURVE",
"128 894 OFFCURVE",
"67 894 CURVE SMOOTH"
);
}
);
width = 328;
}
);
unicode = 0128;
},
{
glyphname = J;
lastChange = "2013-07-17 13:29:48 +0000";
layers = (
{
anchors = (
{
name = top;
position = "{165, 679}";
}
);
layerId = "EBCDC205-C9A0-423C-849D-CA5F62F08A5E";
name = Regular;
paths = (
{
closed = 1;
nodes = (
"79 -38 LINE SMOOTH",
"79 -113 OFFCURVE",
"61.3255 -131 OFFCURVE",
"26 -131 CURVE SMOOTH",
"-2 -131 OFFCURVE",
"-17 -125 OFFCURVE",
"-33 -119 CURVE SMOOTH",
"-60 -108 OFFCURVE",
"-87 -130 OFFCURVE",
"-91 -142 CURVE",
"-108 -193 LINE SMOOTH",
"-112 -204 OFFCURVE",
"-118 -222 OFFCURVE",
"-88 -237 CURVE SMOOTH",
"-65 -248 OFFCURVE",
"-15 -260 OFFCURVE",
"38 -260 CURVE SMOOTH",
"203.059 -260 OFFCURVE",
"251 -153 OFFCURVE",
"251 -42 CURVE SMOOTH",
"251 578 LINE",
"274 578 LINE SMOOTH",
"301.435 578 OFFCURVE",
"319 591.163 OFFCURVE",
"319 613 CURVE SMOOTH",
"319 664 LINE SMOOTH",
"319 683.616 OFFCURVE",
"303.513 699 OFFCURVE",
"274 699 CURVE SMOOTH",
"56 699 LINE SMOOTH",
"28.5655 699 OFFCURVE",
"11 685.837 OFFCURVE",
"11 664 CURVE SMOOTH",
"11 613 LINE SMOOTH",
"11 593.384 OFFCURVE",
"26.4869 578 OFFCURVE",
"56 578 CURVE SMOOTH",
"79 578 LINE"
);
}
);
width = 329;
}
);
unicode = 004A;
},
{
glyphname = Jcircumflex;
lastChange = "2013-07-17 11:38:02 +0000";
layers = (
{
layerId = "EBCDC205-C9A0-423C-849D-CA5F62F08A5E";
name = Regular;
paths = (
{
closed = 1;
nodes = (
"79 -38 LINE SMOOTH",
"79 -113 OFFCURVE",
"61.3255 -131 OFFCURVE",
"26 -131 CURVE SMOOTH",
"-2 -131 OFFCURVE",
"-17 -125 OFFCURVE",
"-33 -119 CURVE SMOOTH",
"-60 -108 OFFCURVE",
"-87 -130 OFFCURVE",
"-91 -142 CURVE",
"-108 -193 LINE SMOOTH",
"-112 -204 OFFCURVE",
"-118 -222 OFFCURVE",
"-88 -237 CURVE SMOOTH",
"-65 -248 OFFCURVE",
"-15 -260 OFFCURVE",
"38 -260 CURVE SMOOTH",
"203.059 -260 OFFCURVE",
"251 -153 OFFCURVE",
"251 -42 CURVE SMOOTH",
"251 578 LINE",
"274 578 LINE SMOOTH",
"301.435 578 OFFCURVE",
"319 591.163 OFFCURVE",
"319 613 CURVE SMOOTH",
"319 664 LINE SMOOTH",
"319 683.616 OFFCURVE",
"303.513 699 OFFCURVE",
"274 699 CURVE SMOOTH",
"56 699 LINE SMOOTH",
"28.5655 699 OFFCURVE",
"11 685.837 OFFCURVE",
"11 664 CURVE SMOOTH",
"11 613 LINE SMOOTH",
"11 593.384 OFFCURVE",
"26.4869 578 OFFCURVE",
"56 578 CURVE SMOOTH",
"79 578 LINE"
);
},
{
closed = 1;
nodes = (
"81 732 LINE SMOOTH",
"100 732 OFFCURVE",
"122 743 OFFCURVE",
"129 752 CURVE SMOOTH",
"162 794 LINE",
"197 751 LINE SMOOTH",
"205 741 OFFCURVE",
"228 732 OFFCURVE",
"245 732 CURVE SMOOTH",
"302 732 LINE SMOOTH",
"340 732 OFFCURVE",
"350 752 OFFCURVE",
"332 776 CURVE SMOOTH",
"250 883 LINE SMOOTH",
"243 892 OFFCURVE",
"221 903 OFFCURVE",
"202 903 CURVE SMOOTH",
"126 903 LINE SMOOTH",
"107 903 OFFCURVE",
"85 892 OFFCURVE",
"78 883 CURVE SMOOTH",
"-4 776 LINE SMOOTH",
"-22 752 OFFCURVE",
"-12 732 OFFCURVE",
"26 732 CURVE SMOOTH"
);
}
);
width = 329;
}
);
unicode = 0134;
},
{
glyphname = K;
lastChange = "2013-07-17 13:29:48 +0000";
layers = (
{
anchors = (
{
name = bottom;
position = "{332, 0}";
},
{
name = top;
position = "{332, 679}";
}
);
layerId = "EBCDC205-C9A0-423C-849D-CA5F62F08A5E";
name = Regular;
paths = (
{
closed = 1;
nodes = (
"250 578 LINE",
"273 578 LINE SMOOTH",
"300.435 578 OFFCURVE",
"318 591.163 OFFCURVE",
"318 613 CURVE SMOOTH",
"318 664 LINE SMOOTH",
"318 683.616 OFFCURVE",
"302.513 699 OFFCURVE",
"273 699 CURVE SMOOTH",
"55 699 LINE SMOOTH",
"27.5655 699 OFFCURVE",
"10 685.837 OFFCURVE",
"10 664 CURVE SMOOTH",
"10 613 LINE SMOOTH",
"10 593.384 OFFCURVE",
"25.4869 578 OFFCURVE",
"55 578 CURVE SMOOTH",
"78 578 LINE",
"78 99 LINE",
"55 99 LINE SMOOTH",
"27.5655 99 OFFCURVE",
"10 85.8372 OFFCURVE",
"10 64 CURVE SMOOTH",
"10 15 LINE SMOOTH",
"10 -5 OFFCURVE",
"25.4869 -20 OFFCURVE",
"55 -20 CURVE SMOOTH",
"273 -20 LINE SMOOTH",
"300.435 -20 OFFCURVE",
"318 -7 OFFCURVE",
"318 15 CURVE SMOOTH",
"318 64 LINE SMOOTH",
"318 83.6158 OFFCURVE",
"302.513 99 OFFCURVE",
"273 99 CURVE SMOOTH",
"250 99 LINE",
"250 282 LINE",
"252.309 282 LINE",
"447.343 0.60696 LINE",
"454.716 -9 OFFCURVE",
"476.807 -20 OFFCURVE",
"496 -20 CURVE SMOOTH",
"624 -20 LINE SMOOTH",
"651.435 -20 OFFCURVE",
"669 -7 OFFCURVE",
"669 15 CURVE SMOOTH",
"669 64 LINE SMOOTH",
"669 83.6158 OFFCURVE",
"653.513 99 OFFCURVE",
"624 99 CURVE SMOOTH",
"577.657 99 LINE",
"393.183 364.124 LINE",
"574.791 576 LINE",
"609 576 LINE SMOOTH",
"638.513 576 OFFCURVE",
"654 591.384 OFFCURVE",
"654 611 CURVE SMOOTH",
"654 664 LINE SMOOTH",
"654 683.616 OFFCURVE",
"638.513 699 OFFCURVE",
"609 699 CURVE SMOOTH",
"405 699 LINE SMOOTH",
"374.493 699 OFFCURVE",
"360 684.6 OFFCURVE",
"360 664 CURVE SMOOTH",
"360 613 LINE SMOOTH",
"360 593.384 OFFCURVE",
"375.487 578 OFFCURVE",
"405 578 CURVE SMOOTH",
"406.571 578 LINE",
"255.337 404 LINE",
"250 404 LINE"
);
}
);
width = 664;
}
);
unicode = 004B;
},
{
glyphname = Kcommaaccent;
lastChange = "2013-07-17 11:28:35 +0000";
layers = (
{
layerId = "EBCDC205-C9A0-423C-849D-CA5F62F08A5E";
name = Regular;
paths = (
{
closed = 1;
nodes = (
"250 578 LINE",
"273 578 LINE SMOOTH",
"300.435 578 OFFCURVE",
"318 591.163 OFFCURVE",
"318 613 CURVE SMOOTH",
"318 664 LINE SMOOTH",
"318 683.616 OFFCURVE",
"302.513 699 OFFCURVE",
"273 699 CURVE SMOOTH",
"55 699 LINE SMOOTH",
"27.5655 699 OFFCURVE",
"10 685.837 OFFCURVE",
"10 664 CURVE SMOOTH",
"10 613 LINE SMOOTH",
"10 593.384 OFFCURVE",
"25.4869 578 OFFCURVE",
"55 578 CURVE SMOOTH",
"78 578 LINE",
"78 99 LINE",
"55 99 LINE SMOOTH",
"27.5655 99 OFFCURVE",
"10 85.8372 OFFCURVE",
"10 64 CURVE SMOOTH",
"10 15 LINE SMOOTH",
"10 -5 OFFCURVE",
"25.4869 -20 OFFCURVE",
"55 -20 CURVE SMOOTH",
"273 -20 LINE SMOOTH",
"300.435 -20 OFFCURVE",
"318 -7 OFFCURVE",
"318 15 CURVE SMOOTH",
"318 64 LINE SMOOTH",
"318 83.6158 OFFCURVE",
"302.513 99 OFFCURVE",
"273 99 CURVE SMOOTH",
"250 99 LINE",
"250 282 LINE",
"252.309 282 LINE",
"447.343 0.60696 LINE",
"454.716 -9 OFFCURVE",
"476.807 -20 OFFCURVE",
"496 -20 CURVE SMOOTH",
"624 -20 LINE SMOOTH",
"651.435 -20 OFFCURVE",
"669 -7 OFFCURVE",
"669 15 CURVE SMOOTH",
"669 64 LINE SMOOTH",
"669 83.6158 OFFCURVE",
"653.513 99 OFFCURVE",
"624 99 CURVE SMOOTH",
"577.657 99 LINE",
"393.183 364.124 LINE",
"574.791 576 LINE",
"609 576 LINE SMOOTH",
"638.513 576 OFFCURVE",
"654 591.384 OFFCURVE",
"654 611 CURVE SMOOTH",
"654 664 LINE SMOOTH",
"654 683.616 OFFCURVE",
"638.513 699 OFFCURVE",
"609 699 CURVE SMOOTH",
"405 699 LINE SMOOTH",
"374.493 699 OFFCURVE",
"360 684.6 OFFCURVE",
"360 664 CURVE SMOOTH",
"360 613 LINE SMOOTH",
"360 593.384 OFFCURVE",
"375.487 578 OFFCURVE",
"405 578 CURVE SMOOTH",
"406.571 578 LINE",
"255.337 404 LINE",
"250 404 LINE"
);
},
{
closed = 1;
nodes = (
"382.094 -223 LINE SMOOTH",
"405.935 -185 OFFCURVE",
"423 -156 OFFCURVE",
"423 -123 CURVE SMOOTH",
"423 -76 OFFCURVE",
"386.614 -50 OFFCURVE",
"333 -50 CURVE SMOOTH",
"274.635 -50 OFFCURVE",
"246 -82 OFFCURVE",
"246 -120 CURVE SMOOTH",
"246 -150 OFFCURVE",
"262.035 -170 OFFCURVE",
"274.701 -186 CURVE",
"255.309 -249 LINE",
"255.91 -248 LINE",
"249.119 -266 OFFCURVE",
"250.368 -279 OFFCURVE",
"279.466 -290 CURVE",
"278.462 -289 LINE",
"290.462 -294 LINE SMOOTH",
"308.491 -302 OFFCURVE",
"336.775 -291 OFFCURVE",
"343.412 -282 CURVE"
);
}
);
width = 664;
}
);
unicode = 0136;
},
{
glyphname = L;
lastChange = "2013-07-17 13:29:48 +0000";
layers = (
{
anchors = (
{
name = bottom;
position = "{263, 0}";
},
{
name = top;
position = "{263, 679}";
}
);
layerId = "EBCDC205-C9A0-423C-849D-CA5F62F08A5E";
name = Regular;
paths = (
{
closed = 1;
nodes = (
"250 578 LINE",
"293 578 LINE SMOOTH",
"320.435 578 OFFCURVE",
"338 591.163 OFFCURVE",
"338 613 CURVE SMOOTH",
"338 664 LINE SMOOTH",
"338 683.616 OFFCURVE",
"322.513 699 OFFCURVE",
"293 699 CURVE SMOOTH",
"55 699 LINE SMOOTH",
"27.5655 699 OFFCURVE",
"10 685.837 OFFCURVE",
"10 664 CURVE SMOOTH",
"10 613 LINE SMOOTH",
"10 593.384 OFFCURVE",
"25.4869 578 OFFCURVE",
"55 578 CURVE SMOOTH",
"78 578 LINE",
"78 99 LINE",
"55 99 LINE SMOOTH",
"27.5655 99 OFFCURVE",
"10 85.8372 OFFCURVE",
"10 64 CURVE SMOOTH",
"10 15 LINE SMOOTH",
"10 -4 OFFCURVE",
"22.4381 -20 OFFCURVE",
"55 -20 CURVE SMOOTH",
"396.73 -20 LINE",
"395.058 -47 LINE SMOOTH",
"393.02 -69 OFFCURVE",
"411.565 -83 OFFCURVE",
"439 -83 CURVE SMOOTH",
"495 -83 LINE SMOOTH",
"522.435 -83 OFFCURVE",
"540 -70 OFFCURVE",
"540 -48 CURVE SMOOTH",
"540 149 LINE SMOOTH",
"540 168.616 OFFCURVE",
"524.513 184 OFFCURVE",
"495 184 CURVE SMOOTH",
"439 184 LINE SMOOTH",
"411.565 184 OFFCURVE",
"393.02 170.324 OFFCURVE",
"395.123 147.189 CURVE SMOOTH",
"397.841 99 LINE",
"250 99 LINE"
);
}
);
width = 525;
}
);
unicode = 004C;
},
{
glyphname = Lacute;
lastChange = "2013-07-17 11:38:16 +0000";
layers = (
{
layerId = "EBCDC205-C9A0-423C-849D-CA5F62F08A5E";
name = Regular;
paths = (
{
closed = 1;
nodes = (
"250 578 LINE",
"293 578 LINE SMOOTH",
"320.435 578 OFFCURVE",
"338 591.163 OFFCURVE",
"338 613 CURVE SMOOTH",
"338 664 LINE SMOOTH",
"338 683.616 OFFCURVE",
"322.513 699 OFFCURVE",
"293 699 CURVE SMOOTH",
"55 699 LINE SMOOTH",
"27.5655 699 OFFCURVE",
"10 685.837 OFFCURVE",
"10 664 CURVE SMOOTH",
"10 613 LINE SMOOTH",
"10 593.384 OFFCURVE",
"25.4869 578 OFFCURVE",
"55 578 CURVE SMOOTH",
"78 578 LINE",
"78 99 LINE",
"55 99 LINE SMOOTH",
"27.5655 99 OFFCURVE",
"10 85.8372 OFFCURVE",
"10 64 CURVE SMOOTH",
"10 15 LINE SMOOTH",
"10 -4 OFFCURVE",
"22.4381 -20 OFFCURVE",
"55 -20 CURVE SMOOTH",
"396.73 -20 LINE",
"395.058 -47 LINE SMOOTH",
"393.02 -69 OFFCURVE",
"411.565 -83 OFFCURVE",
"439 -83 CURVE SMOOTH",
"495 -83 LINE SMOOTH",
"522.435 -83 OFFCURVE",
"540 -70 OFFCURVE",
"540 -48 CURVE SMOOTH",
"540 149 LINE SMOOTH",
"540 168.616 OFFCURVE",
"524.513 184 OFFCURVE",
"495 184 CURVE SMOOTH",
"439 184 LINE SMOOTH",
"411.565 184 OFFCURVE",
"393.02 170.324 OFFCURVE",
"395.123 147.189 CURVE SMOOTH",
"397.841 99 LINE",
"250 99 LINE"
);
},
{
closed = 1;
nodes = (
"95 778 LINE",
"80 752 OFFCURVE",
"94 730 OFFCURVE",
"129 730 CURVE SMOOTH",
"177 730 LINE SMOOTH",
"194 730 OFFCURVE",
"215 740 OFFCURVE",
"223 749 CURVE",
"295 853 LINE",
"294 852 LINE",
"309 873 OFFCURVE",
"304 896 OFFCURVE",
"264 896 CURVE SMOOTH",
"186 896 LINE SMOOTH",
"167 896 OFFCURVE",
"146 885 OFFCURVE",
"139 873 CURVE"
);
}
);
width = 525;
}
);
unicode = 0139;
},
{
glyphname = Lcaron;
lastChange = "2013-07-17 13:07:56 +0000";
layers = (
{
layerId = "EBCDC205-C9A0-423C-849D-CA5F62F08A5E";
name = Regular;
paths = (
{
closed = 1;
nodes = (
"250 578 LINE",
"293 578 LINE SMOOTH",
"320.435 578 OFFCURVE",
"338 591.163 OFFCURVE",
"338 613 CURVE SMOOTH",
"338 664 LINE SMOOTH",
"338 683.616 OFFCURVE",
"322.513 699 OFFCURVE",
"293 699 CURVE SMOOTH",
"55 699 LINE SMOOTH",
"27.5655 699 OFFCURVE",
"10 685.837 OFFCURVE",
"10 664 CURVE SMOOTH",
"10 613 LINE SMOOTH",
"10 593.384 OFFCURVE",
"25.4869 578 OFFCURVE",
"55 578 CURVE SMOOTH",
"78 578 LINE",
"78 99 LINE",
"55 99 LINE SMOOTH",
"27.5655 99 OFFCURVE",
"10 85.8372 OFFCURVE",
"10 64 CURVE SMOOTH",
"10 15 LINE SMOOTH",
"10 -4 OFFCURVE",
"22.4381 -20 OFFCURVE",
"55 -20 CURVE SMOOTH",
"396.73 -20 LINE",
"395.058 -47 LINE SMOOTH",
"393.02 -69 OFFCURVE",
"411.565 -83 OFFCURVE",
"439 -83 CURVE SMOOTH",
"495 -83 LINE SMOOTH",
"522.435 -83 OFFCURVE",
"540 -70 OFFCURVE",
"540 -48 CURVE SMOOTH",
"540 149 LINE SMOOTH",
"540 168.616 OFFCURVE",
"524.513 184 OFFCURVE",
"495 184 CURVE SMOOTH",
"439 184 LINE SMOOTH",
"411.565 184 OFFCURVE",
"393.02 170.324 OFFCURVE",
"395.123 147.189 CURVE SMOOTH",
"397.841 99 LINE",
"250 99 LINE"
);
},
{
closed = 1;
nodes = (
"364 444 LINE SMOOTH",
"364 425 OFFCURVE",
"380 409 OFFCURVE",
"409 409 CURVE SMOOTH",
"444 409 LINE SMOOTH",
"470 409 OFFCURVE",
"488 421 OFFCURVE",
"492 441 CURVE SMOOTH",
"523 625 LINE",
"529 651 OFFCURVE",
"514 669 OFFCURVE",
"481 669 CURVE SMOOTH",
"409 669 LINE SMOOTH",
"382 669 OFFCURVE",
"364 656 OFFCURVE",
"364 634 CURVE SMOOTH"
);
}
);
width = 525;
}
);
unicode = 013D;
},
{
glyphname = Lcommaaccent;
lastChange = "2013-07-17 11:38:36 +0000";
layers = (
{
layerId = "EBCDC205-C9A0-423C-849D-CA5F62F08A5E";
name = Regular;
paths = (
{
closed = 1;
nodes = (
"250 578 LINE",
"293 578 LINE SMOOTH",
"320.435 578 OFFCURVE",
"338 591.163 OFFCURVE",
"338 613 CURVE SMOOTH",
"338 664 LINE SMOOTH",
"338 683.616 OFFCURVE",
"322.513 699 OFFCURVE",
"293 699 CURVE SMOOTH",
"55 699 LINE SMOOTH",
"27.5655 699 OFFCURVE",
"10 685.837 OFFCURVE",
"10 664 CURVE SMOOTH",
"10 613 LINE SMOOTH",
"10 593.384 OFFCURVE",
"25.4869 578 OFFCURVE",
"55 578 CURVE SMOOTH",
"78 578 LINE",
"78 99 LINE",
"55 99 LINE SMOOTH",
"27.5655 99 OFFCURVE",
"10 85.8372 OFFCURVE",
"10 64 CURVE SMOOTH",
"10 15 LINE SMOOTH",
"10 -4 OFFCURVE",
"22.4381 -20 OFFCURVE",
"55 -20 CURVE SMOOTH",
"396.73 -20 LINE",
"395.058 -47 LINE SMOOTH",
"393.02 -69 OFFCURVE",
"411.565 -83 OFFCURVE",
"439 -83 CURVE SMOOTH",
"495 -83 LINE SMOOTH",
"522.435 -83 OFFCURVE",
"540 -70 OFFCURVE",
"540 -48 CURVE SMOOTH",
"540 149 LINE SMOOTH",
"540 168.616 OFFCURVE",
"524.513 184 OFFCURVE",
"495 184 CURVE SMOOTH",
"439 184 LINE SMOOTH",
"411.565 184 OFFCURVE",
"393.02 170.324 OFFCURVE",
"395.123 147.189 CURVE SMOOTH",
"397.841 99 LINE",
"250 99 LINE"
);
},
{
closed = 1;
nodes = (
"312 -247 LINE SMOOTH",
"336 -209 OFFCURVE",
"353 -180 OFFCURVE",
"353 -147 CURVE SMOOTH",
"353 -100 OFFCURVE",
"317 -74 OFFCURVE",
"263 -74 CURVE SMOOTH",
"205 -74 OFFCURVE",
"176 -106 OFFCURVE",
"176 -144 CURVE SMOOTH",
"176 -174 OFFCURVE",
"192 -194 OFFCURVE",
"205 -210 CURVE",
"185 -273 LINE",
"186 -272 LINE",
"179 -290 OFFCURVE",
"180 -303 OFFCURVE",
"209 -314 CURVE",
"208 -313 LINE",
"220 -318 LINE SMOOTH",
"238 -326 OFFCURVE",
"267 -315 OFFCURVE",
"273 -306 CURVE"
);
}
);
width = 525;
}
);
unicode = 013B;
},
{
glyphname = Ldot;
lastChange = "2013-07-17 11:38:45 +0000";
layers = (
{
layerId = "EBCDC205-C9A0-423C-849D-CA5F62F08A5E";
name = Regular;
paths = (
{
closed = 1;
nodes = (
"250 578 LINE",
"293 578 LINE SMOOTH",
"320.435 578 OFFCURVE",
"338 591.163 OFFCURVE",
"338 613 CURVE SMOOTH",
"338 664 LINE SMOOTH",
"338 683.616 OFFCURVE",
"322.513 699 OFFCURVE",
"293 699 CURVE SMOOTH",
"55 699 LINE SMOOTH",
"27.5655 699 OFFCURVE",
"10 685.837 OFFCURVE",
"10 664 CURVE SMOOTH",
"10 613 LINE SMOOTH",
"10 593.384 OFFCURVE",
"25.4869 578 OFFCURVE",
"55 578 CURVE SMOOTH",
"78 578 LINE",
"78 99 LINE",
"55 99 LINE SMOOTH",
"27.5655 99 OFFCURVE",
"10 85.8372 OFFCURVE",
"10 64 CURVE SMOOTH",
"10 15 LINE SMOOTH",
"10 -4 OFFCURVE",
"22.4381 -20 OFFCURVE",
"55 -20 CURVE SMOOTH",
"396.73 -20 LINE",
"395.058 -47 LINE SMOOTH",
"393.02 -69 OFFCURVE",
"411.565 -83 OFFCURVE",
"439 -83 CURVE SMOOTH",
"495 -83 LINE SMOOTH",
"522.435 -83 OFFCURVE",
"540 -70 OFFCURVE",
"540 -48 CURVE SMOOTH",
"540 149 LINE SMOOTH",
"540 168.616 OFFCURVE",
"524.513 184 OFFCURVE",
"495 184 CURVE SMOOTH",
"439 184 LINE SMOOTH",
"411.565 184 OFFCURVE",
"393.02 170.324 OFFCURVE",
"395.123 147.189 CURVE SMOOTH",
"397.841 99 LINE",
"250 99 LINE"
);
},
{
closed = 1;
nodes = (
"325 288 OFFCURVE",
"360 246 OFFCURVE",
"426 246 CURVE SMOOTH",
"490 246 OFFCURVE",
"528 288 OFFCURVE",
"528 337 CURVE SMOOTH",
"528 387 OFFCURVE",
"492 429 OFFCURVE",
"426 429 CURVE SMOOTH",
"361 429 OFFCURVE",
"325 387 OFFCURVE",
"325 337 CURVE SMOOTH"
);
}
);
width = 525;
}
);
unicode = 013F;
},
{
glyphname = Lslash;
lastChange = "2013-07-17 11:28:35 +0000";
layers = (
{
layerId = "EBCDC205-C9A0-423C-849D-CA5F62F08A5E";
name = Regular;
paths = (
{
closed = 1;
nodes = (
"250 578 LINE",
"293 578 LINE SMOOTH",
"320.435 578 OFFCURVE",
"338 591.163 OFFCURVE",
"338 613 CURVE SMOOTH",
"338 664 LINE SMOOTH",
"338 683.616 OFFCURVE",
"322.513 699 OFFCURVE",
"293 699 CURVE SMOOTH",
"55 699 LINE SMOOTH",
"27.5655 699 OFFCURVE",
"10 685.837 OFFCURVE",
"10 664 CURVE SMOOTH",
"10 613 LINE SMOOTH",
"10 593.384 OFFCURVE",
"25.4869 578 OFFCURVE",
"55 578 CURVE SMOOTH",
"78 578 LINE",
"78 372.853 LINE",
"48.535 364.187 LINE SMOOTH",
"16.8033 355.667 OFFCURVE",
"9 345.2 OFFCURVE",
"9 321 CURVE SMOOTH",
"9 295 LINE SMOOTH",
"9 268.818 OFFCURVE",
"31.3883 252.097 OFFCURVE",
"65.2416 261.77 CURVE SMOOTH",
"78 265.499 LINE",
"78 99 LINE",
"55 99 LINE SMOOTH",
"27.5655 99 OFFCURVE",
"10 85.8372 OFFCURVE",
"10 64 CURVE SMOOTH",
"10 15 LINE SMOOTH",
"10 -4 OFFCURVE",
"22.4381 -20 OFFCURVE",
"55 -20 CURVE SMOOTH",
"396.73 -20 LINE",
"395.058 -47 LINE SMOOTH",
"393.02 -69 OFFCURVE",
"411.565 -83 OFFCURVE",
"439 -83 CURVE SMOOTH",
"495 -83 LINE SMOOTH",
"522.435 -83 OFFCURVE",
"540 -70 OFFCURVE",
"540 -48 CURVE SMOOTH",
"540 149 LINE SMOOTH",
"540 168.616 OFFCURVE",
"524.513 184 OFFCURVE",
"495 184 CURVE SMOOTH",
"439 184 LINE SMOOTH",
"411.565 184 OFFCURVE",
"393.02 170.324 OFFCURVE",
"395.123 147.189 CURVE SMOOTH",
"397.841 99 LINE",
"250 99 LINE",
"250 309.195 LINE",
"410.533 356.826 LINE SMOOTH",
"442.197 365.333 OFFCURVE",
"450 375.8 OFFCURVE",
"450 400 CURVE SMOOTH",
"450 426 LINE SMOOTH",
"450 452.182 OFFCURVE",
"427.612 468.903 OFFCURVE",
"393.758 459.23 CURVE SMOOTH",
"250 416.607 LINE"
);
}
);
width = 525;
}
);
unicode = 0141;
},
{
glyphname = M;
lastChange = "2013-07-17 11:28:35 +0000";
layers = (
{
layerId = "EBCDC205-C9A0-423C-849D-CA5F62F08A5E";
name = Regular;
paths = (
{
closed = 1;
nodes = (
"476 -20 LINE SMOOTH",
"496.273 -20 OFFCURVE",
"519.545 -7 OFFCURVE",
"524.854 6.57219 CURVE SMOOTH",
"664 354.087 LINE",
"664 99 LINE",
"634 99 LINE SMOOTH",
"606.565 99 OFFCURVE",
"589 85.8372 OFFCURVE",
"589 64 CURVE SMOOTH",
"589 15 LINE SMOOTH",
"589 -5 OFFCURVE",
"604.487 -20 OFFCURVE",
"634 -20 CURVE SMOOTH",
"854 -20 LINE SMOOTH",
"884.507 -20 OFFCURVE",
"899 -6 OFFCURVE",
"899 15 CURVE SMOOTH",
"899 64 LINE SMOOTH",
"899 83.6158 OFFCURVE",
"883.513 99 OFFCURVE",
"854 99 CURVE SMOOTH",
"831 99 LINE",
"831 578 LINE",
"854 578 LINE SMOOTH",
"881.435 578 OFFCURVE",
"899 591.163 OFFCURVE",
"899 613 CURVE SMOOTH",
"899 664 LINE SMOOTH",
"899 683.616 OFFCURVE",
"883.513 699 OFFCURVE",
"854 699 CURVE SMOOTH",
"687 699 LINE SMOOTH",
"668.801 699 OFFCURVE",
"647.501 687.892 OFFCURVE",
"640.193 675.152 CURVE",
"456.35 207.267 LINE",
"279.094 669.337 LINE",
"275.963 684.307 OFFCURVE",
"250.93 699 OFFCURVE",
"230 699 CURVE SMOOTH",
"55 699 LINE SMOOTH",
"27.5655 699 OFFCURVE",
"10 685.837 OFFCURVE",
"10 664 CURVE SMOOTH",
"10 613 LINE SMOOTH",
"10 593.384 OFFCURVE",
"25.4869 578 OFFCURVE",
"55 578 CURVE SMOOTH",
"78 578 LINE",
"78 99 LINE",
"55 99 LINE SMOOTH",
"27.5655 99 OFFCURVE",
"10 85.8372 OFFCURVE",
"10 64 CURVE SMOOTH",
"10 15 LINE SMOOTH",
"10 -5 OFFCURVE",
"25.4869 -20 OFFCURVE",
"55 -20 CURVE SMOOTH",
"258 -20 LINE SMOOTH",
"288.507 -20 OFFCURVE",
"303 -6 OFFCURVE",
"303 15 CURVE SMOOTH",
"303 64 LINE SMOOTH",
"303 83.6158 OFFCURVE",
"287.513 99 OFFCURVE",
"258 99 CURVE SMOOTH",
"225 99 LINE",
"225 352.497 LINE",
"361.084 6.67644 LINE SMOOTH",
"366.455 -7 OFFCURVE",
"389.727 -20 OFFCURVE",
"410 -20 CURVE SMOOTH"
);
}
);
width = 909;
}
);
unicode = 004D;
},
{
glyphname = N;
lastChange = "2013-07-17 13:29:48 +0000";
layers = (
{
anchors = (
{
name = bottom;
position = "{372, 0}";
},
{
name = top;
position = "{372, 679}";
}
);
layerId = "EBCDC205-C9A0-423C-849D-CA5F62F08A5E";
name = Regular;
paths = (
{
closed = 1;
nodes = (
"675 578 LINE",
"698 578 LINE SMOOTH",
"725.435 578 OFFCURVE",
"743 591.163 OFFCURVE",
"743 613 CURVE SMOOTH",
"743 664 LINE SMOOTH",
"743 683.616 OFFCURVE",
"727.513 699 OFFCURVE",
"698 699 CURVE SMOOTH",
"505 699 LINE SMOOTH",
"477.565 699 OFFCURVE",
"460 685.837 OFFCURVE",
"460 664 CURVE SMOOTH",
"460 613 LINE SMOOTH",
"460 593.384 OFFCURVE",
"475.487 578 OFFCURVE",
"505 578 CURVE SMOOTH",
"528 578 LINE",
"528 254.66 LINE",
"250.06 676.995 LINE SMOOTH",
"243.41 686.922 OFFCURVE",
"222.273 699 OFFCURVE",
"202 699 CURVE SMOOTH",
"55 699 LINE SMOOTH",
"27.5655 699 OFFCURVE",
"10 685.837 OFFCURVE",
"10 664 CURVE SMOOTH",
"10 613 LINE SMOOTH",
"10 593.384 OFFCURVE",
"25.4869 578 OFFCURVE",
"55 578 CURVE SMOOTH",
"78 578 LINE",
"78 99 LINE",
"55 99 LINE SMOOTH",
"27.5655 99 OFFCURVE",
"10 85.8372 OFFCURVE",
"10 64 CURVE SMOOTH",
"10 15 LINE SMOOTH",
"10 -5 OFFCURVE",
"25.4869 -20 OFFCURVE",
"55 -20 CURVE SMOOTH",
"278 -20 LINE SMOOTH",
"305.435 -20 OFFCURVE",
"323 -7 OFFCURVE",
"323 15 CURVE SMOOTH",
"323 64 LINE SMOOTH",
"323 83.6158 OFFCURVE",
"307.513 99 OFFCURVE",
"278 99 CURVE SMOOTH",
"225 99 LINE",
"225 420.736 LINE",
"509.154 0.791811 LINE",
"514.721 -8 OFFCURVE",
"537.807 -20 OFFCURVE",
"557 -20 CURVE SMOOTH",
"630 -20 LINE SMOOTH",
"659.513 -20 OFFCURVE",
"675 -5 OFFCURVE",
"675 15 CURVE SMOOTH"
);
}
);
width = 743;
}
);
unicode = 004E;
},
{
glyphname = Nacute;
lastChange = "2013-07-17 11:38:57 +0000";
layers = (
{
layerId = "EBCDC205-C9A0-423C-849D-CA5F62F08A5E";
name = Regular;
paths = (
{
closed = 1;
nodes = (
"675 578 LINE",
"698 578 LINE SMOOTH",
"725.435 578 OFFCURVE",
"743 591.163 OFFCURVE",
"743 613 CURVE SMOOTH",
"743 664 LINE SMOOTH",
"743 683.616 OFFCURVE",
"727.513 699 OFFCURVE",
"698 699 CURVE SMOOTH",
"505 699 LINE SMOOTH",
"477.565 699 OFFCURVE",
"460 685.837 OFFCURVE",
"460 664 CURVE SMOOTH",
"460 613 LINE SMOOTH",
"460 593.384 OFFCURVE",
"475.487 578 OFFCURVE",
"505 578 CURVE SMOOTH",
"528 578 LINE",
"528 254.66 LINE",
"250.06 676.995 LINE SMOOTH",
"243.41 686.922 OFFCURVE",
"222.273 699 OFFCURVE",
"202 699 CURVE SMOOTH",
"55 699 LINE SMOOTH",
"27.5655 699 OFFCURVE",
"10 685.837 OFFCURVE",
"10 664 CURVE SMOOTH",
"10 613 LINE SMOOTH",
"10 593.384 OFFCURVE",
"25.4869 578 OFFCURVE",
"55 578 CURVE SMOOTH",
"78 578 LINE",
"78 99 LINE",
"55 99 LINE SMOOTH",
"27.5655 99 OFFCURVE",
"10 85.8372 OFFCURVE",
"10 64 CURVE SMOOTH",
"10 15 LINE SMOOTH",
"10 -5 OFFCURVE",
"25.4869 -20 OFFCURVE",
"55 -20 CURVE SMOOTH",
"278 -20 LINE SMOOTH",
"305.435 -20 OFFCURVE",
"323 -7 OFFCURVE",
"323 15 CURVE SMOOTH",
"323 64 LINE SMOOTH",
"323 83.6158 OFFCURVE",
"307.513 99 OFFCURVE",
"278 99 CURVE SMOOTH",
"225 99 LINE",
"225 420.736 LINE",
"509.154 0.791811 LINE",
"514.721 -8 OFFCURVE",
"537.807 -20 OFFCURVE",
"557 -20 CURVE SMOOTH",
"630 -20 LINE SMOOTH",
"659.513 -20 OFFCURVE",
"675 -5 OFFCURVE",
"675 15 CURVE SMOOTH"
);
},
{
closed = 1;
nodes = (
"317 775 LINE",
"302 749 OFFCURVE",
"316 727 OFFCURVE",
"351 727 CURVE SMOOTH",
"399 727 LINE SMOOTH",
"416 727 OFFCURVE",
"437 737 OFFCURVE",
"445 746 CURVE",
"517 850 LINE",
"516 849 LINE",
"531 870 OFFCURVE",
"526 893 OFFCURVE",
"486 893 CURVE SMOOTH",
"408 893 LINE SMOOTH",
"389 893 OFFCURVE",
"368 882 OFFCURVE",
"361 870 CURVE"
);
}
);
width = 743;
}
);
unicode = 0143;
},
{
glyphname = Ncaron;
lastChange = "2013-07-17 11:39:05 +0000";
layers = (
{
layerId = "EBCDC205-C9A0-423C-849D-CA5F62F08A5E";
name = Regular;
paths = (
{
closed = 1;
nodes = (
"675 578 LINE",
"698 578 LINE SMOOTH",
"725.435 578 OFFCURVE",
"743 591.163 OFFCURVE",
"743 613 CURVE SMOOTH",
"743 664 LINE SMOOTH",
"743 683.616 OFFCURVE",
"727.513 699 OFFCURVE",
"698 699 CURVE SMOOTH",
"505 699 LINE SMOOTH",
"477.565 699 OFFCURVE",
"460 685.837 OFFCURVE",
"460 664 CURVE SMOOTH",
"460 613 LINE SMOOTH",
"460 593.384 OFFCURVE",
"475.487 578 OFFCURVE",
"505 578 CURVE SMOOTH",
"528 578 LINE",
"528 254.66 LINE",
"250.06 676.995 LINE SMOOTH",
"243.41 686.922 OFFCURVE",
"222.273 699 OFFCURVE",
"202 699 CURVE SMOOTH",
"55 699 LINE SMOOTH",
"27.5655 699 OFFCURVE",
"10 685.837 OFFCURVE",
"10 664 CURVE SMOOTH",
"10 613 LINE SMOOTH",
"10 593.384 OFFCURVE",
"25.4869 578 OFFCURVE",
"55 578 CURVE SMOOTH",
"78 578 LINE",
"78 99 LINE",
"55 99 LINE SMOOTH",
"27.5655 99 OFFCURVE",
"10 85.8372 OFFCURVE",
"10 64 CURVE SMOOTH",
"10 15 LINE SMOOTH",
"10 -5 OFFCURVE",
"25.4869 -20 OFFCURVE",
"55 -20 CURVE SMOOTH",
"278 -20 LINE SMOOTH",
"305.435 -20 OFFCURVE",
"323 -7 OFFCURVE",
"323 15 CURVE SMOOTH",
"323 64 LINE SMOOTH",
"323 83.6158 OFFCURVE",
"307.513 99 OFFCURVE",
"278 99 CURVE SMOOTH",
"225 99 LINE",
"225 420.736 LINE",
"509.154 0.791811 LINE",
"514.721 -8 OFFCURVE",
"537.807 -20 OFFCURVE",
"557 -20 CURVE SMOOTH",
"630 -20 LINE SMOOTH",
"659.513 -20 OFFCURVE",
"675 -5 OFFCURVE",
"675 15 CURVE SMOOTH"
);
},
{
closed = 1;
nodes = (
"464 892 LINE SMOOTH",
"445 892 OFFCURVE",
"423 881 OFFCURVE",
"416 872 CURVE SMOOTH",
"383 830 LINE",
"348 873 LINE SMOOTH",
"340 883 OFFCURVE",
"317 892 OFFCURVE",
"300 892 CURVE SMOOTH",
"243 892 LINE SMOOTH",
"205 892 OFFCURVE",
"195 872 OFFCURVE",
"213 848 CURVE SMOOTH",
"295 741 LINE SMOOTH",
"302 732 OFFCURVE",
"324 721 OFFCURVE",
"343 721 CURVE SMOOTH",
"419 721 LINE SMOOTH",
"438 721 OFFCURVE",
"460 732 OFFCURVE",
"467 741 CURVE SMOOTH",
"549 848 LINE SMOOTH",
"567 872 OFFCURVE",
"557 892 OFFCURVE",
"519 892 CURVE SMOOTH"
);
}
);
width = 743;
}
);
unicode = 0147;
},
{
glyphname = Ncommaaccent;
lastChange = "2013-07-17 11:39:14 +0000";
layers = (
{
layerId = "EBCDC205-C9A0-423C-849D-CA5F62F08A5E";
name = Regular;
paths = (
{
closed = 1;
nodes = (
"675 578 LINE",
"698 578 LINE SMOOTH",
"725.435 578 OFFCURVE",
"743 591.163 OFFCURVE",
"743 613 CURVE SMOOTH",
"743 664 LINE SMOOTH",
"743 683.616 OFFCURVE",
"727.513 699 OFFCURVE",
"698 699 CURVE SMOOTH",
"505 699 LINE SMOOTH",
"477.565 699 OFFCURVE",
"460 685.837 OFFCURVE",
"460 664 CURVE SMOOTH",
"460 613 LINE SMOOTH",
"460 593.384 OFFCURVE",
"475.487 578 OFFCURVE",
"505 578 CURVE SMOOTH",
"528 578 LINE",
"528 254.66 LINE",
"250.06 676.995 LINE SMOOTH",
"243.41 686.922 OFFCURVE",
"222.273 699 OFFCURVE",
"202 699 CURVE SMOOTH",
"55 699 LINE SMOOTH",
"27.5655 699 OFFCURVE",
"10 685.837 OFFCURVE",
"10 664 CURVE SMOOTH",
"10 613 LINE SMOOTH",
"10 593.384 OFFCURVE",
"25.4869 578 OFFCURVE",
"55 578 CURVE SMOOTH",
"78 578 LINE",
"78 99 LINE",
"55 99 LINE SMOOTH",
"27.5655 99 OFFCURVE",
"10 85.8372 OFFCURVE",
"10 64 CURVE SMOOTH",
"10 15 LINE SMOOTH",
"10 -5 OFFCURVE",
"25.4869 -20 OFFCURVE",
"55 -20 CURVE SMOOTH",
"278 -20 LINE SMOOTH",
"305.435 -20 OFFCURVE",
"323 -7 OFFCURVE",
"323 15 CURVE SMOOTH",
"323 64 LINE SMOOTH",
"323 83.6158 OFFCURVE",
"307.513 99 OFFCURVE",
"278 99 CURVE SMOOTH",
"225 99 LINE",
"225 420.736 LINE",
"509.154 0.791811 LINE",
"514.721 -8 OFFCURVE",
"537.807 -20 OFFCURVE",
"557 -20 CURVE SMOOTH",
"630 -20 LINE SMOOTH",
"659.513 -20 OFFCURVE",
"675 -5 OFFCURVE",
"675 15 CURVE SMOOTH"
);
},
{
closed = 1;
nodes = (
"432 -233 LINE SMOOTH",
"456 -195 OFFCURVE",
"473 -166 OFFCURVE",
"473 -133 CURVE SMOOTH",
"473 -86 OFFCURVE",
"437 -60 OFFCURVE",
"383 -60 CURVE SMOOTH",
"325 -60 OFFCURVE",
"296 -92 OFFCURVE",
"296 -130 CURVE SMOOTH",
"296 -160 OFFCURVE",
"312 -180 OFFCURVE",
"325 -196 CURVE",
"305 -259 LINE",
"306 -258 LINE",
"299 -276 OFFCURVE",
"300 -289 OFFCURVE",
"329 -300 CURVE",
"328 -299 LINE",
"340 -304 LINE SMOOTH",
"358 -312 OFFCURVE",
"387 -301 OFFCURVE",
"393 -292 CURVE"
);
}
);
width = 743;
}
);
unicode = 0145;
},
{
glyphname = Eng;
lastChange = "2013-07-17 11:28:35 +0000";
layers = (
{
layerId = "EBCDC205-C9A0-423C-849D-CA5F62F08A5E";
name = Regular;
paths = (
{
closed = 1;
nodes = (
"675 578 LINE",
"698 578 LINE SMOOTH",
"725.435 578 OFFCURVE",
"743 591.163 OFFCURVE",
"743 613 CURVE SMOOTH",
"743 664 LINE SMOOTH",
"743 683.616 OFFCURVE",
"727.513 699 OFFCURVE",
"698 699 CURVE SMOOTH",
"505 699 LINE SMOOTH",
"477.565 699 OFFCURVE",
"460 685.837 OFFCURVE",
"460 664 CURVE SMOOTH",
"460 613 LINE SMOOTH",
"460 593.384 OFFCURVE",
"475.487 578 OFFCURVE",
"505 578 CURVE SMOOTH",
"528 578 LINE",
"528 254.66 LINE",
"250.06 676.995 LINE SMOOTH",
"243.41 686.922 OFFCURVE",
"222.273 699 OFFCURVE",
"202 699 CURVE SMOOTH",
"55 699 LINE SMOOTH",
"27.5655 699 OFFCURVE",
"10 685.837 OFFCURVE",
"10 664 CURVE SMOOTH",
"10 613 LINE SMOOTH",
"10 593.384 OFFCURVE",
"25.4869 578 OFFCURVE",
"55 578 CURVE SMOOTH",
"78 578 LINE",
"78 99 LINE",
"55 99 LINE SMOOTH",
"27.5655 99 OFFCURVE",
"10 85.8372 OFFCURVE",
"10 64 CURVE SMOOTH",
"10 15 LINE SMOOTH",
"10 -5 OFFCURVE",
"25.4869 -20 OFFCURVE",
"55 -20 CURVE SMOOTH",
"278 -20 LINE SMOOTH",
"305.435 -20 OFFCURVE",
"323 -7 OFFCURVE",
"323 15 CURVE SMOOTH",
"323 64 LINE SMOOTH",
"323 83.6158 OFFCURVE",
"307.513 99 OFFCURVE",
"278 99 CURVE SMOOTH",
"225 99 LINE",
"225 420.654 LINE",
"503 9.41169 LINE",
"503 -34 LINE SMOOTH",
"503 -111 OFFCURVE",
"487.269 -129 OFFCURVE",
"446 -129 CURVE SMOOTH",
"427.501 -129 OFFCURVE",
"414.247 -127 OFFCURVE",
"395.503 -121 CURVE SMOOTH",
"367.053 -112 OFFCURVE",
"338.861 -122 OFFCURVE",
"330.748 -144 CURVE SMOOTH",
"315.54 -190 LINE SMOOTH",
"307.072 -214 OFFCURVE",
"311.113 -225 OFFCURVE",
"340.945 -238 CURVE",
"375.207 -251 OFFCURVE",
"427.193 -260 OFFCURVE",
"468 -260 CURVE SMOOTH",
"628.231 -260 OFFCURVE",
"675 -153 OFFCURVE",
"675 -41 CURVE SMOOTH"
);
}
);
width = 743;
}
);
unicode = 014A;
},
{
glyphname = Ntilde;
lastChange = "2013-07-17 11:39:23 +0000";
layers = (
{
layerId = "EBCDC205-C9A0-423C-849D-CA5F62F08A5E";
name = Regular;
paths = (
{
closed = 1;
nodes = (
"675 578 LINE",
"698 578 LINE SMOOTH",
"725.435 578 OFFCURVE",
"743 591.163 OFFCURVE",
"743 613 CURVE SMOOTH",
"743 664 LINE SMOOTH",
"743 683.616 OFFCURVE",
"727.513 699 OFFCURVE",
"698 699 CURVE SMOOTH",
"505 699 LINE SMOOTH",
"477.565 699 OFFCURVE",
"460 685.837 OFFCURVE",
"460 664 CURVE SMOOTH",
"460 613 LINE SMOOTH",
"460 593.384 OFFCURVE",
"475.487 578 OFFCURVE",
"505 578 CURVE SMOOTH",
"528 578 LINE",
"528 254.66 LINE",
"250.06 676.995 LINE SMOOTH",
"243.41 686.922 OFFCURVE",
"222.273 699 OFFCURVE",
"202 699 CURVE SMOOTH",
"55 699 LINE SMOOTH",
"27.5655 699 OFFCURVE",
"10 685.837 OFFCURVE",
"10 664 CURVE SMOOTH",
"10 613 LINE SMOOTH",
"10 593.384 OFFCURVE",
"25.4869 578 OFFCURVE",
"55 578 CURVE SMOOTH",
"78 578 LINE",
"78 99 LINE",
"55 99 LINE SMOOTH",
"27.5655 99 OFFCURVE",
"10 85.8372 OFFCURVE",
"10 64 CURVE SMOOTH",
"10 15 LINE SMOOTH",
"10 -5 OFFCURVE",
"25.4869 -20 OFFCURVE",
"55 -20 CURVE SMOOTH",
"278 -20 LINE SMOOTH",
"305.435 -20 OFFCURVE",
"323 -7 OFFCURVE",
"323 15 CURVE SMOOTH",
"323 64 LINE SMOOTH",
"323 83.6158 OFFCURVE",
"307.513 99 OFFCURVE",
"278 99 CURVE SMOOTH",
"225 99 LINE",
"225 420.736 LINE",
"509.154 0.791811 LINE",
"514.721 -8 OFFCURVE",
"537.807 -20 OFFCURVE",
"557 -20 CURVE SMOOTH",
"630 -20 LINE SMOOTH",
"659.513 -20 OFFCURVE",
"675 -5 OFFCURVE",
"675 15 CURVE SMOOTH"
);
},
{
closed = 1;
nodes = (
"234 892 OFFCURVE",
"171 873 OFFCURVE",
"171 778 CURVE SMOOTH",
"171 767 OFFCURVE",
"180 744 OFFCURVE",
"213 744 CURVE SMOOTH",
"244 744 LINE SMOOTH",
"267 744 OFFCURVE",
"286 751 OFFCURVE",
"286 774 CURVE SMOOTH",
"286 815 OFFCURVE",
"247 776 OFFCURVE",
"286 776 CURVE SMOOTH",
"313 776 OFFCURVE",
"398 738 OFFCURVE",
"465 738 CURVE SMOOTH",
"522 738 OFFCURVE",
"571 775 OFFCURVE",
"571 857 CURVE SMOOTH",
"571 868 OFFCURVE",
"562 891 OFFCURVE",
"529 891 CURVE SMOOTH",
"505 891 LINE SMOOTH",
"483 891 OFFCURVE",
"460 884 OFFCURVE",
"460 858 CURVE SMOOTH",
"460 849 OFFCURVE",
"471 851 OFFCURVE",
"456 851 CURVE SMOOTH",
"418 851 OFFCURVE",
"335 892 OFFCURVE",
"274 892 CURVE SMOOTH"
);
}
);
width = 743;
}
);
unicode = 00D1;
},
{
glyphname = O;
lastChange = "2013-07-17 13:29:48 +0000";
layers = (
{
anchors = (
{
name = top;
position = "{346, 679}";
}
);
layerId = "EBCDC205-C9A0-423C-849D-CA5F62F08A5E";
name = Regular;
paths = (
{
closed = 1;
nodes = (
"13 94.9935 OFFCURVE",
"130.955 -32 OFFCURVE",
"333 -32 CURVE SMOOTH",
"528.302 -32 OFFCURVE",
"679 102.007 OFFCURVE",
"679 361 CURVE SMOOTH",
"679 673.929 OFFCURVE",
"461.821 716 OFFCURVE",
"354 716 CURVE SMOOTH",
"213.695 716 OFFCURVE",
"13 629.398 OFFCURVE",
"13 333 CURVE SMOOTH"
);
},
{
closed = 1;
nodes = (
"213.565 102 OFFCURVE",
"193 249.672 OFFCURVE",
"193 368 CURVE SMOOTH",
"193 490.915 OFFCURVE",
"232.889 588 OFFCURVE",
"342 588 CURVE SMOOTH",
"451.121 588 OFFCURVE",
"494 485.956 OFFCURVE",
"494 342 CURVE SMOOTH",
"494 197.282 OFFCURVE",
"449.803 102 OFFCURVE",
"345 102 CURVE SMOOTH"
);
}
);
width = 692;
}
);
unicode = 004F;
},
{
glyphname = Oacute;
lastChange = "2013-07-17 13:33:53 +0000";
layers = (
{
layerId = "EBCDC205-C9A0-423C-849D-CA5F62F08A5E";
name = Regular;
paths = (
{
closed = 1;
nodes = (
"13 94.9935 OFFCURVE",
"130.955 -32 OFFCURVE",
"333 -32 CURVE SMOOTH",
"528.302 -32 OFFCURVE",
"679 102.007 OFFCURVE",
"679 361 CURVE SMOOTH",
"679 673.929 OFFCURVE",
"461.821 716 OFFCURVE",
"354 716 CURVE SMOOTH",
"213.695 716 OFFCURVE",
"13 629.398 OFFCURVE",
"13 333 CURVE SMOOTH"
);
},
{
closed = 1;
nodes = (
"213.565 102 OFFCURVE",
"193 249.672 OFFCURVE",
"193 368 CURVE SMOOTH",
"193 490.915 OFFCURVE",
"232.889 588 OFFCURVE",
"342 588 CURVE SMOOTH",
"451.121 588 OFFCURVE",
"494 485.956 OFFCURVE",
"494 342 CURVE SMOOTH",
"494 197.282 OFFCURVE",
"449.803 102 OFFCURVE",
"345 102 CURVE SMOOTH"
);
},
{
closed = 1;
nodes = (
"290 806 LINE",
"275 780 OFFCURVE",
"289 758 OFFCURVE",
"324 758 CURVE SMOOTH",
"372 758 LINE SMOOTH",
"389 758 OFFCURVE",
"410 768 OFFCURVE",
"418 777 CURVE",
"490 881 LINE",
"489 880 LINE",
"504 901 OFFCURVE",
"499 924 OFFCURVE",
"459 924 CURVE SMOOTH",
"381 924 LINE SMOOTH",
"362 924 OFFCURVE",
"341 913 OFFCURVE",
"334 901 CURVE"
);
}
);
width = 692;
}
);
unicode = 00D3;
},
{
glyphname = Obreve;
lastChange = "2013-07-17 13:34:01 +0000";
layers = (
{
layerId = "EBCDC205-C9A0-423C-849D-CA5F62F08A5E";
name = Regular;
paths = (
{
closed = 1;
nodes = (
"13 94.9935 OFFCURVE",
"130.955 -32 OFFCURVE",
"333 -32 CURVE SMOOTH",
"528.302 -32 OFFCURVE",
"679 102.007 OFFCURVE",
"679 361 CURVE SMOOTH",
"679 673.929 OFFCURVE",
"461.821 716 OFFCURVE",
"354 716 CURVE SMOOTH",
"213.695 716 OFFCURVE",
"13 629.398 OFFCURVE",
"13 333 CURVE SMOOTH"
);
},
{
closed = 1;
nodes = (
"213.565 102 OFFCURVE",
"193 249.672 OFFCURVE",
"193 368 CURVE SMOOTH",
"193 490.915 OFFCURVE",
"232.889 588 OFFCURVE",
"342 588 CURVE SMOOTH",
"451.121 588 OFFCURVE",
"494 485.956 OFFCURVE",
"494 342 CURVE SMOOTH",
"494 197.282 OFFCURVE",
"449.803 102 OFFCURVE",
"345 102 CURVE SMOOTH"
);
},
{
closed = 1;
nodes = (
"314 866 OFFCURVE",
"304 872 OFFCURVE",
"299 893 CURVE SMOOTH",
"293 916 OFFCURVE",
"279 927 OFFCURVE",
"246 927 CURVE SMOOTH",
"214 927 LINE SMOOTH",
"180 927 OFFCURVE",
"165 913 OFFCURVE",
"165 888 CURVE SMOOTH",
"167 803 OFFCURVE",
"236 750 OFFCURVE",
"358 750 CURVE SMOOTH",
"473 750 OFFCURVE",
"547 801 OFFCURVE",
"554 886 CURVE SMOOTH",
"556 912 OFFCURVE",
"540 927 OFFCURVE",
"506 927 CURVE SMOOTH",
"475 927 LINE SMOOTH",
"448 927 OFFCURVE",
"427 914 OFFCURVE",
"420 894 CURVE SMOOTH",
"413 869 OFFCURVE",
"404 866 OFFCURVE",
"361 866 CURVE SMOOTH"
);
}
);
width = 692;
}
);
unicode = 014E;
},
{
glyphname = Ocircumflex;
lastChange = "2013-07-17 13:34:11 +0000";
layers = (
{
layerId = "EBCDC205-C9A0-423C-849D-CA5F62F08A5E";
name = Regular;
paths = (
{
closed = 1;
nodes = (
"13 94.9935 OFFCURVE",
"130.955 -32 OFFCURVE",
"333 -32 CURVE SMOOTH",
"528.302 -32 OFFCURVE",
"679 102.007 OFFCURVE",
"679 361 CURVE SMOOTH",
"679 673.929 OFFCURVE",
"461.821 716 OFFCURVE",
"354 716 CURVE SMOOTH",
"213.695 716 OFFCURVE",
"13 629.398 OFFCURVE",
"13 333 CURVE SMOOTH"
);
},
{
closed = 1;
nodes = (
"213.565 102 OFFCURVE",
"193 249.672 OFFCURVE",
"193 368 CURVE SMOOTH",
"193 490.915 OFFCURVE",
"232.889 588 OFFCURVE",
"342 588 CURVE SMOOTH",
"451.121 588 OFFCURVE",
"494 485.956 OFFCURVE",
"494 342 CURVE SMOOTH",
"494 197.282 OFFCURVE",
"449.803 102 OFFCURVE",
"345 102 CURVE SMOOTH"
);
},
{
closed = 1;
nodes = (
"273 762 LINE SMOOTH",
"292 762 OFFCURVE",
"314 773 OFFCURVE",
"321 782 CURVE SMOOTH",
"354 824 LINE",
"389 781 LINE SMOOTH",
"397 771 OFFCURVE",
"420 762 OFFCURVE",
"437 762 CURVE SMOOTH",
"494 762 LINE SMOOTH",
"532 762 OFFCURVE",
"542 782 OFFCURVE",
"524 806 CURVE SMOOTH",
"442 913 LINE SMOOTH",
"435 922 OFFCURVE",
"413 933 OFFCURVE",
"394 933 CURVE SMOOTH",
"318 933 LINE SMOOTH",
"299 933 OFFCURVE",
"277 922 OFFCURVE",
"270 913 CURVE SMOOTH",
"188 806 LINE SMOOTH",
"170 782 OFFCURVE",
"180 762 OFFCURVE",
"218 762 CURVE SMOOTH"
);
}
);
width = 692;
}
);
unicode = 00D4;
},
{
glyphname = Odieresis;
lastChange = "2013-07-17 11:41:21 +0000";
layers = (
{
layerId = "EBCDC205-C9A0-423C-849D-CA5F62F08A5E";
name = Regular;
paths = (
{
closed = 1;
nodes = (
"533 734 OFFCURVE",
"574 765 OFFCURVE",
"574 816 CURVE SMOOTH",
"574 865 OFFCURVE",
"540 896 OFFCURVE",
"482 896 CURVE SMOOTH",
"428 896 OFFCURVE",
"390 864 OFFCURVE",
"390 816 CURVE SMOOTH",
"390 767 OFFCURVE",
"426 734 OFFCURVE",
"482 734 CURVE SMOOTH"
);
},
{
closed = 1;
nodes = (
"264 736 OFFCURVE",
"305 767 OFFCURVE",
"305 818 CURVE SMOOTH",
"305 867 OFFCURVE",
"271 898 OFFCURVE",
"213 898 CURVE SMOOTH",
"159 898 OFFCURVE",
"121 866 OFFCURVE",
"121 818 CURVE SMOOTH",
"121 769 OFFCURVE",
"157 736 OFFCURVE",
"213 736 CURVE SMOOTH"
);
},
{
closed = 1;
nodes = (
"13 94.994 OFFCURVE",
"130.955 -32 OFFCURVE",
"333 -32 CURVE SMOOTH",
"528.302 -32 OFFCURVE",
"679 102.007 OFFCURVE",
"679 361 CURVE SMOOTH",
"679 673.929 OFFCURVE",
"461.821 716 OFFCURVE",
"354 716 CURVE SMOOTH",
"213.695 716 OFFCURVE",
"13 629.398 OFFCURVE",
"13 333 CURVE SMOOTH"
);
},
{
closed = 1;
nodes = (
"213.565 102 OFFCURVE",
"193 249.672 OFFCURVE",
"193 368 CURVE SMOOTH",
"193 490.915 OFFCURVE",
"232.889 588 OFFCURVE",
"342 588 CURVE SMOOTH",
"451.121 588 OFFCURVE",
"494 485.956 OFFCURVE",
"494 342 CURVE SMOOTH",
"494 197.282 OFFCURVE",
"449.803 102 OFFCURVE",
"345 102 CURVE SMOOTH"
);
}
);
width = 692;
}
);
unicode = 00D6;
},
{
glyphname = Ograve;
lastChange = "2013-07-17 13:34:26 +0000";
layers = (
{
layerId = "EBCDC205-C9A0-423C-849D-CA5F62F08A5E";
name = Regular;
paths = (
{
closed = 1;
nodes = (
"13 94.9935 OFFCURVE",
"130.955 -32 OFFCURVE",
"333 -32 CURVE SMOOTH",
"528.302 -32 OFFCURVE",
"679 102.007 OFFCURVE",
"679 361 CURVE SMOOTH",
"679 673.929 OFFCURVE",
"461.821 716 OFFCURVE",
"354 716 CURVE SMOOTH",
"213.695 716 OFFCURVE",
"13 629.398 OFFCURVE",
"13 333 CURVE SMOOTH"
);
},
{
closed = 1;
nodes = (
"213.565 102 OFFCURVE",
"193 249.672 OFFCURVE",
"193 368 CURVE SMOOTH",
"193 490.915 OFFCURVE",
"232.889 588 OFFCURVE",
"342 588 CURVE SMOOTH",
"451.121 588 OFFCURVE",
"494 485.956 OFFCURVE",
"494 342 CURVE SMOOTH",
"494 197.282 OFFCURVE",
"449.803 102 OFFCURVE",
"345 102 CURVE SMOOTH"
);
},
{
closed = 1;
nodes = (
"391 907 LINE",
"383 923 OFFCURVE",
"366 936 OFFCURVE",
"337 936 CURVE SMOOTH",
"267 936 LINE SMOOTH",
"225 936 OFFCURVE",
"215 916 OFFCURVE",
"235 889 CURVE",
"299 794 LINE",
"300 793 LINE",
"310 780 OFFCURVE",
"330 770 OFFCURVE",
"354 770 CURVE SMOOTH",
"394 770 LINE SMOOTH",
"430 770 OFFCURVE",
"445 789 OFFCURVE",
"432 815 CURVE SMOOTH"
);
}
);
width = 692;
}
);
unicode = 00D2;
},
{
glyphname = Ohungarumlaut;
lastChange = "2013-07-17 13:34:45 +0000";
layers = (
{
layerId = "EBCDC205-C9A0-423C-849D-CA5F62F08A5E";
name = Regular;
paths = (
{
closed = 1;
nodes = (
"13 94.9935 OFFCURVE",
"130.955 -32 OFFCURVE",
"333 -32 CURVE SMOOTH",
"528.302 -32 OFFCURVE",
"679 102.007 OFFCURVE",
"679 361 CURVE SMOOTH",
"679 673.929 OFFCURVE",
"461.821 716 OFFCURVE",
"354 716 CURVE SMOOTH",
"213.695 716 OFFCURVE",
"13 629.398 OFFCURVE",
"13 333 CURVE SMOOTH"
);
},
{
closed = 1;
nodes = (
"213.565 102 OFFCURVE",
"193 249.672 OFFCURVE",
"193 368 CURVE SMOOTH",
"193 490.915 OFFCURVE",
"232.889 588 OFFCURVE",
"342 588 CURVE SMOOTH",
"451.121 588 OFFCURVE",
"494 485.956 OFFCURVE",
"494 342 CURVE SMOOTH",
"494 197.282 OFFCURVE",
"449.803 102 OFFCURVE",
"345 102 CURVE SMOOTH"
);
},
{
closed = 1;
nodes = (
"369 806 LINE",
"354 780 OFFCURVE",
"368 758 OFFCURVE",
"403 758 CURVE SMOOTH",
"441 758 LINE SMOOTH",
"458 758 OFFCURVE",
"479 768 OFFCURVE",
"487 777 CURVE",
"559 881 LINE",
"558 880 LINE",
"573 901 OFFCURVE",
"568 924 OFFCURVE",
"528 924 CURVE SMOOTH",
"460 924 LINE SMOOTH",
"441 924 OFFCURVE",
"420 913 OFFCURVE",
"413 901 CURVE"
);
},
{
closed = 1;
nodes = (
"187 806 LINE",
"172 780 OFFCURVE",
"186 758 OFFCURVE",
"221 758 CURVE SMOOTH",
"259 758 LINE SMOOTH",
"276 758 OFFCURVE",
"297 768 OFFCURVE",
"305 777 CURVE",
"377 881 LINE",
"376 880 LINE",
"391 901 OFFCURVE",
"386 924 OFFCURVE",
"346 924 CURVE SMOOTH",
"278 924 LINE SMOOTH",
"259 924 OFFCURVE",
"238 913 OFFCURVE",
"231 901 CURVE"
);
}
);
width = 692;
}
);
unicode = 0150;
},
{
glyphname = Omacron;
lastChange = "2013-07-17 11:41:43 +0000";
layers = (
{
layerId = "EBCDC205-C9A0-423C-849D-CA5F62F08A5E";
name = Regular;
paths = (
{
closed = 1;
nodes = (
"13 94.9935 OFFCURVE",
"130.955 -32 OFFCURVE",
"333 -32 CURVE SMOOTH",
"528.302 -32 OFFCURVE",
"679 102.007 OFFCURVE",
"679 361 CURVE SMOOTH",
"679 673.929 OFFCURVE",
"461.821 716 OFFCURVE",
"354 716 CURVE SMOOTH",
"213.695 716 OFFCURVE",
"13 629.398 OFFCURVE",
"13 333 CURVE SMOOTH"
);
},
{
closed = 1;
nodes = (
"213.565 102 OFFCURVE",
"193 249.672 OFFCURVE",
"193 368 CURVE SMOOTH",
"193 490.915 OFFCURVE",
"232.889 588 OFFCURVE",
"342 588 CURVE SMOOTH",
"451.121 588 OFFCURVE",
"494 485.956 OFFCURVE",
"494 342 CURVE SMOOTH",
"494 197.282 OFFCURVE",
"449.803 102 OFFCURVE",
"345 102 CURVE SMOOTH"
);
},
{
closed = 1;
nodes = (
"476 754 LINE SMOOTH",
"510 754 OFFCURVE",
"525 768 OFFCURVE",
"525 793 CURVE SMOOTH",
"525 836 LINE SMOOTH",
"525 861 OFFCURVE",
"510 875 OFFCURVE",
"476 875 CURVE SMOOTH",
"216 875 LINE SMOOTH",
"182 875 OFFCURVE",
"167 861 OFFCURVE",
"167 836 CURVE SMOOTH",
"167 793 LINE SMOOTH",
"167 768 OFFCURVE",
"182 754 OFFCURVE",
"216 754 CURVE SMOOTH"
);
}
);
width = 692;
}
);
unicode = 014C;
},
{
glyphname = Oslash;
lastChange = "2013-07-17 13:29:48 +0000";
layers = (
{
anchors = (
{
name = top;
position = "{346, 679}";
}
);
layerId = "EBCDC205-C9A0-423C-849D-CA5F62F08A5E";
name = Regular;
paths = (
{
closed = 1;
nodes = (
"13 180.63 OFFCURVE",
"62.6251 70.8534 OFFCURVE",
"155.809 12.3381 CURVE",
"128.883 -60 LINE SMOOTH",
"119.188 -87 OFFCURVE",
"132.879 -105 OFFCURVE",
"170 -105 CURVE SMOOTH",
"200 -105 LINE SMOOTH",
"228.667 -105 OFFCURVE",
"247.647 -91 OFFCURVE",
"253.46 -73 CURVE SMOOTH",
"270.336 -27 LINE",
"290.203 -30 OFFCURVE",
"311.826 -32 OFFCURVE",
"333 -32 CURVE SMOOTH",
"528.302 -32 OFFCURVE",
"679 102.007 OFFCURVE",
"679 361 CURVE SMOOTH",
"679 539.274 OFFCURVE",
"612.946 627.275 OFFCURVE",
"529.429 674.415 CURVE",
"552.15 736.086 LINE SMOOTH",
"561.812 763.041 OFFCURVE",
"548.121 781 OFFCURVE",
"511 781 CURVE SMOOTH",
"480 781 LINE SMOOTH",
"451.333 781 OFFCURVE",
"432.353 766.765 OFFCURVE",
"426.54 749.325 CURVE",
"412.481 712.178 LINE",
"391.559 714.898 OFFCURVE",
"370.946 716 OFFCURVE",
"354 716 CURVE SMOOTH",
"213.695 716 OFFCURVE",
"13 629.398 OFFCURVE",
"13 333 CURVE SMOOTH"
);
},
{
closed = 1;
nodes = (
"335.533 102 OFFCURVE",
"327.215 102.668 OFFCURVE",
"319.149 104.074 CURVE",
"466.547 503.911 LINE",
"484.811 462.029 OFFCURVE",
"494 404.819 OFFCURVE",
"494 342 CURVE SMOOTH",
"494 197.282 OFFCURVE",
"449.803 102 OFFCURVE",
"345 102 CURVE SMOOTH"
);
},
{
closed = 1;
nodes = (
"193 490.915 OFFCURVE",
"232.889 588 OFFCURVE",
"342 588 CURVE SMOOTH",
"351.084 588 OFFCURVE",
"358.967 587.53 OFFCURVE",
"366.655 586.395 CURVE",
"220.023 188.635 LINE",
"198.873 240.22 OFFCURVE",
"193 309.721 OFFCURVE",
"193 368 CURVE SMOOTH"
);
}
);
width = 692;
}
);
unicode = 00D8;
},
{
glyphname = Oslashacute;
lastChange = "2013-07-17 13:12:37 +0000";
layers = (
{
layerId = "EBCDC205-C9A0-423C-849D-CA5F62F08A5E";
name = Regular;
paths = (
{
closed = 1;
nodes = (
"13 180.63 OFFCURVE",
"62.6251 70.8534 OFFCURVE",
"155.809 12.3381 CURVE",
"128.883 -60 LINE SMOOTH",
"119.188 -87 OFFCURVE",
"132.879 -105 OFFCURVE",
"170 -105 CURVE SMOOTH",
"200 -105 LINE SMOOTH",
"228.667 -105 OFFCURVE",
"247.647 -91 OFFCURVE",
"253.46 -73 CURVE SMOOTH",
"270.336 -27 LINE",
"290.203 -30 OFFCURVE",
"311.826 -32 OFFCURVE",
"333 -32 CURVE SMOOTH",
"528.302 -32 OFFCURVE",
"679 102.007 OFFCURVE",
"679 361 CURVE SMOOTH",
"679 539.274 OFFCURVE",
"612.946 627.275 OFFCURVE",
"529.429 674.415 CURVE",
"552.15 736.086 LINE SMOOTH",
"561.812 763.041 OFFCURVE",
"548.121 781 OFFCURVE",
"511 781 CURVE SMOOTH",
"480 781 LINE SMOOTH",
"451.333 781 OFFCURVE",
"432.353 766.765 OFFCURVE",
"426.54 749.325 CURVE",
"412.481 712.178 LINE",
"391.559 714.898 OFFCURVE",
"371 716 OFFCURVE",
"354 716 CURVE SMOOTH",
"214 716 OFFCURVE",
"13 629.398 OFFCURVE",
"13 333 CURVE SMOOTH"
);
},
{
closed = 1;
nodes = (
"335.533 102 OFFCURVE",
"327.215 102.668 OFFCURVE",
"319.149 104.074 CURVE",
"466.547 503.911 LINE",
"484.811 462.029 OFFCURVE",
"494 404.819 OFFCURVE",
"494 342 CURVE SMOOTH",
"494 197.282 OFFCURVE",
"449.803 102 OFFCURVE",
"345 102 CURVE SMOOTH"
);
},
{
closed = 1;
nodes = (
"193 490.915 OFFCURVE",
"232.889 588 OFFCURVE",
"342 588 CURVE SMOOTH",
"351.084 588 OFFCURVE",
"358.967 587.53 OFFCURVE",
"366.655 586.395 CURVE",
"220.023 188.635 LINE",
"198.873 240.22 OFFCURVE",
"193 309.721 OFFCURVE",
"193 368 CURVE SMOOTH"
);
},
{
closed = 1;
nodes = (
"269 792 LINE",
"254 766 OFFCURVE",
"268 744 OFFCURVE",
"303 744 CURVE SMOOTH",
"351 744 LINE SMOOTH",
"368 744 OFFCURVE",
"389 754 OFFCURVE",
"397 763 CURVE",
"469 867 LINE",
"468 866 LINE",
"483 887 OFFCURVE",
"478 910 OFFCURVE",
"438 910 CURVE SMOOTH",
"360 910 LINE SMOOTH",
"341 910 OFFCURVE",
"320 899 OFFCURVE",
"313 887 CURVE"
);
}
);
width = 692;
}
);
unicode = 01FE;
},
{
glyphname = Otilde;
lastChange = "2013-07-17 11:41:53 +0000";
layers = (
{
layerId = "EBCDC205-C9A0-423C-849D-CA5F62F08A5E";
name = Regular;
paths = (
{
closed = 1;
nodes = (
"13 94.9935 OFFCURVE",
"130.955 -32 OFFCURVE",
"333 -32 CURVE SMOOTH",
"528.302 -32 OFFCURVE",
"679 102.007 OFFCURVE",
"679 361 CURVE SMOOTH",
"679 673.929 OFFCURVE",
"461.821 716 OFFCURVE",
"354 716 CURVE SMOOTH",
"213.695 716 OFFCURVE",
"13 629.398 OFFCURVE",
"13 333 CURVE SMOOTH"
);
},
{
closed = 1;
nodes = (
"213.565 102 OFFCURVE",
"193 249.672 OFFCURVE",
"193 368 CURVE SMOOTH",
"193 490.915 OFFCURVE",
"232.889 588 OFFCURVE",
"342 588 CURVE SMOOTH",
"451.121 588 OFFCURVE",
"494 485.956 OFFCURVE",
"494 342 CURVE SMOOTH",
"494 197.282 OFFCURVE",
"449.803 102 OFFCURVE",
"345 102 CURVE SMOOTH"
);
},
{
closed = 1;
nodes = (
"209 895 OFFCURVE",
"146 876 OFFCURVE",
"146 781 CURVE SMOOTH",
"146 770 OFFCURVE",
"155 747 OFFCURVE",
"188 747 CURVE SMOOTH",
"219 747 LINE SMOOTH",
"242 747 OFFCURVE",
"261 754 OFFCURVE",
"261 777 CURVE SMOOTH",
"261 818 OFFCURVE",
"222 779 OFFCURVE",
"261 779 CURVE SMOOTH",
"288 779 OFFCURVE",
"373 741 OFFCURVE",
"440 741 CURVE SMOOTH",
"497 741 OFFCURVE",
"546 778 OFFCURVE",
"546 860 CURVE SMOOTH",
"546 871 OFFCURVE",
"537 894 OFFCURVE",
"504 894 CURVE SMOOTH",
"480 894 LINE SMOOTH",
"458 894 OFFCURVE",
"435 887 OFFCURVE",
"435 861 CURVE SMOOTH",
"435 852 OFFCURVE",
"446 854 OFFCURVE",
"431 854 CURVE SMOOTH",
"393 854 OFFCURVE",
"310 895 OFFCURVE",
"249 895 CURVE SMOOTH"
);
}
);
width = 692;
}
);
unicode = 00D5;
},
{
glyphname = OE;
lastChange = "2013-07-17 13:29:48 +0000";
layers = (
{
anchors = (
{
name = top;
position = "{488, 679}";
}
);
layerId = "EBCDC205-C9A0-423C-849D-CA5F62F08A5E";
name = Regular;
paths = (
{
closed = 1;
nodes = (
"823.75 579 LINE",
"821.057 535.228 LINE SMOOTH",
"819.366 509.822 OFFCURVE",
"834.513 495 OFFCURVE",
"869 495 CURVE SMOOTH",
"917 495 LINE SMOOTH",
"951.487 495 OFFCURVE",
"966 509.448 OFFCURVE",
"966 534 CURVE SMOOTH",
"966 660 LINE SMOOTH",
"966 684.552 OFFCURVE",
"951.487 699 OFFCURVE",
"917 699 CURVE SMOOTH",
"553 699 LINE SMOOTH",
"518.513 699 OFFCURVE",
"504 684.552 OFFCURVE",
"504 660 CURVE",
"504 686.816 LINE",
"455 709.478 OFFCURVE",
"400.915 716 OFFCURVE",
"361 716 CURVE SMOOTH",
"220.428 716 OFFCURVE",
"20 626.164 OFFCURVE",
"20 330 CURVE SMOOTH",
"20 91.8615 OFFCURVE",
"138.2 -32 OFFCURVE",
"340 -32 CURVE SMOOTH",
"398.952 -32 OFFCURVE",
"456.842 -20 OFFCURVE",
"504 4.44305 CURVE",
"504 19 LINE",
"504 -6 OFFCURVE",
"518.513 -20 OFFCURVE",
"553 -20 CURVE SMOOTH",
"937 -20 LINE SMOOTH",
"971.487 -20 OFFCURVE",
"986 -6 OFFCURVE",
"986 19 CURVE SMOOTH",
"986 145 LINE SMOOTH",
"986 169.552 OFFCURVE",
"971.487 184 OFFCURVE",
"937 184 CURVE SMOOTH",
"889 184 LINE SMOOTH",
"854.513 184 OFFCURVE",
"839.366 169.178 OFFCURVE",
"841.066 143.67 CURVE SMOOTH",
"843.71 102 LINE",
"676 102 LINE",
"676 288 LINE",
"762.613 288 LINE",
"761.069 265.36 LINE SMOOTH",
"759.366 239.822 OFFCURVE",
"774.513 225 OFFCURVE",
"809 225 CURVE SMOOTH",
"857 225 LINE SMOOTH",
"891.487 225 OFFCURVE",
"906 239.448 OFFCURVE",
"906 264 CURVE SMOOTH",
"906 433 LINE SMOOTH",
"906 457.552 OFFCURVE",
"891.487 472 OFFCURVE",
"857 472 CURVE SMOOTH",
"809 472 LINE SMOOTH",
"774.513 472 OFFCURVE",
"759.366 457.178 OFFCURVE",
"761.066 431.67 CURVE SMOOTH",
"763.262 406 LINE",
"676 406 LINE",
"676 579 LINE"
);
},
{
closed = 1;
nodes = (
"200 486.987 OFFCURVE",
"240.105 588 OFFCURVE",
"349 588 CURVE SMOOTH",
"457.911 588 OFFCURVE",
"501 482.027 OFFCURVE",
"501 339 CURVE SMOOTH",
"501 198.26 OFFCURVE",
"456.742 102 OFFCURVE",
"352 102 CURVE SMOOTH",
"220.521 102 OFFCURVE",
"200 246.683 OFFCURVE",
"200 368 CURVE SMOOTH"
);
}
);
width = 976;
}
);
unicode = 0152;
},
{
glyphname = P;
lastChange = "2013-07-17 11:28:35 +0000";
layers = (
{
layerId = "EBCDC205-C9A0-423C-849D-CA5F62F08A5E";
name = Regular;
paths = (
{
closed = 1;
nodes = (
"10 15 LINE SMOOTH",
"10 -7 OFFCURVE",
"27.5655 -20 OFFCURVE",
"55 -20 CURVE SMOOTH",
"302 -20 LINE SMOOTH",
"329.435 -20 OFFCURVE",
"347 -7 OFFCURVE",
"347 15 CURVE SMOOTH",
"347 64 LINE SMOOTH",
"347 83.6158 OFFCURVE",
"331.513 99 OFFCURVE",
"302 99 CURVE SMOOTH",
"249 99 LINE",
"249 251.799 LINE",
"288 251 LINE SMOOTH",
"456.635 251 OFFCURVE",
"560 346.189 OFFCURVE",
"560 490 CURVE SMOOTH",
"560 633.73 OFFCURVE",
"451.671 705 OFFCURVE",
"264 705 CURVE SMOOTH",
"205.416 705 OFFCURVE",
"117.691 701.979 OFFCURVE",
"53.94 698.994 CURVE",
"22.1678 698.64 OFFCURVE",
"10 682.354 OFFCURVE",
"10 664 CURVE SMOOTH",
"10 614 LINE SMOOTH",
"10 594.384 OFFCURVE",
"25.4869 579 OFFCURVE",
"55 579 CURVE SMOOTH",
"77 579 LINE",
"77 99 LINE",
"55 99 LINE SMOOTH",
"25.4869 99 OFFCURVE",
"10 83.6158 OFFCURVE",
"10 64 CURVE SMOOTH"
);
},
{
closed = 1;
nodes = (
"249 582 LINE",
"255 582 LINE SMOOTH",
"329.478 582 OFFCURVE",
"385 567.772 OFFCURVE",
"385 483 CURVE SMOOTH",
"385 395.492 OFFCURVE",
"338.686 370 OFFCURVE",
"265 370 CURVE SMOOTH",
"249 370.013 LINE"
);
}
);
width = 565;
}
);
unicode = 0050;
},
{
glyphname = Thorn;
lastChange = "2013-07-17 11:28:35 +0000";
layers = (
{
layerId = "EBCDC205-C9A0-423C-849D-CA5F62F08A5E";
name = Regular;
paths = (
{
closed = 1;
nodes = (
"298 -20 LINE SMOOTH",
"332.487 -20 OFFCURVE",
"347 -6 OFFCURVE",
"347 19 CURVE SMOOTH",
"347 61 LINE SMOOTH",
"347 82.4434 OFFCURVE",
"335.124 97.1846 OFFCURVE",
"308.514 99 CURVE",
"249 99 LINE",
"249 137.576 LINE",
"283 137 LINE SMOOTH",
"442.334 137 OFFCURVE",
"560 220.731 OFFCURVE",
"560 374 CURVE SMOOTH",
"560 518.729 OFFCURVE",
"454.673 588 OFFCURVE",
"267 588 CURVE SMOOTH",
"249 588 LINE",
"249 579 LINE",
"264.702 579 LINE",
"299.635 576.891 OFFCURVE",
"315 592.61 OFFCURVE",
"315 617 CURVE SMOOTH",
"315 660 LINE SMOOTH",
"315 684.552 OFFCURVE",
"300.487 699 OFFCURVE",
"266 699 CURVE SMOOTH",
"59 699 LINE SMOOTH",
"24.5129 699 OFFCURVE",
"10 684.552 OFFCURVE",
"10 660 CURVE SMOOTH",
"10 617 LINE SMOOTH",
"10 595.557 OFFCURVE",
"21.8765 580.815 OFFCURVE",
"48.4861 579 CURVE",
"77 579 LINE",
"77 99 LINE",
"60.2984 99 LINE",
"25.3649 101.109 OFFCURVE",
"10 85.3902 OFFCURVE",
"10 61 CURVE SMOOTH",
"10 19 LINE SMOOTH",
"10 -6 OFFCURVE",
"24.5129 -20 OFFCURVE",
"59 -20 CURVE SMOOTH"
);
},
{
closed = 1;
nodes = (
"269 463 LINE SMOOTH",
"341.723 463 OFFCURVE",
"385 447.635 OFFCURVE",
"385 366 CURVE SMOOTH",
"385 279.111 OFFCURVE",
"344.117 256 OFFCURVE",
"250 256 CURVE SMOOTH",
"249 256 LINE",
"249 463 LINE"
);
}
);
width = 565;
}
);
unicode = 00DE;
},
{
glyphname = Q;
lastChange = "2013-07-17 11:28:35 +0000";
layers = (
{
layerId = "EBCDC205-C9A0-423C-849D-CA5F62F08A5E";
name = Regular;
paths = (
{
closed = 1;
nodes = (
"13 93.9502 OFFCURVE",
"131.036 -32 OFFCURVE",
"333 -32 CURVE SMOOTH",
"336.623 -32 LINE",
"375.509 -99 OFFCURVE",
"454.207 -146 OFFCURVE",
"515.229 -178 CURVE SMOOTH",
"528.812 -185 OFFCURVE",
"558.452 -185 OFFCURVE",
"572.186 -172 CURVE",
"600.013 -138 LINE",
"612.528 -121 OFFCURVE",
"612.098 -111 OFFCURVE",
"591.755 -93 CURVE SMOOTH",
"562.544 -68 OFFCURVE",
"529.656 -29 OFFCURVE",
"513.767 16.0477 CURVE",
"613.749 77.769 OFFCURVE",
"679 192.945 OFFCURVE",
"679 360 CURVE SMOOTH",
"679 672.812 OFFCURVE",
"461.922 716 OFFCURVE",
"354 716 CURVE SMOOTH",
"213.605 716 OFFCURVE",
"13 628.319 OFFCURVE",
"13 332 CURVE SMOOTH"
);
},
{
closed = 1;
nodes = (
"213.551 102 OFFCURVE",
"193 248.675 OFFCURVE",
"193 367 CURVE SMOOTH",
"193 489.933 OFFCURVE",
"232.944 588 OFFCURVE",
"342 588 CURVE SMOOTH",
"451.068 588 OFFCURVE",
"494 484.974 OFFCURVE",
"494 341 CURVE SMOOTH",
"494 196.304 OFFCURVE",
"449.866 102 OFFCURVE",
"345 102 CURVE SMOOTH"
);
}
);
width = 692;
}
);
unicode = 0051;
},
{
glyphname = R;
lastChange = "2013-07-17 13:29:48 +0000";
layers = (
{
anchors = (
{
name = bottom;
position = "{308, 0}";
},
{
name = top;
position = "{308, 679}";
}
);
layerId = "EBCDC205-C9A0-423C-849D-CA5F62F08A5E";
name = Regular;
paths = (
{
closed = 1;
nodes = (
"10 15 LINE SMOOTH",
"10 -7 OFFCURVE",
"27.5655 -20 OFFCURVE",
"55 -20 CURVE SMOOTH",
"282 -20 LINE SMOOTH",
"312.507 -20 OFFCURVE",
"327 -6 OFFCURVE",
"327 15 CURVE SMOOTH",
"327 64 LINE SMOOTH",
"327 83.6158 OFFCURVE",
"311.513 99 OFFCURVE",
"282 99 CURVE SMOOTH",
"249 99 LINE",
"249 262.517 LINE",
"276 262 LINE",
"274.776 262 LINE",
"405.227 3.97619 LINE",
"411.251 -7 OFFCURVE",
"431.397 -20 OFFCURVE",
"454 -20 CURVE SMOOTH",
"586 -20 LINE SMOOTH",
"613.435 -20 OFFCURVE",
"631 -7 OFFCURVE",
"631 15 CURVE SMOOTH",
"631 64 LINE SMOOTH",
"631 83.6158 OFFCURVE",
"615.513 99 OFFCURVE",
"586 99 CURVE SMOOTH",
"545.178 99 LINE",
"441.706 302.407 LINE",
"511.148 343.053 OFFCURVE",
"558 413.766 OFFCURVE",
"558 499 CURVE SMOOTH",
"558 638.837 OFFCURVE",
"455.523 705 OFFCURVE",
"268 705 CURVE SMOOTH",
"209.447 705 OFFCURVE",
"117.736 701.98 OFFCURVE",
"53.9404 698.994 CURVE",
"24.1572 698.664 OFFCURVE",
"10 684.36 OFFCURVE",
"10 664 CURVE SMOOTH",
"10 614 LINE SMOOTH",
"10 594.384 OFFCURVE",
"25.4869 579 OFFCURVE",
"55 579 CURVE SMOOTH",
"77 579 LINE",
"77 99 LINE",
"55 99 LINE SMOOTH",
"25.4869 99 OFFCURVE",
"10 83.6158 OFFCURVE",
"10 64 CURVE SMOOTH"
);
},
{
closed = 1;
nodes = (
"249 582 LINE",
"255 582 LINE SMOOTH",
"329.122 582 OFFCURVE",
"383 567.164 OFFCURVE",
"383 488 CURVE SMOOTH",
"383 411.138 OFFCURVE",
"334.843 380 OFFCURVE",
"242 380 CURVE",
"249 379.985 LINE"
);
}
);
width = 616;
}
);
unicode = 0052;
},
{
glyphname = Racute;
lastChange = "2013-07-17 13:12:55 +0000";
layers = (
{
layerId = "EBCDC205-C9A0-423C-849D-CA5F62F08A5E";
name = Regular;
paths = (
{
closed = 1;
nodes = (
"10 15 LINE SMOOTH",
"10 -7 OFFCURVE",
"27.5655 -20 OFFCURVE",
"55 -20 CURVE SMOOTH",
"282 -20 LINE SMOOTH",
"312.507 -20 OFFCURVE",
"327 -6 OFFCURVE",
"327 15 CURVE SMOOTH",
"327 64 LINE SMOOTH",
"327 83.6158 OFFCURVE",
"311.513 99 OFFCURVE",
"282 99 CURVE SMOOTH",
"249 99 LINE",
"249 262.517 LINE",
"276 262 LINE",
"274.776 262 LINE",
"405.227 3.97619 LINE",
"411.251 -7 OFFCURVE",
"431.397 -20 OFFCURVE",
"454 -20 CURVE SMOOTH",
"586 -20 LINE SMOOTH",
"613.435 -20 OFFCURVE",
"631 -7 OFFCURVE",
"631 15 CURVE SMOOTH",
"631 64 LINE SMOOTH",
"631 83.6158 OFFCURVE",
"615.513 99 OFFCURVE",
"586 99 CURVE SMOOTH",
"545.178 99 LINE",
"441.706 302.407 LINE",
"511.148 343.053 OFFCURVE",
"558 413.766 OFFCURVE",
"558 499 CURVE SMOOTH",
"558 638.837 OFFCURVE",
"455.523 705 OFFCURVE",
"268 705 CURVE SMOOTH",
"209.447 705 OFFCURVE",
"117.736 701.98 OFFCURVE",
"53.9404 698.994 CURVE",
"24.1572 698.664 OFFCURVE",
"10 684.36 OFFCURVE",
"10 664 CURVE SMOOTH",
"10 614 LINE SMOOTH",
"10 594.384 OFFCURVE",
"25.4869 579 OFFCURVE",
"55 579 CURVE SMOOTH",
"77 579 LINE",
"77 99 LINE",
"55 99 LINE SMOOTH",
"25.4869 99 OFFCURVE",
"10 83.6158 OFFCURVE",
"10 64 CURVE SMOOTH"
);
},
{
closed = 1;
nodes = (
"249 582 LINE",
"255 582 LINE SMOOTH",
"329.122 582 OFFCURVE",
"383 567.164 OFFCURVE",
"383 488 CURVE SMOOTH",
"383 411.138 OFFCURVE",
"334.843 380 OFFCURVE",
"242 380 CURVE",
"249 379.985 LINE"
);
},
{
closed = 1;
nodes = (
"194 783 LINE",
"179 757 OFFCURVE",
"193 735 OFFCURVE",
"228 735 CURVE SMOOTH",
"276 735 LINE SMOOTH",
"293 735 OFFCURVE",
"314 745 OFFCURVE",
"322 754 CURVE",
"394 858 LINE",
"393 857 LINE",
"408 878 OFFCURVE",
"403 901 OFFCURVE",
"363 901 CURVE SMOOTH",
"285 901 LINE SMOOTH",
"266 901 OFFCURVE",
"245 890 OFFCURVE",
"238 878 CURVE"
);
}
);
width = 616;
}
);
unicode = 0154;
},
{
glyphname = Rcaron;
lastChange = "2013-07-17 11:42:04 +0000";
layers = (
{
layerId = "EBCDC205-C9A0-423C-849D-CA5F62F08A5E";
name = Regular;
paths = (
{
closed = 1;
nodes = (
"10 15 LINE SMOOTH",
"10 -7 OFFCURVE",
"27.5655 -20 OFFCURVE",
"55 -20 CURVE SMOOTH",
"282 -20 LINE SMOOTH",
"312.507 -20 OFFCURVE",
"327 -6 OFFCURVE",
"327 15 CURVE SMOOTH",
"327 64 LINE SMOOTH",
"327 83.6158 OFFCURVE",
"311.513 99 OFFCURVE",
"282 99 CURVE SMOOTH",
"249 99 LINE",
"249 262.517 LINE",
"276 262 LINE",
"274.776 262 LINE",
"405.227 3.97619 LINE",
"411.251 -7 OFFCURVE",
"431.397 -20 OFFCURVE",
"454 -20 CURVE SMOOTH",
"586 -20 LINE SMOOTH",
"613.435 -20 OFFCURVE",
"631 -7 OFFCURVE",
"631 15 CURVE SMOOTH",
"631 64 LINE SMOOTH",
"631 83.6158 OFFCURVE",
"615.513 99 OFFCURVE",
"586 99 CURVE SMOOTH",
"545.178 99 LINE",
"441.706 302.407 LINE",
"511.148 343.053 OFFCURVE",
"558 413.766 OFFCURVE",
"558 499 CURVE SMOOTH",
"558 638.837 OFFCURVE",
"455.523 705 OFFCURVE",
"268 705 CURVE SMOOTH",
"209.447 705 OFFCURVE",
"117.736 701.98 OFFCURVE",
"53.9404 698.994 CURVE",
"24.1572 698.664 OFFCURVE",
"10 684.36 OFFCURVE",
"10 664 CURVE SMOOTH",
"10 614 LINE SMOOTH",
"10 594.384 OFFCURVE",
"25.4869 579 OFFCURVE",
"55 579 CURVE SMOOTH",
"77 579 LINE",
"77 99 LINE",
"55 99 LINE SMOOTH",
"25.4869 99 OFFCURVE",
"10 83.6158 OFFCURVE",
"10 64 CURVE SMOOTH"
);
},
{
closed = 1;
nodes = (
"249 582 LINE",
"255 582 LINE SMOOTH",
"329.122 582 OFFCURVE",
"383 567.164 OFFCURVE",
"383 488 CURVE SMOOTH",
"383 411.138 OFFCURVE",
"334.843 380 OFFCURVE",
"242 380 CURVE",
"249 379.985 LINE"
);
},
{
closed = 1;
nodes = (
"348 899 LINE SMOOTH",
"329 899 OFFCURVE",
"307 888 OFFCURVE",
"300 879 CURVE SMOOTH",
"267 837 LINE",
"232 880 LINE SMOOTH",
"224 890 OFFCURVE",
"201 899 OFFCURVE",
"184 899 CURVE SMOOTH",
"127 899 LINE SMOOTH",
"89 899 OFFCURVE",
"79 879 OFFCURVE",
"97 855 CURVE SMOOTH",
"179 748 LINE SMOOTH",
"186 739 OFFCURVE",
"208 728 OFFCURVE",
"227 728 CURVE SMOOTH",
"303 728 LINE SMOOTH",
"322 728 OFFCURVE",
"344 739 OFFCURVE",
"351 748 CURVE SMOOTH",
"433 855 LINE SMOOTH",
"451 879 OFFCURVE",
"441 899 OFFCURVE",
"403 899 CURVE SMOOTH"
);
}
);
width = 616;
}
);
unicode = 0158;
},
{
glyphname = Rcommaaccent;
lastChange = "2013-07-17 11:28:35 +0000";
layers = (
{
layerId = "EBCDC205-C9A0-423C-849D-CA5F62F08A5E";
name = Regular;
paths = (
{
closed = 1;
nodes = (
"10 15 LINE SMOOTH",
"10 -7 OFFCURVE",
"27.5655 -20 OFFCURVE",
"55 -20 CURVE SMOOTH",
"282 -20 LINE SMOOTH",
"312.507 -20 OFFCURVE",
"327 -6 OFFCURVE",
"327 15 CURVE SMOOTH",
"327 64 LINE SMOOTH",
"327 83.6158 OFFCURVE",
"311.513 99 OFFCURVE",
"282 99 CURVE SMOOTH",
"249 99 LINE",
"249 262.517 LINE",
"276 262 LINE",
"274.776 262 LINE",
"405.227 3.97619 LINE",
"411.251 -7 OFFCURVE",
"431.397 -20 OFFCURVE",
"454 -20 CURVE SMOOTH",
"586 -20 LINE SMOOTH",
"613.435 -20 OFFCURVE",
"631 -7 OFFCURVE",
"631 15 CURVE SMOOTH",
"631 64 LINE SMOOTH",
"631 83.6158 OFFCURVE",
"615.513 99 OFFCURVE",
"586 99 CURVE SMOOTH",
"545.178 99 LINE",
"441.706 302.407 LINE",
"511.148 343.053 OFFCURVE",
"558 413.766 OFFCURVE",
"558 499 CURVE SMOOTH",
"558 638.837 OFFCURVE",
"455.523 705 OFFCURVE",
"268 705 CURVE SMOOTH",
"209.447 705 OFFCURVE",
"117.736 701.98 OFFCURVE",
"53.9404 698.994 CURVE",
"24.1572 698.664 OFFCURVE",
"10 684.36 OFFCURVE",
"10 664 CURVE SMOOTH",
"10 614 LINE SMOOTH",
"10 594.384 OFFCURVE",
"25.4869 579 OFFCURVE",
"55 579 CURVE SMOOTH",
"77 579 LINE",
"77 99 LINE",
"55 99 LINE SMOOTH",
"25.4869 99 OFFCURVE",
"10 83.6158 OFFCURVE",
"10 64 CURVE SMOOTH"
);
},
{
closed = 1;
nodes = (
"249 582 LINE",
"255 582 LINE SMOOTH",
"329.122 582 OFFCURVE",
"383 567.164 OFFCURVE",
"383 488 CURVE SMOOTH",
"383 411.138 OFFCURVE",
"334.843 380 OFFCURVE",
"242 380 CURVE",
"249 379.985 LINE"
);
},
{
closed = 1;
nodes = (
"358.094 -223 LINE SMOOTH",
"381.935 -185 OFFCURVE",
"399 -156 OFFCURVE",
"399 -123 CURVE SMOOTH",
"399 -76 OFFCURVE",
"362.614 -50 OFFCURVE",
"309 -50 CURVE SMOOTH",
"250.635 -50 OFFCURVE",
"222 -82 OFFCURVE",
"222 -120 CURVE SMOOTH",
"222 -150 OFFCURVE",
"238.035 -170 OFFCURVE",
"250.701 -186 CURVE",
"231.309 -249 LINE",
"231.91 -248 LINE",
"225.119 -266 OFFCURVE",
"226.368 -279 OFFCURVE",
"255.466 -290 CURVE",
"254.462 -289 LINE",
"266.462 -294 LINE SMOOTH",
"284.491 -302 OFFCURVE",
"312.775 -291 OFFCURVE",
"319.412 -282 CURVE"
);
}
);
width = 616;
}
);
unicode = 0156;
},
{
glyphname = S;
lastChange = "2013-07-17 13:29:48 +0000";
layers = (
{
anchors = (
{
name = bottom;
position = "{259, 0}";
},
{
name = top;
position = "{259, 679}";
}
);
layerId = "EBCDC205-C9A0-423C-849D-CA5F62F08A5E";
name = Regular;
paths = (
{
closed = 1;
nodes = (
"116.624 716 OFFCURVE",
"27 615.85 OFFCURVE",
"27 494 CURVE SMOOTH",
"27 366.101 OFFCURVE",
"130.488 316.709 OFFCURVE",
"224.417 285.048 CURVE SMOOTH",
"294.338 261.751 OFFCURVE",
"336 236.241 OFFCURVE",
"336 176 CURVE SMOOTH",
"336 110.622 OFFCURVE",
"296.939 95 OFFCURVE",
"242 95 CURVE SMOOTH",
"210.536 95 OFFCURVE",
"183.633 103.713 OFFCURVE",
"166.348 114.975 CURVE",
"169.965 190.037 LINE",
"171.98 212.324 OFFCURVE",
"153.435 226 OFFCURVE",
"126 226 CURVE SMOOTH",
"70 226 LINE SMOOTH",
"42.5655 226 OFFCURVE",
"25 212.837 OFFCURVE",
"25 191 CURVE SMOOTH",
"25 32 LINE SMOOTH",
"25 15.1545 OFFCURVE",
"30.8065 3.68964 OFFCURVE",
"57.997 -4 CURVE SMOOTH",
"87.1663 -14 OFFCURVE",
"160.515 -32 OFFCURVE",
"237 -32 CURVE SMOOTH",
"409.581 -32 OFFCURVE",
"507 57.157 OFFCURVE",
"507 198 CURVE SMOOTH",
"507 341.768 OFFCURVE",
"380.394 386.656 OFFCURVE",
"293.68 419.69 CURVE SMOOTH",
"222.362 446.643 OFFCURVE",
"196 471.092 OFFCURVE",
"196 521 CURVE SMOOTH",
"196 567.592 OFFCURVE",
"225.258 589 OFFCURVE",
"273 589 CURVE SMOOTH",
"295.517 589 OFFCURVE",
"315.194 583.884 OFFCURVE",
"332.579 575.816 CURVE",
"330.03 518.895 LINE",
"328.02 496.676 OFFCURVE",
"346.565 483 OFFCURVE",
"374 483 CURVE SMOOTH",
"430 483 LINE SMOOTH",
"459.513 483 OFFCURVE",
"475 498.384 OFFCURVE",
"475 518 CURVE SMOOTH",
"475 656 LINE SMOOTH",
"475 673.468 OFFCURVE",
"468.756 685.151 OFFCURVE",
"438.894 693.295 CURVE SMOOTH",
"414.205 700.677 OFFCURVE",
"350.726 716 OFFCURVE",
"283 716 CURVE SMOOTH"
);
}
);
width = 517;
}
);
unicode = 0053;
},
{
glyphname = Sacute;
lastChange = "2013-07-17 13:35:03 +0000";
layers = (
{
layerId = "EBCDC205-C9A0-423C-849D-CA5F62F08A5E";
name = Regular;
paths = (
{
closed = 1;
nodes = (
"116.624 716 OFFCURVE",
"27 615.85 OFFCURVE",
"27 494 CURVE SMOOTH",
"27 366.101 OFFCURVE",
"130.488 316.709 OFFCURVE",
"224.417 285.048 CURVE SMOOTH",
"294.338 261.751 OFFCURVE",
"336 236.241 OFFCURVE",
"336 176 CURVE SMOOTH",
"336 110.622 OFFCURVE",
"296.939 95 OFFCURVE",
"242 95 CURVE SMOOTH",
"210.536 95 OFFCURVE",
"183.633 103.713 OFFCURVE",
"166.348 114.975 CURVE",
"169.965 190.037 LINE",
"171.98 212.324 OFFCURVE",
"153.435 226 OFFCURVE",
"126 226 CURVE SMOOTH",
"70 226 LINE SMOOTH",
"42.5655 226 OFFCURVE",
"25 212.837 OFFCURVE",
"25 191 CURVE SMOOTH",
"25 32 LINE SMOOTH",
"25 15.1545 OFFCURVE",
"30.8065 3.68964 OFFCURVE",
"57.997 -4 CURVE SMOOTH",
"87.1663 -14 OFFCURVE",
"160.515 -32 OFFCURVE",
"237 -32 CURVE SMOOTH",
"409.581 -32 OFFCURVE",
"507 57.157 OFFCURVE",
"507 198 CURVE SMOOTH",
"507 341.768 OFFCURVE",
"380.394 386.656 OFFCURVE",
"293.68 419.69 CURVE SMOOTH",
"222.362 446.643 OFFCURVE",
"196 471.092 OFFCURVE",
"196 521 CURVE SMOOTH",
"196 567.592 OFFCURVE",
"225.258 589 OFFCURVE",
"273 589 CURVE SMOOTH",
"295.517 589 OFFCURVE",
"315.194 583.884 OFFCURVE",
"332.579 575.816 CURVE",
"330.03 518.895 LINE",
"328.02 496.676 OFFCURVE",
"346.565 483 OFFCURVE",
"374 483 CURVE SMOOTH",
"430 483 LINE SMOOTH",
"459.513 483 OFFCURVE",
"475 498.384 OFFCURVE",
"475 518 CURVE SMOOTH",
"475 656 LINE SMOOTH",
"475 673.468 OFFCURVE",
"468.756 685.151 OFFCURVE",
"438.894 693.295 CURVE SMOOTH",
"414.205 700.677 OFFCURVE",
"350.726 716 OFFCURVE",
"283 716 CURVE SMOOTH"
);
},
{
closed = 1;
nodes = (
"212 802 LINE",
"197 776 OFFCURVE",
"211 754 OFFCURVE",
"246 754 CURVE SMOOTH",
"294 754 LINE SMOOTH",
"311 754 OFFCURVE",
"332 764 OFFCURVE",
"340 773 CURVE",
"412 877 LINE",
"411 876 LINE",
"426 897 OFFCURVE",
"421 920 OFFCURVE",
"381 920 CURVE SMOOTH",
"303 920 LINE SMOOTH",
"284 920 OFFCURVE",
"263 909 OFFCURVE",
"256 897 CURVE"
);
}
);
width = 517;
}
);
unicode = 015A;
},
{
glyphname = Scaron;
lastChange = "2013-07-17 13:35:15 +0000";
layers = (
{
layerId = "EBCDC205-C9A0-423C-849D-CA5F62F08A5E";
name = Regular;
paths = (
{
closed = 1;
nodes = (
"116.624 716 OFFCURVE",
"27 615.85 OFFCURVE",
"27 494 CURVE SMOOTH",
"27 366.101 OFFCURVE",
"130.488 316.709 OFFCURVE",
"224.417 285.048 CURVE SMOOTH",
"294.338 261.751 OFFCURVE",
"336 236.241 OFFCURVE",
"336 176 CURVE SMOOTH",
"336 110.622 OFFCURVE",
"296.939 95 OFFCURVE",
"242 95 CURVE SMOOTH",
"210.536 95 OFFCURVE",
"183.633 103.713 OFFCURVE",
"166.348 114.975 CURVE",
"169.965 190.037 LINE",
"171.98 212.324 OFFCURVE",
"153.435 226 OFFCURVE",
"126 226 CURVE SMOOTH",
"70 226 LINE SMOOTH",
"42.5655 226 OFFCURVE",
"25 212.837 OFFCURVE",
"25 191 CURVE SMOOTH",
"25 32 LINE SMOOTH",
"25 15.1545 OFFCURVE",
"30.8065 3.68964 OFFCURVE",
"57.997 -4 CURVE SMOOTH",
"87.1663 -14 OFFCURVE",
"160.515 -32 OFFCURVE",
"237 -32 CURVE SMOOTH",
"409.581 -32 OFFCURVE",
"507 57.157 OFFCURVE",
"507 198 CURVE SMOOTH",
"507 341.768 OFFCURVE",
"380.394 386.656 OFFCURVE",
"293.68 419.69 CURVE SMOOTH",
"222.362 446.643 OFFCURVE",
"196 471.092 OFFCURVE",
"196 521 CURVE SMOOTH",
"196 567.592 OFFCURVE",
"225.258 589 OFFCURVE",
"273 589 CURVE SMOOTH",
"295.517 589 OFFCURVE",
"315.194 583.884 OFFCURVE",
"332.579 575.816 CURVE",
"330.03 518.895 LINE",
"328.02 496.676 OFFCURVE",
"346.565 483 OFFCURVE",
"374 483 CURVE SMOOTH",
"430 483 LINE SMOOTH",
"459.513 483 OFFCURVE",
"475 498.384 OFFCURVE",
"475 518 CURVE SMOOTH",
"475 656 LINE SMOOTH",
"475 673.468 OFFCURVE",
"468.756 685.151 OFFCURVE",
"438.894 693.295 CURVE SMOOTH",
"414.205 700.677 OFFCURVE",
"350.726 716 OFFCURVE",
"283 716 CURVE SMOOTH"
);
},
{
closed = 1;
nodes = (
"355 926 LINE SMOOTH",
"336 926 OFFCURVE",
"314 915 OFFCURVE",
"307 906 CURVE SMOOTH",
"274 864 LINE",
"239 907 LINE",
"231 917 OFFCURVE",
"208 926 OFFCURVE",
"191 926 CURVE SMOOTH",
"134 926 LINE SMOOTH",
"96 926 OFFCURVE",
"86 906 OFFCURVE",
"104 882 CURVE SMOOTH",
"186 775 LINE SMOOTH",
"193 766 OFFCURVE",
"215 755 OFFCURVE",
"234 755 CURVE SMOOTH",
"310 755 LINE SMOOTH",
"329 755 OFFCURVE",
"351 766 OFFCURVE",
"358 775 CURVE SMOOTH",
"440 882 LINE SMOOTH",
"458 906 OFFCURVE",
"448 926 OFFCURVE",
"410 926 CURVE SMOOTH"
);
}
);
width = 517;
}
);
unicode = 0160;
},
{
glyphname = Scedilla;
lastChange = "2013-07-17 11:28:35 +0000";
layers = (
{
layerId = "EBCDC205-C9A0-423C-849D-CA5F62F08A5E";
name = Regular;
paths = (
{
closed = 1;
nodes = (
"116.217 716 OFFCURVE",
"27 611.641 OFFCURVE",
"27 490 CURVE SMOOTH",
"27 361.786 OFFCURVE",
"130.802 314.603 OFFCURVE",
"224.417 283.048 CURVE SMOOTH",
"294.541 259.684 OFFCURVE",
"334 236.057 OFFCURVE",
"334 170 CURVE SMOOTH",
"334 110.419 OFFCURVE",
"296.72 95 OFFCURVE",
"242 95 CURVE SMOOTH",
"210.536 95 OFFCURVE",
"183.633 103.713 OFFCURVE",
"166.348 114.975 CURVE",
"169.965 190.037 LINE",
"171.98 212.324 OFFCURVE",
"153.435 226 OFFCURVE",
"126 226 CURVE SMOOTH",
"70 226 LINE SMOOTH",
"42.5655 226 OFFCURVE",
"25 212.837 OFFCURVE",
"25 191 CURVE SMOOTH",
"25 32 LINE SMOOTH",
"25 15.1885 OFFCURVE",
"30.783 3.73594 OFFCURVE",
"57.8323 -4 CURVE SMOOTH",
"80.6725 -12 OFFCURVE",
"131.578 -24 OFFCURVE",
"189.523 -30 CURVE",
"177.202 -48 LINE SMOOTH",
"160.704 -74 OFFCURVE",
"167.725 -83 OFFCURVE",
"207.718 -112 CURVE",
"195.582 -103 LINE",
"205.283 -110 OFFCURVE",
"206 -111 OFFCURVE",
"206 -124 CURVE SMOOTH",
"206 -136 OFFCURVE",
"200.116 -143 OFFCURVE",
"175.352 -165 CURVE SMOOTH",
"156.075 -181 OFFCURVE",
"153.616 -191 OFFCURVE",
"170.319 -212 CURVE SMOOTH",
"178.574 -222 LINE",
"187.9 -235 OFFCURVE",
"222.622 -241 OFFCURVE",
"239.641 -230 CURVE SMOOTH",
"289.873 -196 OFFCURVE",
"349 -146 OFFCURVE",
"349 -108 CURVE SMOOTH",
"349 -78 OFFCURVE",
"329.772 -56 OFFCURVE",
"300.755 -31 CURVE SMOOTH",
"298.694 -29 LINE",
"300.226 -27 LINE",
"433.986 -7 OFFCURVE",
"507 75.3398 OFFCURVE",
"507 198 CURVE SMOOTH",
"507 343.559 OFFCURVE",
"381.581 389.585 OFFCURVE",
"294.68 422.69 CURVE SMOOTH",
"222.831 449.843 OFFCURVE",
"198 471.513 OFFCURVE",
"198 521 CURVE SMOOTH",
"198 567.874 OFFCURVE",
"225.673 589 OFFCURVE",
"273 589 CURVE SMOOTH",
"295.517 589 OFFCURVE",
"315.194 583.884 OFFCURVE",
"332.579 575.816 CURVE",
"330.03 518.895 LINE",
"328.02 496.676 OFFCURVE",
"346.565 483 OFFCURVE",
"374 483 CURVE SMOOTH",
"430 483 LINE SMOOTH",
"459.513 483 OFFCURVE",
"475 498.384 OFFCURVE",
"475 518 CURVE SMOOTH",
"475 656 LINE SMOOTH",
"475 673.468 OFFCURVE",
"468.756 685.151 OFFCURVE",
"438.894 693.295 CURVE SMOOTH",
"414.205 700.677 OFFCURVE",
"350.726 716 OFFCURVE",
"283 716 CURVE SMOOTH"
);
}
);
width = 517;
}
);
unicode = 015E;
},
{
glyphname = Scircumflex;
lastChange = "2013-07-17 13:35:26 +0000";
layers = (
{
layerId = "EBCDC205-C9A0-423C-849D-CA5F62F08A5E";
name = Regular;
paths = (
{
closed = 1;
nodes = (
"116.624 716 OFFCURVE",
"27 615.85 OFFCURVE",
"27 494 CURVE SMOOTH",
"27 366.101 OFFCURVE",
"130.488 316.709 OFFCURVE",
"224.417 285.048 CURVE SMOOTH",
"294.338 261.751 OFFCURVE",
"336 236.241 OFFCURVE",
"336 176 CURVE SMOOTH",
"336 110.622 OFFCURVE",
"296.939 95 OFFCURVE",
"242 95 CURVE SMOOTH",
"210.536 95 OFFCURVE",
"183.633 103.713 OFFCURVE",
"166.348 114.975 CURVE",
"169.965 190.037 LINE",
"171.98 212.324 OFFCURVE",
"153.435 226 OFFCURVE",
"126 226 CURVE SMOOTH",
"70 226 LINE SMOOTH",
"42.5655 226 OFFCURVE",
"25 212.837 OFFCURVE",
"25 191 CURVE SMOOTH",
"25 32 LINE SMOOTH",
"25 15.1545 OFFCURVE",
"30.8065 3.68964 OFFCURVE",
"57.997 -4 CURVE SMOOTH",
"87.1663 -14 OFFCURVE",
"160.515 -32 OFFCURVE",
"237 -32 CURVE SMOOTH",
"409.581 -32 OFFCURVE",
"507 57.157 OFFCURVE",
"507 198 CURVE SMOOTH",
"507 341.768 OFFCURVE",
"380.394 386.656 OFFCURVE",
"293.68 419.69 CURVE SMOOTH",
"222.362 446.643 OFFCURVE",
"196 471.092 OFFCURVE",
"196 521 CURVE SMOOTH",
"196 567.592 OFFCURVE",
"225.258 589 OFFCURVE",
"273 589 CURVE SMOOTH",
"295.517 589 OFFCURVE",
"315.194 583.884 OFFCURVE",
"332.579 575.816 CURVE",
"330.03 518.895 LINE",
"328.02 496.676 OFFCURVE",
"346.565 483 OFFCURVE",
"374 483 CURVE SMOOTH",
"430 483 LINE SMOOTH",
"459.513 483 OFFCURVE",
"475 498.384 OFFCURVE",
"475 518 CURVE SMOOTH",
"475 656 LINE SMOOTH",
"475 673.468 OFFCURVE",
"468.756 685.151 OFFCURVE",
"438.894 693.295 CURVE SMOOTH",
"414.205 700.677 OFFCURVE",
"350.726 716 OFFCURVE",
"283 716 CURVE SMOOTH"
);
},
{
closed = 1;
nodes = (
"192 767 LINE SMOOTH",
"211 767 OFFCURVE",
"233 778 OFFCURVE",
"240 787 CURVE SMOOTH",
"273 829 LINE",
"308 786 LINE SMOOTH",
"316 776 OFFCURVE",
"339 767 OFFCURVE",
"356 767 CURVE SMOOTH",
"413 767 LINE SMOOTH",
"451 767 OFFCURVE",
"461 787 OFFCURVE",
"443 811 CURVE SMOOTH",
"361 918 LINE SMOOTH",
"354 927 OFFCURVE",
"332 938 OFFCURVE",
"313 938 CURVE SMOOTH",
"237 938 LINE SMOOTH",
"218 938 OFFCURVE",
"196 927 OFFCURVE",
"189 918 CURVE SMOOTH",
"107 811 LINE SMOOTH",
"89 787 OFFCURVE",
"99 767 OFFCURVE",
"137 767 CURVE SMOOTH"
);
}
);
width = 517;
}
);
unicode = 015C;
},
{
glyphname = Scommaaccent;
lastChange = "2013-07-17 11:28:35 +0000";
layers = (
{
layerId = "EBCDC205-C9A0-423C-849D-CA5F62F08A5E";
name = Regular;
paths = (
{
closed = 1;
nodes = (
"116.624 716 OFFCURVE",
"27 615.85 OFFCURVE",
"27 494 CURVE SMOOTH",
"27 366.101 OFFCURVE",
"130.488 316.709 OFFCURVE",
"224.417 285.048 CURVE SMOOTH",
"294.338 261.751 OFFCURVE",
"336 236.241 OFFCURVE",
"336 176 CURVE SMOOTH",
"336 110.622 OFFCURVE",
"296.939 95 OFFCURVE",
"242 95 CURVE SMOOTH",
"210.536 95 OFFCURVE",
"183.633 103.713 OFFCURVE",
"166.348 114.975 CURVE",
"169.965 190.037 LINE",
"171.98 212.324 OFFCURVE",
"153.435 226 OFFCURVE",
"126 226 CURVE SMOOTH",
"70 226 LINE SMOOTH",
"42.5655 226 OFFCURVE",
"25 212.837 OFFCURVE",
"25 191 CURVE SMOOTH",
"25 32 LINE SMOOTH",
"25 15.1545 OFFCURVE",
"30.8065 3.68964 OFFCURVE",
"57.997 -4 CURVE SMOOTH",
"87.1663 -14 OFFCURVE",
"160.515 -32 OFFCURVE",
"237 -32 CURVE SMOOTH",
"409.581 -32 OFFCURVE",
"507 57.157 OFFCURVE",
"507 198 CURVE SMOOTH",
"507 341.768 OFFCURVE",
"380.394 386.656 OFFCURVE",
"293.68 419.69 CURVE SMOOTH",
"222.362 446.643 OFFCURVE",
"196 471.092 OFFCURVE",
"196 521 CURVE SMOOTH",
"196 567.592 OFFCURVE",
"225.258 589 OFFCURVE",
"273 589 CURVE SMOOTH",
"295.517 589 OFFCURVE",
"315.194 583.884 OFFCURVE",
"332.579 575.816 CURVE",
"330.03 518.895 LINE",
"328.02 496.676 OFFCURVE",
"346.565 483 OFFCURVE",
"374 483 CURVE SMOOTH",
"430 483 LINE SMOOTH",
"459.513 483 OFFCURVE",
"475 498.384 OFFCURVE",
"475 518 CURVE SMOOTH",
"475 656 LINE SMOOTH",
"475 673.468 OFFCURVE",
"468.756 685.151 OFFCURVE",
"438.894 693.295 CURVE SMOOTH",
"414.205 700.677 OFFCURVE",
"350.726 716 OFFCURVE",
"283 716 CURVE SMOOTH"
);
},
{
closed = 1;
nodes = (
"302.094 -223 LINE SMOOTH",
"325.935 -185 OFFCURVE",
"343 -156 OFFCURVE",
"343 -123 CURVE SMOOTH",
"343 -76 OFFCURVE",
"306.614 -50 OFFCURVE",
"253 -50 CURVE SMOOTH",
"194.635 -50 OFFCURVE",
"166 -82 OFFCURVE",
"166 -120 CURVE SMOOTH",
"166 -150 OFFCURVE",
"182.035 -170 OFFCURVE",
"194.701 -186 CURVE",
"175.309 -249 LINE",
"175.91 -248 LINE",
"169.119 -266 OFFCURVE",
"170.368 -279 OFFCURVE",
"199.466 -290 CURVE",
"198.462 -289 LINE",
"210.462 -294 LINE SMOOTH",
"228.491 -302 OFFCURVE",
"256.775 -291 OFFCURVE",
"263.412 -282 CURVE"
);
}
);
width = 517;
}
);
unicode = 0218;
},
{
glyphname = T;
lastChange = "2013-07-17 13:29:48 +0000";
layers = (
{
anchors = (
{
name = bottom;
position = "{297, 0}";
},
{
name = center;
position = "{297, 340}";
},
{
name = top;
position = "{297, 679}";
}
);
layerId = "EBCDC205-C9A0-423C-849D-CA5F62F08A5E";
name = Regular;
paths = (
{
closed = 1;
nodes = (
"436 -20 LINE SMOOTH",
"463.435 -20 OFFCURVE",
"481 -7 OFFCURVE",
"481 15 CURVE SMOOTH",
"481 64 LINE SMOOTH",
"481 83.6158 OFFCURVE",
"465.513 99 OFFCURVE",
"436 99 CURVE SMOOTH",
"383 99 LINE",
"383 579 LINE",
"456.697 579 LINE",
"453.061 522.279 LINE SMOOTH",
"451.02 499.676 OFFCURVE",
"469.565 486 OFFCURVE",
"497 486 CURVE SMOOTH",
"558 486 LINE SMOOTH",
"587.513 486 OFFCURVE",
"603 501.384 OFFCURVE",
"603 521 CURVE SMOOTH",
"603 664 LINE SMOOTH",
"603 683.616 OFFCURVE",
"587.513 699 OFFCURVE",
"558 699 CURVE SMOOTH",
"35 699 LINE SMOOTH",
"5.4869 699 OFFCURVE",
"-10 683.616 OFFCURVE",
"-10 664 CURVE SMOOTH",
"-10 521 LINE SMOOTH",
"-10 501.384 OFFCURVE",
"5.4869 486 OFFCURVE",
"35 486 CURVE SMOOTH",
"96 486 LINE SMOOTH",
"123.435 486 OFFCURVE",
"141.98 499.676 OFFCURVE",
"139.877 522.811 CURVE SMOOTH",
"136.303 579 LINE",
"210 579 LINE",
"210 99 LINE",
"158 99 LINE SMOOTH",
"127.493 99 OFFCURVE",
"113 84.5999 OFFCURVE",
"113 64 CURVE SMOOTH",
"113 15 LINE SMOOTH",
"113 -4 OFFCURVE",
"125.438 -20 OFFCURVE",
"158 -20 CURVE SMOOTH"
);
}
);
width = 593;
}
);
unicode = 0054;
},
{
glyphname = Tbar;
lastChange = "2013-07-17 11:28:35 +0000";
layers = (
{
layerId = "EBCDC205-C9A0-423C-849D-CA5F62F08A5E";
name = Regular;
paths = (
{
closed = 1;
nodes = (
"210 365 LINE",
"149 365 LINE SMOOTH",
"114.513 365 OFFCURVE",
"100 350.552 OFFCURVE",
"100 326 CURVE SMOOTH",
"100 306 LINE SMOOTH",
"100 281.448 OFFCURVE",
"114.513 267 OFFCURVE",
"149 267 CURVE SMOOTH",
"210 267 LINE",
"210 99 LINE",
"158 99 LINE SMOOTH",
"127.493 99 OFFCURVE",
"113 84.5999 OFFCURVE",
"113 64 CURVE SMOOTH",
"113 15 LINE SMOOTH",
"113 -4 OFFCURVE",
"125.438 -20 OFFCURVE",
"158 -20 CURVE SMOOTH",
"436 -20 LINE SMOOTH",
"463.435 -20 OFFCURVE",
"481 -7 OFFCURVE",
"481 15 CURVE SMOOTH",
"481 64 LINE SMOOTH",
"481 83.6158 OFFCURVE",
"465.513 99 OFFCURVE",
"436 99 CURVE SMOOTH",
"383 99 LINE",
"383 267 LINE",
"447 267 LINE SMOOTH",
"481.487 267 OFFCURVE",
"496 281.448 OFFCURVE",
"496 306 CURVE SMOOTH",
"496 326 LINE SMOOTH",
"496 350.552 OFFCURVE",
"481.487 365 OFFCURVE",
"447 365 CURVE SMOOTH",
"383 365 LINE",
"383 579 LINE",
"456.697 579 LINE",
"453.061 522.279 LINE SMOOTH",
"451.02 499.676 OFFCURVE",
"469.565 486 OFFCURVE",
"497 486 CURVE SMOOTH",
"558 486 LINE SMOOTH",
"587.513 486 OFFCURVE",
"603 501.384 OFFCURVE",
"603 521 CURVE SMOOTH",
"603 664 LINE SMOOTH",
"603 683.616 OFFCURVE",
"587.513 699 OFFCURVE",
"558 699 CURVE SMOOTH",
"35 699 LINE SMOOTH",
"5.4869 699 OFFCURVE",
"-10 683.616 OFFCURVE",
"-10 664 CURVE SMOOTH",
"-10 521 LINE SMOOTH",
"-10 501.384 OFFCURVE",
"5.4869 486 OFFCURVE",
"35 486 CURVE SMOOTH",
"96 486 LINE SMOOTH",
"123.435 486 OFFCURVE",
"141.98 499.676 OFFCURVE",
"139.877 522.811 CURVE SMOOTH",
"136.303 579 LINE",
"210 579 LINE"
);
}
);
width = 593;
}
);
unicode = 0166;
},
{
glyphname = Tcaron;
lastChange = "2013-07-17 11:42:17 +0000";
layers = (
{
layerId = "EBCDC205-C9A0-423C-849D-CA5F62F08A5E";
name = Regular;
paths = (
{
closed = 1;
nodes = (
"436 -20 LINE SMOOTH",
"463.435 -20 OFFCURVE",
"481 -7 OFFCURVE",
"481 15 CURVE SMOOTH",
"481 64 LINE SMOOTH",
"481 83.6158 OFFCURVE",
"465.513 99 OFFCURVE",
"436 99 CURVE SMOOTH",
"383 99 LINE",
"383 579 LINE",
"456.697 579 LINE",
"453.061 522.279 LINE SMOOTH",
"451.02 499.676 OFFCURVE",
"469.565 486 OFFCURVE",
"497 486 CURVE SMOOTH",
"558 486 LINE SMOOTH",
"587.513 486 OFFCURVE",
"603 501.384 OFFCURVE",
"603 521 CURVE SMOOTH",
"603 664 LINE SMOOTH",
"603 683.616 OFFCURVE",
"587.513 699 OFFCURVE",
"558 699 CURVE SMOOTH",
"35 699 LINE SMOOTH",
"5.4869 699 OFFCURVE",
"-10 683.616 OFFCURVE",
"-10 664 CURVE SMOOTH",
"-10 521 LINE SMOOTH",
"-10 501.384 OFFCURVE",
"5.4869 486 OFFCURVE",
"35 486 CURVE SMOOTH",
"96 486 LINE SMOOTH",
"123.435 486 OFFCURVE",
"141.98 499.676 OFFCURVE",
"139.877 522.811 CURVE SMOOTH",
"136.303 579 LINE",
"210 579 LINE",
"210 99 LINE",
"158 99 LINE SMOOTH",
"127.493 99 OFFCURVE",
"113 84.5999 OFFCURVE",
"113 64 CURVE SMOOTH",
"113 15 LINE SMOOTH",
"113 -4 OFFCURVE",
"125.438 -20 OFFCURVE",
"158 -20 CURVE SMOOTH"
);
},
{
closed = 1;
nodes = (
"379 907 LINE SMOOTH",
"360 907 OFFCURVE",
"338 896 OFFCURVE",
"331 887 CURVE SMOOTH",
"298 845 LINE",
"263 888 LINE SMOOTH",
"255 898 OFFCURVE",
"232 907 OFFCURVE",
"215 907 CURVE SMOOTH",
"158 907 LINE SMOOTH",
"120 907 OFFCURVE",
"110 887 OFFCURVE",
"128 863 CURVE SMOOTH",
"210 756 LINE SMOOTH",
"217 747 OFFCURVE",
"239 736 OFFCURVE",
"258 736 CURVE SMOOTH",
"334 736 LINE SMOOTH",
"353 736 OFFCURVE",
"375 747 OFFCURVE",
"382 756 CURVE SMOOTH",
"464 863 LINE SMOOTH",
"482 887 OFFCURVE",
"472 907 OFFCURVE",
"434 907 CURVE SMOOTH"
);
}
);
width = 593;
}
);
unicode = 0164;
},
{
glyphname = Tcedilla;
lastChange = "2013-07-17 11:28:35 +0000";
layers = (
{
layerId = "EBCDC205-C9A0-423C-849D-CA5F62F08A5E";
name = Regular;
paths = (
{
closed = 1;
nodes = (
"436 -20 LINE SMOOTH",
"463.435 -20 OFFCURVE",
"481 -7 OFFCURVE",
"481 15 CURVE SMOOTH",
"481 64 LINE SMOOTH",
"481 83.6158 OFFCURVE",
"465.513 99 OFFCURVE",
"436 99 CURVE SMOOTH",
"383 99 LINE",
"383 579 LINE",
"456.697 579 LINE",
"453.061 522.279 LINE SMOOTH",
"451.02 499.676 OFFCURVE",
"469.565 486 OFFCURVE",
"497 486 CURVE SMOOTH",
"558 486 LINE SMOOTH",
"587.513 486 OFFCURVE",
"603 501.384 OFFCURVE",
"603 521 CURVE SMOOTH",
"603 664 LINE SMOOTH",
"603 683.616 OFFCURVE",
"587.513 699 OFFCURVE",
"558 699 CURVE SMOOTH",
"35 699 LINE SMOOTH",
"5.4869 699 OFFCURVE",
"-10 683.616 OFFCURVE",
"-10 664 CURVE SMOOTH",
"-10 521 LINE SMOOTH",
"-10 501.384 OFFCURVE",
"5.4869 486 OFFCURVE",
"35 486 CURVE SMOOTH",
"96 486 LINE SMOOTH",
"123.435 486 OFFCURVE",
"141.98 499.676 OFFCURVE",
"139.877 522.811 CURVE SMOOTH",
"136.303 579 LINE",
"210 579 LINE",
"210 99 LINE",
"158 99 LINE SMOOTH",
"127.493 99 OFFCURVE",
"113 84.5999 OFFCURVE",
"113 64 CURVE SMOOTH",
"113 15 LINE SMOOTH",
"113 -4 OFFCURVE",
"125.438 -20 OFFCURVE",
"158 -20 CURVE SMOOTH",
"240.535 -20 LINE",
"218.94 -51 LINE",
"205.251 -74 OFFCURVE",
"213.163 -84 OFFCURVE",
"251.718 -112 CURVE",
"239.582 -103 LINE",
"249.283 -110 OFFCURVE",
"250 -111 OFFCURVE",
"250 -124 CURVE SMOOTH",
"250 -136 OFFCURVE",
"244.116 -143 OFFCURVE",
"219.352 -165 CURVE SMOOTH",
"200.075 -181 OFFCURVE",
"197.616 -191 OFFCURVE",
"214.319 -212 CURVE SMOOTH",
"222.574 -222 LINE",
"231.9 -235 OFFCURVE",
"266.622 -241 OFFCURVE",
"283.641 -230 CURVE SMOOTH",
"333.873 -196 OFFCURVE",
"393 -146 OFFCURVE",
"393 -108 CURVE SMOOTH",
"393 -78 OFFCURVE",
"373.772 -56 OFFCURVE",
"344.755 -31 CURVE SMOOTH",
"342.794 -29 LINE",
"348.565 -20 LINE"
);
}
);
width = 593;
}
);
unicode = 0162;
},
{
glyphname = Tcommaaccent;
lastChange = "2013-07-17 11:28:35 +0000";
layers = (
{
layerId = "EBCDC205-C9A0-423C-849D-CA5F62F08A5E";
name = Regular;
paths = (
{
closed = 1;
nodes = (
"436 -20 LINE SMOOTH",
"463.435 -20 OFFCURVE",
"481 -7 OFFCURVE",
"481 15 CURVE SMOOTH",
"481 64 LINE SMOOTH",
"481 83.6158 OFFCURVE",
"465.513 99 OFFCURVE",
"436 99 CURVE SMOOTH",
"383 99 LINE",
"383 579 LINE",
"456.697 579 LINE",
"453.061 522.279 LINE SMOOTH",
"451.02 499.676 OFFCURVE",
"469.565 486 OFFCURVE",
"497 486 CURVE SMOOTH",
"558 486 LINE SMOOTH",
"587.513 486 OFFCURVE",
"603 501.384 OFFCURVE",
"603 521 CURVE SMOOTH",
"603 664 LINE SMOOTH",
"603 683.616 OFFCURVE",
"587.513 699 OFFCURVE",
"558 699 CURVE SMOOTH",
"35 699 LINE SMOOTH",
"5.4869 699 OFFCURVE",
"-10 683.616 OFFCURVE",
"-10 664 CURVE SMOOTH",
"-10 521 LINE SMOOTH",
"-10 501.384 OFFCURVE",
"5.4869 486 OFFCURVE",
"35 486 CURVE SMOOTH",
"96 486 LINE SMOOTH",
"123.435 486 OFFCURVE",
"141.98 499.676 OFFCURVE",
"139.877 522.811 CURVE SMOOTH",
"136.303 579 LINE",
"210 579 LINE",
"210 99 LINE",
"158 99 LINE SMOOTH",
"127.493 99 OFFCURVE",
"113 84.5999 OFFCURVE",
"113 64 CURVE SMOOTH",
"113 15 LINE SMOOTH",
"113 -4 OFFCURVE",
"125.438 -20 OFFCURVE",
"158 -20 CURVE SMOOTH"
);
},
{
closed = 1;
nodes = (
"346.094 -223 LINE SMOOTH",
"369.935 -185 OFFCURVE",
"387 -156 OFFCURVE",
"387 -123 CURVE SMOOTH",
"387 -76 OFFCURVE",
"350.614 -50 OFFCURVE",
"297 -50 CURVE SMOOTH",
"238.635 -50 OFFCURVE",
"210 -82 OFFCURVE",
"210 -120 CURVE SMOOTH",
"210 -150 OFFCURVE",
"226.035 -170 OFFCURVE",
"238.701 -186 CURVE",
"219.309 -249 LINE",
"219.91 -248 LINE",
"213.119 -266 OFFCURVE",
"214.368 -279 OFFCURVE",
"243.466 -290 CURVE",
"242.462 -289 LINE",
"254.462 -294 LINE SMOOTH",
"272.491 -302 OFFCURVE",
"300.775 -291 OFFCURVE",
"307.412 -282 CURVE"
);
}
);
width = 593;
}
);
unicode = 021A;
},
{
glyphname = U;
lastChange = "2013-07-17 13:29:48 +0000";
layers = (
{
anchors = (
{
name = ogonek;
position = "{642, 10}";
},
{
name = top;
position = "{357, 679}";
}
);
layerId = "EBCDC205-C9A0-423C-849D-CA5F62F08A5E";
name = Regular;
paths = (
{
closed = 1;
nodes = (
"235 578 LINE",
"258 578 LINE SMOOTH",
"285.435 578 OFFCURVE",
"303 591.163 OFFCURVE",
"303 613 CURVE SMOOTH",
"303 664 LINE SMOOTH",
"303 683.616 OFFCURVE",
"287.513 699 OFFCURVE",
"258 699 CURVE SMOOTH",
"40 699 LINE SMOOTH",
"12.5655 699 OFFCURVE",
"-5 685.837 OFFCURVE",
"-5 664 CURVE SMOOTH",
"-5 613 LINE SMOOTH",
"-5 593.384 OFFCURVE",
"10.4869 578 OFFCURVE",
"40 578 CURVE SMOOTH",
"63 578 LINE",
"63 249 LINE SMOOTH",
"63 79.8354 OFFCURVE",
"130.101 -32 OFFCURVE",
"357 -32 CURVE SMOOTH",
"591.15 -32 OFFCURVE",
"650 123.047 OFFCURVE",
"650 260 CURVE SMOOTH",
"650 578 LINE",
"673 578 LINE SMOOTH",
"700.435 578 OFFCURVE",
"718 591.163 OFFCURVE",
"718 613 CURVE SMOOTH",
"718 664 LINE SMOOTH",
"718 683.616 OFFCURVE",
"702.513 699 OFFCURVE",
"673 699 CURVE SMOOTH",
"471 699 LINE SMOOTH",
"443.565 699 OFFCURVE",
"426 685.837 OFFCURVE",
"426 664 CURVE SMOOTH",
"426 613 LINE SMOOTH",
"426 593.384 OFFCURVE",
"441.487 578 OFFCURVE",
"471 578 CURVE SMOOTH",
"494 578 LINE",
"494 281 LINE SMOOTH",
"494 162.436 OFFCURVE",
"463.101 98 OFFCURVE",
"360 98 CURVE SMOOTH",
"248.807 98 OFFCURVE",
"235 169.882 OFFCURVE",
"235 284 CURVE SMOOTH"
);
}
);
width = 713;
}
);
unicode = 0055;
},
{
glyphname = Uacute;
lastChange = "2013-07-17 11:42:28 +0000";
layers = (
{
layerId = "EBCDC205-C9A0-423C-849D-CA5F62F08A5E";
name = Regular;
paths = (
{
closed = 1;
nodes = (
"235 578 LINE",
"258 578 LINE SMOOTH",
"285.435 578 OFFCURVE",
"303 591.163 OFFCURVE",
"303 613 CURVE SMOOTH",
"303 664 LINE SMOOTH",
"303 683.616 OFFCURVE",
"287.513 699 OFFCURVE",
"258 699 CURVE SMOOTH",
"40 699 LINE SMOOTH",
"12.5655 699 OFFCURVE",
"-5 685.837 OFFCURVE",
"-5 664 CURVE SMOOTH",
"-5 613 LINE SMOOTH",
"-5 593.384 OFFCURVE",
"10.4869 578 OFFCURVE",
"40 578 CURVE SMOOTH",
"63 578 LINE",
"63 249 LINE SMOOTH",
"63 79.8354 OFFCURVE",
"130.101 -32 OFFCURVE",
"357 -32 CURVE SMOOTH",
"591.15 -32 OFFCURVE",
"650 123.047 OFFCURVE",
"650 260 CURVE SMOOTH",
"650 578 LINE",
"673 578 LINE SMOOTH",
"700.435 578 OFFCURVE",
"718 591.163 OFFCURVE",
"718 613 CURVE SMOOTH",
"718 664 LINE SMOOTH",
"718 683.616 OFFCURVE",
"702.513 699 OFFCURVE",
"673 699 CURVE SMOOTH",
"471 699 LINE SMOOTH",
"443.565 699 OFFCURVE",
"426 685.837 OFFCURVE",
"426 664 CURVE SMOOTH",
"426 613 LINE SMOOTH",
"426 593.384 OFFCURVE",
"441.487 578 OFFCURVE",
"471 578 CURVE SMOOTH",
"494 578 LINE",
"494 281 LINE SMOOTH",
"494 162.436 OFFCURVE",
"463.101 98 OFFCURVE",
"360 98 CURVE SMOOTH",
"248.807 98 OFFCURVE",
"235 169.882 OFFCURVE",
"235 284 CURVE SMOOTH"
);
},
{
closed = 1;
nodes = (
"312 779 LINE",
"297 753 OFFCURVE",
"311 731 OFFCURVE",
"346 731 CURVE SMOOTH",
"394 731 LINE SMOOTH",
"411 731 OFFCURVE",
"432 741 OFFCURVE",
"440 750 CURVE",
"512 854 LINE",
"511 853 LINE",
"526 874 OFFCURVE",
"521 897 OFFCURVE",
"481 897 CURVE SMOOTH",
"403 897 LINE SMOOTH",
"384 897 OFFCURVE",
"363 886 OFFCURVE",
"356 874 CURVE"
);
}
);
width = 713;
}
);
unicode = 00DA;
},
{
glyphname = Ubreve;
lastChange = "2013-07-17 11:42:35 +0000";
layers = (
{
layerId = "EBCDC205-C9A0-423C-849D-CA5F62F08A5E";
name = Regular;
paths = (
{
closed = 1;
nodes = (
"235 578 LINE",
"258 578 LINE SMOOTH",
"285.435 578 OFFCURVE",
"303 591.163 OFFCURVE",
"303 613 CURVE SMOOTH",
"303 664 LINE SMOOTH",
"303 683.616 OFFCURVE",
"287.513 699 OFFCURVE",
"258 699 CURVE SMOOTH",
"40 699 LINE SMOOTH",
"12.5655 699 OFFCURVE",
"-5 685.837 OFFCURVE",
"-5 664 CURVE SMOOTH",
"-5 613 LINE SMOOTH",
"-5 593.384 OFFCURVE",
"10.4869 578 OFFCURVE",
"40 578 CURVE SMOOTH",
"63 578 LINE",
"63 249 LINE SMOOTH",
"63 79.8354 OFFCURVE",
"130.101 -32 OFFCURVE",
"357 -32 CURVE SMOOTH",
"591.15 -32 OFFCURVE",
"650 123.047 OFFCURVE",
"650 260 CURVE SMOOTH",
"650 578 LINE",
"673 578 LINE SMOOTH",
"700.435 578 OFFCURVE",
"718 591.163 OFFCURVE",
"718 613 CURVE SMOOTH",
"718 664 LINE SMOOTH",
"718 683.616 OFFCURVE",
"702.513 699 OFFCURVE",
"673 699 CURVE SMOOTH",
"471 699 LINE SMOOTH",
"443.565 699 OFFCURVE",
"426 685.837 OFFCURVE",
"426 664 CURVE SMOOTH",
"426 613 LINE SMOOTH",
"426 593.384 OFFCURVE",
"441.487 578 OFFCURVE",
"471 578 CURVE SMOOTH",
"494 578 LINE",
"494 281 LINE SMOOTH",
"494 162.436 OFFCURVE",
"463.101 98 OFFCURVE",
"360 98 CURVE SMOOTH",
"248.807 98 OFFCURVE",
"235 169.882 OFFCURVE",
"235 284 CURVE SMOOTH"
);
},
{
closed = 1;
nodes = (
"335 846 OFFCURVE",
"325 852 OFFCURVE",
"320 873 CURVE SMOOTH",
"314 896 OFFCURVE",
"300 907 OFFCURVE",
"267 907 CURVE SMOOTH",
"235 907 LINE SMOOTH",
"201 907 OFFCURVE",
"186 893 OFFCURVE",
"186 868 CURVE SMOOTH",
"188 783 OFFCURVE",
"257 730 OFFCURVE",
"379 730 CURVE SMOOTH",
"494 730 OFFCURVE",
"568 781 OFFCURVE",
"575 866 CURVE SMOOTH",
"577 892 OFFCURVE",
"561 907 OFFCURVE",
"527 907 CURVE SMOOTH",
"496 907 LINE SMOOTH",
"469 907 OFFCURVE",
"448 894 OFFCURVE",
"441 874 CURVE SMOOTH",
"434 849 OFFCURVE",
"425 846 OFFCURVE",
"382 846 CURVE SMOOTH"
);
}
);
width = 713;
}
);
unicode = 016C;
},
{
glyphname = Ucircumflex;
lastChange = "2013-07-17 11:42:43 +0000";
layers = (
{
layerId = "EBCDC205-C9A0-423C-849D-CA5F62F08A5E";
name = Regular;
paths = (
{
closed = 1;
nodes = (
"235 578 LINE",
"258 578 LINE SMOOTH",
"285.435 578 OFFCURVE",
"303 591.163 OFFCURVE",
"303 613 CURVE SMOOTH",
"303 664 LINE SMOOTH",
"303 683.616 OFFCURVE",
"287.513 699 OFFCURVE",
"258 699 CURVE SMOOTH",
"40 699 LINE SMOOTH",
"12.5655 699 OFFCURVE",
"-5 685.837 OFFCURVE",
"-5 664 CURVE SMOOTH",
"-5 613 LINE SMOOTH",
"-5 593.384 OFFCURVE",
"10.4869 578 OFFCURVE",
"40 578 CURVE SMOOTH",
"63 578 LINE",
"63 249 LINE SMOOTH",
"63 79.8354 OFFCURVE",
"130.101 -32 OFFCURVE",
"357 -32 CURVE SMOOTH",
"591.15 -32 OFFCURVE",
"650 123.047 OFFCURVE",
"650 260 CURVE SMOOTH",
"650 578 LINE",
"673 578 LINE SMOOTH",
"700.435 578 OFFCURVE",
"718 591.163 OFFCURVE",
"718 613 CURVE SMOOTH",
"718 664 LINE SMOOTH",
"718 683.616 OFFCURVE",
"702.513 699 OFFCURVE",
"673 699 CURVE SMOOTH",
"471 699 LINE SMOOTH",
"443.565 699 OFFCURVE",
"426 685.837 OFFCURVE",
"426 664 CURVE SMOOTH",
"426 613 LINE SMOOTH",
"426 593.384 OFFCURVE",
"441.487 578 OFFCURVE",
"471 578 CURVE SMOOTH",
"494 578 LINE",
"494 281 LINE SMOOTH",
"494 162.436 OFFCURVE",
"463.101 98 OFFCURVE",
"360 98 CURVE SMOOTH",
"248.807 98 OFFCURVE",
"235 169.882 OFFCURVE",
"235 284 CURVE SMOOTH"
);
},
{
closed = 1;
nodes = (
"283 729 LINE SMOOTH",
"302 729 OFFCURVE",
"324 740 OFFCURVE",
"331 749 CURVE SMOOTH",
"364 791 LINE",
"399 748 LINE SMOOTH",
"407 738 OFFCURVE",
"430 729 OFFCURVE",
"447 729 CURVE SMOOTH",
"504 729 LINE SMOOTH",
"542 729 OFFCURVE",
"552 749 OFFCURVE",
"534 773 CURVE SMOOTH",
"452 880 LINE SMOOTH",
"445 889 OFFCURVE",
"423 900 OFFCURVE",
"404 900 CURVE SMOOTH",
"328 900 LINE SMOOTH",
"309 900 OFFCURVE",
"287 889 OFFCURVE",
"280 880 CURVE SMOOTH",
"198 773 LINE SMOOTH",
"180 749 OFFCURVE",
"190 729 OFFCURVE",
"228 729 CURVE SMOOTH"
);
}
);
width = 713;
}
);
unicode = 00DB;
},
{
glyphname = Udieresis;
lastChange = "2013-07-17 11:43:01 +0000";
layers = (
{
layerId = "EBCDC205-C9A0-423C-849D-CA5F62F08A5E";
name = Regular;
paths = (
{
closed = 1;
nodes = (
"235 578 LINE",
"258 578 LINE SMOOTH",
"285.435 578 OFFCURVE",
"303 591.163 OFFCURVE",
"303 613 CURVE SMOOTH",
"303 664 LINE SMOOTH",
"303 683.616 OFFCURVE",
"287.513 699 OFFCURVE",
"258 699 CURVE SMOOTH",
"40 699 LINE SMOOTH",
"12.5655 699 OFFCURVE",
"-5 685.837 OFFCURVE",
"-5 664 CURVE SMOOTH",
"-5 613 LINE SMOOTH",
"-5 593.384 OFFCURVE",
"10.4869 578 OFFCURVE",
"40 578 CURVE SMOOTH",
"63 578 LINE",
"63 249 LINE SMOOTH",
"63 79.8354 OFFCURVE",
"130.101 -32 OFFCURVE",
"357 -32 CURVE SMOOTH",
"591.15 -32 OFFCURVE",
"650 123.047 OFFCURVE",
"650 260 CURVE SMOOTH",
"650 578 LINE",
"673 578 LINE SMOOTH",
"700.435 578 OFFCURVE",
"718 591.163 OFFCURVE",
"718 613 CURVE SMOOTH",
"718 664 LINE SMOOTH",
"718 683.616 OFFCURVE",
"702.513 699 OFFCURVE",
"673 699 CURVE SMOOTH",
"471 699 LINE SMOOTH",
"443.565 699 OFFCURVE",
"426 685.837 OFFCURVE",
"426 664 CURVE SMOOTH",
"426 613 LINE SMOOTH",
"426 593.384 OFFCURVE",
"441.487 578 OFFCURVE",
"471 578 CURVE SMOOTH",
"494 578 LINE",
"494 281 LINE SMOOTH",
"494 162.436 OFFCURVE",
"463.101 98 OFFCURVE",
"360 98 CURVE SMOOTH",
"248.807 98 OFFCURVE",
"235 169.882 OFFCURVE",
"235 284 CURVE SMOOTH"
);
},
{
closed = 1;
nodes = (
"532 736 OFFCURVE",
"573 767 OFFCURVE",
"573 818 CURVE SMOOTH",
"573 867 OFFCURVE",
"539 898 OFFCURVE",
"481 898 CURVE SMOOTH",
"427 898 OFFCURVE",
"389 866 OFFCURVE",
"389 818 CURVE SMOOTH",
"389 769 OFFCURVE",
"425 736 OFFCURVE",
"481 736 CURVE SMOOTH"
);
},
{
closed = 1;
nodes = (
"302 736 OFFCURVE",
"343 767 OFFCURVE",
"343 818 CURVE SMOOTH",
"343 867 OFFCURVE",
"309 898 OFFCURVE",
"251 898 CURVE SMOOTH",
"197 898 OFFCURVE",
"159 866 OFFCURVE",
"159 818 CURVE SMOOTH",
"159 769 OFFCURVE",
"195 736 OFFCURVE",
"251 736 CURVE SMOOTH"
);
}
);
width = 713;
}
);
unicode = 00DC;
},
{
glyphname = Ugrave;
lastChange = "2013-07-17 11:43:13 +0000";
layers = (
{
layerId = "EBCDC205-C9A0-423C-849D-CA5F62F08A5E";
name = Regular;
paths = (
{
closed = 1;
nodes = (
"235 578 LINE",
"258 578 LINE SMOOTH",
"285.435 578 OFFCURVE",
"303 591.163 OFFCURVE",
"303 613 CURVE SMOOTH",
"303 664 LINE SMOOTH",
"303 683.616 OFFCURVE",
"287.513 699 OFFCURVE",
"258 699 CURVE SMOOTH",
"40 699 LINE SMOOTH",
"12.5655 699 OFFCURVE",
"-5 685.837 OFFCURVE",
"-5 664 CURVE SMOOTH",
"-5 613 LINE SMOOTH",
"-5 593.384 OFFCURVE",
"10.4869 578 OFFCURVE",
"40 578 CURVE SMOOTH",
"63 578 LINE",
"63 249 LINE SMOOTH",
"63 79.8354 OFFCURVE",
"130.101 -32 OFFCURVE",
"357 -32 CURVE SMOOTH",
"591.15 -32 OFFCURVE",
"650 123.047 OFFCURVE",
"650 260 CURVE SMOOTH",
"650 578 LINE",
"673 578 LINE SMOOTH",
"700.435 578 OFFCURVE",
"718 591.163 OFFCURVE",
"718 613 CURVE SMOOTH",
"718 664 LINE SMOOTH",
"718 683.616 OFFCURVE",
"702.513 699 OFFCURVE",
"673 699 CURVE SMOOTH",
"471 699 LINE SMOOTH",
"443.565 699 OFFCURVE",
"426 685.837 OFFCURVE",
"426 664 CURVE SMOOTH",
"426 613 LINE SMOOTH",
"426 593.384 OFFCURVE",
"441.487 578 OFFCURVE",
"471 578 CURVE SMOOTH",
"494 578 LINE",
"494 281 LINE SMOOTH",
"494 162.436 OFFCURVE",
"463.101 98 OFFCURVE",
"360 98 CURVE SMOOTH",
"248.807 98 OFFCURVE",
"235 169.882 OFFCURVE",
"235 284 CURVE SMOOTH"
);
},
{
closed = 1;
nodes = (
"389 870 LINE",
"381 886 OFFCURVE",
"364 899 OFFCURVE",
"335 899 CURVE SMOOTH",
"265 899 LINE SMOOTH",
"223 899 OFFCURVE",
"213 879 OFFCURVE",
"233 852 CURVE",
"297 757 LINE",
"298 756 LINE",
"308 743 OFFCURVE",
"328 733 OFFCURVE",
"352 733 CURVE SMOOTH",
"392 733 LINE SMOOTH",
"428 733 OFFCURVE",
"443 752 OFFCURVE",
"430 778 CURVE SMOOTH"
);
}
);
width = 713;
}
);
unicode = 00D9;
},
{
glyphname = Uhungarumlaut;
lastChange = "2013-07-17 13:35:49 +0000";
layers = (
{
layerId = "EBCDC205-C9A0-423C-849D-CA5F62F08A5E";
name = Regular;
paths = (
{
closed = 1;
nodes = (
"235 578 LINE",
"258 578 LINE SMOOTH",
"285.435 578 OFFCURVE",
"303 591.163 OFFCURVE",
"303 613 CURVE SMOOTH",
"303 664 LINE SMOOTH",
"303 683.616 OFFCURVE",
"287.513 699 OFFCURVE",
"258 699 CURVE SMOOTH",
"40 699 LINE SMOOTH",
"12.5655 699 OFFCURVE",
"-5 685.837 OFFCURVE",
"-5 664 CURVE SMOOTH",
"-5 613 LINE SMOOTH",
"-5 593.384 OFFCURVE",
"10.4869 578 OFFCURVE",
"40 578 CURVE SMOOTH",
"63 578 LINE",
"63 249 LINE SMOOTH",
"63 79.8354 OFFCURVE",
"130.101 -32 OFFCURVE",
"357 -32 CURVE SMOOTH",
"591.15 -32 OFFCURVE",
"650 123.047 OFFCURVE",
"650 260 CURVE SMOOTH",
"650 578 LINE",
"673 578 LINE SMOOTH",
"700.435 578 OFFCURVE",
"718 591.163 OFFCURVE",
"718 613 CURVE SMOOTH",
"718 664 LINE SMOOTH",
"718 683.616 OFFCURVE",
"702.513 699 OFFCURVE",
"673 699 CURVE SMOOTH",
"471 699 LINE SMOOTH",
"443.565 699 OFFCURVE",
"426 685.837 OFFCURVE",
"426 664 CURVE SMOOTH",
"426 613 LINE SMOOTH",
"426 593.384 OFFCURVE",
"441.487 578 OFFCURVE",
"471 578 CURVE SMOOTH",
"494 578 LINE",
"494 281 LINE SMOOTH",
"494 162.436 OFFCURVE",
"463.101 98 OFFCURVE",
"360 98 CURVE SMOOTH",
"248.807 98 OFFCURVE",
"235 169.882 OFFCURVE",
"235 284 CURVE SMOOTH"
);
},
{
closed = 1;
nodes = (
"377 787 LINE",
"362 761 OFFCURVE",
"376 739 OFFCURVE",
"411 739 CURVE SMOOTH",
"449 739 LINE SMOOTH",
"466 739 OFFCURVE",
"487 749 OFFCURVE",
"495 758 CURVE",
"567 862 LINE",
"566 861 LINE",
"581 882 OFFCURVE",
"576 905 OFFCURVE",
"536 905 CURVE SMOOTH",
"468 905 LINE SMOOTH",
"449 905 OFFCURVE",
"428 894 OFFCURVE",
"421 882 CURVE"
);
},
{
closed = 1;
nodes = (
"187 787 LINE",
"172 761 OFFCURVE",
"186 739 OFFCURVE",
"221 739 CURVE SMOOTH",
"259 739 LINE SMOOTH",
"276 739 OFFCURVE",
"297 749 OFFCURVE",
"305 758 CURVE",
"377 862 LINE",
"376 861 LINE",
"391 882 OFFCURVE",
"386 905 OFFCURVE",
"346 905 CURVE SMOOTH",
"278 905 LINE SMOOTH",
"259 905 OFFCURVE",
"238 894 OFFCURVE",
"231 882 CURVE"
);
}
);
width = 713;
}
);
unicode = 0170;
},
{
glyphname = Umacron;
lastChange = "2013-07-17 11:43:23 +0000";
layers = (
{
layerId = "EBCDC205-C9A0-423C-849D-CA5F62F08A5E";
name = Regular;
paths = (
{
closed = 1;
nodes = (
"235 578 LINE",
"258 578 LINE SMOOTH",
"285.435 578 OFFCURVE",
"303 591.163 OFFCURVE",
"303 613 CURVE SMOOTH",
"303 664 LINE SMOOTH",
"303 683.616 OFFCURVE",
"287.513 699 OFFCURVE",
"258 699 CURVE SMOOTH",
"40 699 LINE SMOOTH",
"12.5655 699 OFFCURVE",
"-5 685.837 OFFCURVE",
"-5 664 CURVE SMOOTH",
"-5 613 LINE SMOOTH",
"-5 593.384 OFFCURVE",
"10.4869 578 OFFCURVE",
"40 578 CURVE SMOOTH",
"63 578 LINE",
"63 249 LINE SMOOTH",
"63 79.8354 OFFCURVE",
"130.101 -32 OFFCURVE",
"357 -32 CURVE SMOOTH",
"591.15 -32 OFFCURVE",
"650 123.047 OFFCURVE",
"650 260 CURVE SMOOTH",
"650 578 LINE",
"673 578 LINE SMOOTH",
"700.435 578 OFFCURVE",
"718 591.163 OFFCURVE",
"718 613 CURVE SMOOTH",
"718 664 LINE SMOOTH",
"718 683.616 OFFCURVE",
"702.513 699 OFFCURVE",
"673 699 CURVE SMOOTH",
"471 699 LINE SMOOTH",
"443.565 699 OFFCURVE",
"426 685.837 OFFCURVE",
"426 664 CURVE SMOOTH",
"426 613 LINE SMOOTH",
"426 593.384 OFFCURVE",
"441.487 578 OFFCURVE",
"471 578 CURVE SMOOTH",
"494 578 LINE",
"494 281 LINE SMOOTH",
"494 162.436 OFFCURVE",
"463.101 98 OFFCURVE",
"360 98 CURVE SMOOTH",
"248.807 98 OFFCURVE",
"235 169.882 OFFCURVE",
"235 284 CURVE SMOOTH"
);
},
{
closed = 1;
nodes = (
"486 762 LINE SMOOTH",
"520 762 OFFCURVE",
"535 776 OFFCURVE",
"535 801 CURVE SMOOTH",
"535 844 LINE SMOOTH",
"535 869 OFFCURVE",
"520 883 OFFCURVE",
"486 883 CURVE SMOOTH",
"226 883 LINE SMOOTH",
"192 883 OFFCURVE",
"177 869 OFFCURVE",
"177 844 CURVE SMOOTH",
"177 801 LINE SMOOTH",
"177 776 OFFCURVE",
"192 762 OFFCURVE",
"226 762 CURVE SMOOTH"
);
}
);
width = 713;
}
);
unicode = 016A;
},
{
glyphname = Uogonek;
lastChange = "2013-07-17 11:28:35 +0000";
layers = (
{
layerId = "EBCDC205-C9A0-423C-849D-CA5F62F08A5E";
name = Regular;
paths = (
{
closed = 1;
nodes = (
"299 -204 OFFCURVE",
"336.339 -253 OFFCURVE",
"413 -253 CURVE SMOOTH",
"459.155 -253 OFFCURVE",
"503.337 -231 OFFCURVE",
"522.108 -217 CURVE",
"548.337 -200 OFFCURVE",
"546.426 -190 OFFCURVE",
"535.337 -169 CURVE",
"525.833 -150 LINE SMOOTH",
"518.769 -136 OFFCURVE",
"481.759 -125 OFFCURVE",
"463.419 -137 CURVE",
"450.668 -143 OFFCURVE",
"447.677 -144 OFFCURVE",
"441 -144 CURVE SMOOTH",
"437.806 -144 OFFCURVE",
"438 -145 OFFCURVE",
"438 -128 CURVE SMOOTH",
"438 -99 OFFCURVE",
"455.095 -52 OFFCURVE",
"519.588 -5 CURVE SMOOTH",
"616.413 64.9103 OFFCURVE",
"650 159.171 OFFCURVE",
"650 260 CURVE SMOOTH",
"650 578 LINE",
"673 578 LINE SMOOTH",
"700.435 578 OFFCURVE",
"718 591.163 OFFCURVE",
"718 613 CURVE SMOOTH",
"718 664 LINE SMOOTH",
"718 683.616 OFFCURVE",
"702.513 699 OFFCURVE",
"673 699 CURVE SMOOTH",
"471 699 LINE SMOOTH",
"443.565 699 OFFCURVE",
"426 685.837 OFFCURVE",
"426 664 CURVE SMOOTH",
"426 613 LINE SMOOTH",
"426 593.384 OFFCURVE",
"441.487 578 OFFCURVE",
"471 578 CURVE SMOOTH",
"494 578 LINE",
"494 281 LINE SMOOTH",
"494 162.436 OFFCURVE",
"463.101 98 OFFCURVE",
"360 98 CURVE SMOOTH",
"248.807 98 OFFCURVE",
"235 169.882 OFFCURVE",
"235 284 CURVE SMOOTH",
"235 578 LINE",
"258 578 LINE SMOOTH",
"285.435 578 OFFCURVE",
"303 591.163 OFFCURVE",
"303 613 CURVE SMOOTH",
"303 664 LINE SMOOTH",
"303 683.616 OFFCURVE",
"287.513 699 OFFCURVE",
"258 699 CURVE SMOOTH",
"40 699 LINE SMOOTH",
"12.5655 699 OFFCURVE",
"-5 685.837 OFFCURVE",
"-5 664 CURVE SMOOTH",
"-5 613 LINE SMOOTH",
"-5 593.384 OFFCURVE",
"10.4869 578 OFFCURVE",
"40 578 CURVE SMOOTH",
"63 578 LINE",
"63 249 LINE SMOOTH",
"63 79.8354 OFFCURVE",
"130.101 -32 OFFCURVE",
"357 -32 CURVE SMOOTH",
"376.248 -32 OFFCURVE",
"394.723 -31 OFFCURVE",
"410.721 -29 CURVE",
"386.629 5.68199 LINE",
"341.656 -36 OFFCURVE",
"299 -89 OFFCURVE",
"299 -147 CURVE SMOOTH"
);
}
);
width = 713;
}
);
unicode = 0172;
},
